<?xml version="1.0" encoding="UTF-8" standalone="no"?>
<!-- Created with Inkscape (http://www.inkscape.org/) -->

<svg
   width="500"
   height="500"
   viewBox="0 0 132.29166 132.29167"
   version="1.1"
   id="svg1"
   inkscape:version="1.4.3 (0d15f75, 2025-12-25)"
   sodipodi:docname="白底版-passwd-memory-points.svg"
   xmlns:inkscape="http://www.inkscape.org/namespaces/inkscape"
   xmlns:sodipodi="http://sodipodi.sourceforge.net/DTD/sodipodi-0.dtd"
   xmlns:xlink="http://www.w3.org/1999/xlink"
   xmlns="http://www.w3.org/2000/svg"
   xmlns:svg="http://www.w3.org/2000/svg">
  <sodipodi:namedview
     id="namedview1"
     pagecolor="#ffffff"
     bordercolor="#000000"
     borderopacity="0.25"
     inkscape:showpageshadow="2"
     inkscape:pageopacity="0.0"
     inkscape:pagecheckerboard="false"
     inkscape:deskcolor="#d1d1d1"
     inkscape:document-units="mm"
     inkscape:zoom="0.99402667"
     inkscape:cx="532.17888"
     inkscape:cy="337.5161"
     inkscape:window-width="1920"
     inkscape:window-height="1003"
     inkscape:window-x="-9"
     inkscape:window-y="39"
     inkscape:window-maximized="1"
     inkscape:current-layer="layer3"
     showborder="true"
     labelstyle="default" />
  <defs
     id="defs1">
    <inkscape:path-effect
       effect="powerstroke"
       message=""
       id="path-effect120"
       is_visible="true"
       lpeversion="1.3"
       scale_width="1"
       interpolator_type="CentripetalCatmullRom"
       interpolator_beta="0.75"
       start_linecap_type="round"
       end_linecap_type="round"
       offset_points="3.5142598,0.94106462"
       linejoin_type="spiro"
       miter_limit="4"
       not_jump="true"
       sort_points="true" />
    <inkscape:path-effect
       effect="simplify"
       id="path-effect119"
       is_visible="true"
       lpeversion="1.3"
       threshold="0.6"
       steps="1"
       smooth_angles="0"
       helper_size="0"
       simplify_individual_paths="false"
       simplify_just_coalesce="false"
       step="1" />
    <inkscape:path-effect
       effect="powerstroke"
       message=""
       id="path-effect118"
       is_visible="true"
       lpeversion="1.3"
       scale_width="1"
       interpolator_type="CentripetalCatmullRom"
       interpolator_beta="0.75"
       start_linecap_type="round"
       end_linecap_type="round"
       offset_points="0.6799718,0.94106462"
       linejoin_type="spiro"
       miter_limit="4"
       not_jump="true"
       sort_points="true" />
    <inkscape:path-effect
       effect="simplify"
       id="path-effect117"
       is_visible="true"
       lpeversion="1.3"
       threshold="0.6"
       steps="1"
       smooth_angles="0"
       helper_size="0"
       simplify_individual_paths="false"
       simplify_just_coalesce="false"
       step="1" />
    <inkscape:path-effect
       effect="powerstroke"
       message=""
       id="path-effect116"
       is_visible="true"
       lpeversion="1.3"
       scale_width="1"
       interpolator_type="CentripetalCatmullRom"
       interpolator_beta="0.75"
       start_linecap_type="round"
       end_linecap_type="round"
       offset_points="2.5357879,0.94106462"
       linejoin_type="spiro"
       miter_limit="4"
       not_jump="true"
       sort_points="true" />
    <inkscape:path-effect
       effect="simplify"
       id="path-effect115"
       is_visible="true"
       lpeversion="1.3"
       threshold="0.6"
       steps="1"
       smooth_angles="0"
       helper_size="0"
       simplify_individual_paths="false"
       simplify_just_coalesce="false"
       step="1" />
    <inkscape:path-effect
       effect="powerstroke"
       message=""
       id="path-effect114"
       is_visible="true"
       lpeversion="1.3"
       scale_width="1"
       interpolator_type="CentripetalCatmullRom"
       interpolator_beta="0.75"
       start_linecap_type="round"
       end_linecap_type="round"
       offset_points="3.2305924,0.94106462"
       linejoin_type="spiro"
       miter_limit="4"
       not_jump="true"
       sort_points="true" />
    <inkscape:path-effect
       effect="simplify"
       id="path-effect113"
       is_visible="true"
       lpeversion="1.3"
       threshold="0.6"
       steps="1"
       smooth_angles="0"
       helper_size="0"
       simplify_individual_paths="false"
       simplify_just_coalesce="false"
       step="1" />
    <inkscape:path-effect
       effect="powerstroke"
       message=""
       id="path-effect112"
       is_visible="true"
       lpeversion="1.3"
       scale_width="1"
       interpolator_type="CentripetalCatmullRom"
       interpolator_beta="0.75"
       start_linecap_type="round"
       end_linecap_type="round"
       offset_points="1.859778,0.94106462"
       linejoin_type="spiro"
       miter_limit="4"
       not_jump="true"
       sort_points="true" />
    <inkscape:path-effect
       effect="simplify"
       id="path-effect111"
       is_visible="true"
       lpeversion="1.3"
       threshold="0.6"
       steps="1"
       smooth_angles="0"
       helper_size="0"
       simplify_individual_paths="false"
       simplify_just_coalesce="false"
       step="1" />
    <inkscape:path-effect
       effect="powerstroke"
       message=""
       id="path-effect110"
       is_visible="true"
       lpeversion="1.3"
       scale_width="1"
       interpolator_type="CentripetalCatmullRom"
       interpolator_beta="0.75"
       start_linecap_type="round"
       end_linecap_type="round"
       offset_points="2.4986765,0.94106462"
       linejoin_type="spiro"
       miter_limit="4"
       not_jump="true"
       sort_points="true" />
    <inkscape:path-effect
       effect="simplify"
       id="path-effect109"
       is_visible="true"
       lpeversion="1.3"
       threshold="0.6"
       steps="1"
       smooth_angles="0"
       helper_size="0"
       simplify_individual_paths="false"
       simplify_just_coalesce="false"
       step="1" />
    <inkscape:path-effect
       effect="powerstroke"
       message=""
       id="path-effect108"
       is_visible="true"
       lpeversion="1.3"
       scale_width="1"
       interpolator_type="CentripetalCatmullRom"
       interpolator_beta="0.75"
       start_linecap_type="round"
       end_linecap_type="round"
       offset_points="4.1586481,0.94106462"
       linejoin_type="spiro"
       miter_limit="4"
       not_jump="true"
       sort_points="true" />
    <inkscape:path-effect
       effect="simplify"
       id="path-effect107"
       is_visible="true"
       lpeversion="1.3"
       threshold="0.6"
       steps="1"
       smooth_angles="0"
       helper_size="0"
       simplify_individual_paths="false"
       simplify_just_coalesce="false"
       step="1" />
    <inkscape:path-effect
       effect="powerstroke"
       message=""
       id="path-effect106"
       is_visible="true"
       lpeversion="1.3"
       scale_width="1"
       interpolator_type="CentripetalCatmullRom"
       interpolator_beta="0.75"
       start_linecap_type="round"
       end_linecap_type="round"
       offset_points="1.9508341,2.8231939"
       linejoin_type="spiro"
       miter_limit="4"
       not_jump="true"
       sort_points="true" />
    <inkscape:path-effect
       effect="simplify"
       id="path-effect105"
       is_visible="true"
       lpeversion="1.3"
       threshold="0.6"
       steps="1"
       smooth_angles="0"
       helper_size="0"
       simplify_individual_paths="false"
       simplify_just_coalesce="false"
       step="1" />
    <inkscape:path-effect
       effect="powerstroke"
       message=""
       id="path-effect104"
       is_visible="true"
       lpeversion="1.3"
       scale_width="1"
       interpolator_type="CentripetalCatmullRom"
       interpolator_beta="0.75"
       start_linecap_type="round"
       end_linecap_type="round"
       offset_points="63.527056,2.8231939"
       linejoin_type="spiro"
       miter_limit="4"
       not_jump="true"
       sort_points="true" />
    <inkscape:path-effect
       effect="simplify"
       id="path-effect103"
       is_visible="true"
       lpeversion="1.3"
       threshold="0.012"
       steps="1"
       smooth_angles="0"
       helper_size="0"
       simplify_individual_paths="false"
       simplify_just_coalesce="false"
       step="1" />
    <inkscape:path-effect
       effect="powerstroke"
       message=""
       id="path-effect102"
       is_visible="true"
       lpeversion="1.3"
       scale_width="1"
       interpolator_type="CentripetalCatmullRom"
       interpolator_beta="0.75"
       start_linecap_type="round"
       end_linecap_type="round"
       offset_points="26.347798,2.8231939"
       linejoin_type="spiro"
       miter_limit="4"
       not_jump="true"
       sort_points="true" />
    <inkscape:path-effect
       effect="simplify"
       id="path-effect101"
       is_visible="true"
       lpeversion="1.3"
       threshold="0.012"
       steps="1"
       smooth_angles="0"
       helper_size="0"
       simplify_individual_paths="false"
       simplify_just_coalesce="false"
       step="1" />
    <inkscape:path-effect
       effect="bspline"
       id="path-effect100"
       is_visible="true"
       lpeversion="1.3"
       weight="33.333333"
       steps="2"
       helper_size="0"
       apply_no_weight="true"
       apply_with_weight="true"
       only_selected="false"
       uniform="false" />
    <inkscape:path-effect
       effect="spiro"
       id="path-effect99"
       is_visible="true"
       lpeversion="1" />
    <inkscape:path-effect
       effect="spiro"
       id="path-effect98"
       is_visible="true"
       lpeversion="1" />
    <pattern
       inkscape:collect="always"
       xlink:href="#TableCloth"
       preserveAspectRatio="xMidYMid"
       id="pattern98"
       patternTransform="rotate(15)"
       x="0"
       y="0" />
    <pattern
       patternUnits="userSpaceOnUse"
       preserveAspectRatio="xMidYMid"
       width="50"
       height="50"
       id="TableCloth"
       inkscape:stockid="Table Cloth"
       style="fill:none"
       inkscape:collect="always"
       inkscape:isstock="true"
       inkscape:label="桌布">
      <g
         id="g152475">
        <rect
           style="fill:none;fill-opacity:1;stroke:none;stroke-width:1;stroke-dasharray:none"
           id="rect152346"
           width="50"
           height="50"
           x="0"
           y="0" />
        <path
           id="path152348"
           style="fill:#afecda;fill-opacity:1;stroke:none;stroke-width:0.999995;stroke-dasharray:none"
           d="m 0.5,25.5 v 22 l 2,2 h 22 v -19 l -5,-5 z" />
        <path
           id="path152350"
           style="fill:#a8cbfe;fill-opacity:1;stroke:none;stroke-width:0.999995;stroke-dasharray:none"
           d="m 30.5,25.5 -5,5 v 19 h 22 l 2,-2 v -22 z" />
        <path
           id="path152352"
           style="fill:#cbbbe9;fill-opacity:1;stroke:none;stroke-width:0.999995;stroke-dasharray:none"
           d="m 25.5,0.5 v 19 l 5,5 h 19 v -22 l -2,-2 z" />
        <path
           id="path152354"
           style="fill:#f0b6d3;fill-opacity:1;stroke:none;stroke-width:0.999995;stroke-dasharray:none"
           d="m 2.5,0.5 -2,2 v 22 h 19 l 5,-5 v -19 z" />
        <path
           id="path152356"
           style="fill:#ffe9a6;stroke-width:1"
           d="m 17.5,37.5 c 0,2.761423 -2.238577,5 -5,5 -2.7614235,0 -5,-2.238577 -5,-5 0,-2.761424 2.2385765,-5 5,-5 2.761423,0 5,2.238576 5,5 z m 2.5,0 C 20,33.345004 16.654996,30 12.5,30 h -12 v 15 h 12 c 4.154996,0 7.5,-3.345004 7.5,-7.5 z"
           sodipodi:nodetypes="sssssssccss" />
        <path
           id="path152358"
           style="fill:#ea95bf;stroke-width:1"
           d="m 42.5,37.5 c 0,2.761423 -2.238577,5 -5,5 -2.761424,0 -5,-2.238577 -5,-5 0,-2.761424 2.238576,-5 5,-5 2.761423,0 5,2.238576 5,5 z M 37.5,30 C 33.345004,30 30,33.345004 30,37.5 v 12 h 15 v -12 C 45,33.345004 41.654996,30 37.5,30 Z"
           sodipodi:nodetypes="sssssssccss" />
        <path
           id="path152360"
           style="fill:#81b4fe;stroke-width:1"
           d="m 12.5,7.5 c 2.77,0 5,2.23 5,5 0,2.77 -2.23,5 -5,5 -2.77,0 -5,-2.23 -5,-5 0,-2.77 2.23,-5 5,-5 z m 0,12.5 C 16.654996,20 20,16.654996 20,12.5 V 0.5 H 5 v 12 c 0,4.154996 3.345004,7.5 7.5,7.5 z"
           sodipodi:nodetypes="sssssssccss" />
        <path
           id="path152362"
           style="fill:#8be3c9;stroke-width:1"
           d="m 42.5,12.5 c 0,2.761423 -2.238577,5 -5,5 -2.761424,0 -5,-2.238577 -5,-5 0,-2.7614235 2.238576,-5 5,-5 2.761423,0 5,2.2385765 5,5 z m -12.5,0 c 0,4.154996 3.345004,7.5 7.5,7.5 h 12 V 5 h -12 C 33.345004,5 30,8.345004 30,12.5 Z"
           sodipodi:nodetypes="sssssssccss" />
        <path
           style="fill:#81b4fe;fill-opacity:1;stroke:none;stroke-width:1;stroke-dasharray:none"
           d="m 25.5,30.5 h 5 v -5 z"
           id="path152364"
           sodipodi:nodetypes="cccc" />
        <path
           style="fill:#67dab8;fill-opacity:1;stroke:none;stroke-width:1;stroke-dasharray:none"
           d="m 24.5,30.5 h -5 v -5 z"
           id="path152366"
           sodipodi:nodetypes="cccc" />
        <path
           style="fill:#ea95bf;fill-opacity:1;stroke:none;stroke-width:1;stroke-dasharray:none"
           d="m 24.5,19.5 h -5 v 5 z"
           id="path152368"
           sodipodi:nodetypes="cccc" />
        <path
           style="fill:#b49ddf;fill-opacity:1;stroke:none;stroke-width:1;stroke-dasharray:none"
           d="m 25.5,19.5 h 5 v 5 z"
           id="path152370"
           sodipodi:nodetypes="cccc" />
        <path
           style="fill:#81b4fe;fill-opacity:1;stroke:none;stroke-width:1;stroke-dasharray:none"
           d="m 49.5,47.5 h -2 v 2 z"
           id="path153287"
           sodipodi:nodetypes="cccc" />
        <path
           style="fill:#67dab8;fill-opacity:1;stroke:none;stroke-width:1;stroke-dasharray:none"
           d="m 0.5,47.5 h 2 v 2 z"
           id="path154015"
           sodipodi:nodetypes="cccc" />
        <path
           style="fill:#ea95bf;fill-opacity:1;stroke:none;stroke-width:1;stroke-dasharray:none"
           d="m 0.5,2.5 h 2 v -2 z"
           id="path154155"
           sodipodi:nodetypes="cccc" />
        <path
           style="fill:#b49ddf;fill-opacity:1;stroke:none;stroke-width:1;stroke-dasharray:none"
           d="m 49.5,2.5 h -2 v -2 z"
           id="path154226"
           sodipodi:nodetypes="cccc" />
      </g>
    </pattern>
    <clipPath
       clipPathUnits="userSpaceOnUse"
       id="clipPath27">
      <rect
         style="fill:none;stroke:#000000;stroke-width:0.999999;stroke-linecap:butt;stroke-linejoin:bevel;paint-order:stroke markers fill;stop-color:#000000"
         id="rect28-6"
         width="46.160622"
         height="39.922417"
         x="86.574379"
         y="420.06253" />
    </clipPath>
    <clipPath
       clipPathUnits="userSpaceOnUse"
       id="clipPath33">
      <rect
         style="fill:#000000;stroke:none;stroke-width:0.999995;stroke-linecap:butt;stroke-linejoin:bevel;paint-order:stroke markers fill;stop-color:#000000"
         id="rect33"
         width="46.19186"
         height="80.006783"
         x="74.999985"
         y="399.99661" />
    </clipPath>
    <clipPath
       clipPathUnits="userSpaceOnUse"
       id="clipPath51">
      <path
         id="path51"
         style="stroke-width:0.0999999;stroke-linecap:square;paint-order:markers fill stroke;stop-color:#000000"
         d="m 1806.4991,-753.5228 h 1637.2646 v 66.90533 H 1806.4991 Z" />
    </clipPath>
    <inkscape:path-effect
       effect="spiro"
       id="path-effect62"
       is_visible="true"
       lpeversion="1" />
    <inkscape:path-effect
       effect="spiro"
       id="path-effect61"
       is_visible="true"
       lpeversion="1" />
    <inkscape:path-effect
       effect="spiro"
       id="path-effect60"
       is_visible="true"
       lpeversion="1" />
    <inkscape:path-effect
       effect="spiro"
       id="path-effect59"
       is_visible="true"
       lpeversion="1" />
    <inkscape:path-effect
       effect="spiro"
       id="path-effect58"
       is_visible="true"
       lpeversion="1" />
    <inkscape:path-effect
       effect="spiro"
       id="path-effect57"
       is_visible="true"
       lpeversion="1" />
    <linearGradient
       id="swatch16"
       inkscape:swatch="solid">
      <stop
         style="stop-color:#000000;stop-opacity:1;"
         offset="0"
         id="stop17" />
    </linearGradient>
    <linearGradient
       inkscape:collect="always"
       xlink:href="#swatch16"
       id="linearGradient17"
       x1="38.563679"
       y1="150.52632"
       x2="170.92535"
       y2="150.52632"
       gradientUnits="userSpaceOnUse"
       gradientTransform="translate(-38.598679,-84.380486)" />
  </defs>
  <g
     inkscape:groupmode="layer"
     id="layer2"
     inkscape:label="底层"
     style="display:inline">
    <rect
       style="fill:#ffffff;fill-opacity:1;stroke:url(#linearGradient17);stroke-width:0;stroke-linecap:round;stroke-linejoin:bevel;stroke-dasharray:none;paint-order:stroke fill markers"
       id="rect1"
       width="132.29167"
       height="132.29167"
       x="-7.1054274e-15"
       y="-1.4210855e-14"
       rx="10" />
  </g>
  <g
     inkscape:groupmode="layer"
     id="layer3"
     inkscape:label="中层">
    <g
       id="g63"
       inkscape:label="钥匙"
       transform="translate(-36.904762,-89.650448)"
       style="fill:url(#pattern98)">
      <path
         style="fill:url(#pattern98);stroke-width:0;stroke-linecap:round;stroke-linejoin:bevel;stroke-dasharray:none;paint-order:fill markers stroke"
         d="m 78.48479,149.81749 c -0.121612,-0.069 -0.262568,-0.10356 -0.402319,-0.0985 -0.139751,0.005 -0.27787,0.0496 -0.394225,0.12712 -0.116355,0.0776 -0.210589,0.18793 -0.268966,0.315 -0.05838,0.12708 -0.08072,0.27047 -0.06377,0.40928 0.0038,0.0315 0.0097,0.0628 0.01161,0.0945 0.0019,0.0317 -1.42e-4,0.0642 -0.01161,0.0937 -0.01316,0.0339 -0.0382,0.0625 -0.0678,0.0837 -0.0296,0.0212 -0.06366,0.0354 -0.09847,0.0461 -0.06961,0.0213 -0.143552,0.0291 -0.210154,0.0585 -0.06187,0.0273 -0.11462,0.0723 -0.159225,0.12315 -0.04461,0.0508 -0.08171,0.1077 -0.119101,0.16406 -0.03739,0.0564 -0.07544,0.11269 -0.12163,0.1621 -0.04619,0.0494 -0.101212,0.092 -0.164684,0.11533 -0.08903,0.0328 -0.187348,0.0256 -0.281446,0.0135 -0.0941,-0.0121 -0.18954,-0.0287 -0.28319,-0.0135 -0.113085,0.0183 -0.21395,0.0817 -0.302759,0.15405 -0.08881,0.0724 -0.16916,0.15509 -0.261881,0.22237 -0.172801,0.12539 -0.382376,0.19219 -0.593474,0.22414 -0.211098,0.0319 -0.425595,0.0309 -0.639093,0.0321 -0.213499,0.001 -0.428355,0.005 -0.637844,0.0461 -0.209489,0.0412 -0.415236,0.12219 -0.576357,0.26227 -0.06698,0.0582 -0.125233,0.12568 -0.188212,0.18821 -0.374953,0.3723 -0.904326,0.55511 -1.429674,0.61176 -0.525348,0.0567 -1.055335,-0.001 -1.581734,-0.0471 -2.376572,-0.20712 -4.766592,-0.1687 -7.152092,-0.18821 -0.499309,-0.004 -1.002136,-0.0111 -1.491417,-0.11073 -0.48928,-0.0997 -0.969426,-0.29856 -1.331774,-0.64212 -0.128821,-0.12214 -0.241459,-0.26112 -0.376428,-0.37643 -0.29008,-0.24783 -0.663641,-0.371 -1.028155,-0.48367 -0.364515,-0.11267 -0.739529,-0.22509 -1.042186,-0.45739 -0.211394,-0.16225 -0.377053,-0.37537 -0.56464,-0.56464 -0.502628,-0.50715 -1.174834,-0.84325 -1.882129,-0.94107 -1.102839,-0.42241 -2.088832,-1.14547 -2.823194,-2.07034 -0.305256,-0.38445 -0.571247,-0.80646 -0.941065,-1.12928 -0.203652,-0.17777 -0.434648,-0.32157 -0.643392,-0.49334 -0.208744,-0.17176 -0.399771,-0.37968 -0.485884,-0.63593 -0.0318,-0.0946 -0.04851,-0.19355 -0.07262,-0.29043 -0.02411,-0.0969 -0.0566,-0.19367 -0.115593,-0.27421 -0.05267,-0.0719 -0.123959,-0.12753 -0.192984,-0.1839 -0.06903,-0.0564 -0.137957,-0.11589 -0.183441,-0.19253 -0.06677,-0.11251 -0.07585,-0.24873 -0.08611,-0.37915 -0.0051,-0.0652 -0.01101,-0.13062 -0.02563,-0.19438 -0.01462,-0.0638 -0.03833,-0.12618 -0.07647,-0.17932 -0.05225,-0.0728 -0.128238,-0.12417 -0.199699,-0.17822 -0.07146,-0.0541 -0.142315,-0.11548 -0.176726,-0.19821 -0.0244,-0.0587 -0.02851,-0.12397 -0.02417,-0.18737 0.0043,-0.0634 0.01675,-0.12594 0.02417,-0.18905 0.02945,-0.25049 -0.0207,-0.5053 -0.108974,-0.74156 -0.08827,-0.23627 -0.213771,-0.45658 -0.340296,-0.67477 -0.126525,-0.21819 -0.255111,-0.43638 -0.350255,-0.66997 -0.09514,-0.23358 -0.156299,-0.48511 -0.14154,-0.7369 0.0074,-0.12595 0.03334,-0.25474 0,-0.37642 -0.03012,-0.10993 -0.105363,-0.20111 -0.180736,-0.2866 -0.07537,-0.0855 -0.154585,-0.17173 -0.195689,-0.27804 -0.0347,-0.0897 -0.03983,-0.18864 -0.03023,-0.28438 0.0096,-0.0957 0.03336,-0.18937 0.055,-0.28312 0.02164,-0.0937 0.04129,-0.18871 0.04242,-0.28492 0.0011,-0.0962 -0.01729,-0.1946 -0.06719,-0.27686 -0.04624,-0.0762 -0.116455,-0.1344 -0.185952,-0.19024 -0.0695,-0.0558 -0.140809,-0.11214 -0.190474,-0.18618 -0.04475,-0.0667 -0.06987,-0.14535 -0.07998,-0.22505 -0.01012,-0.0797 -0.0057,-0.16065 0.005,-0.24027 0.02149,-0.15922 0.06817,-0.31522 0.07494,-0.47575 0.0085,-0.20036 -0.04588,-0.39872 -0.121486,-0.58446 -0.0756,-0.18574 -0.17253,-0.362 -0.254939,-0.54482 -0.302556,-0.67121 -0.403344,-1.42108 -0.374238,-2.15676 0.02911,-0.73567 0.183915,-1.4609 0.374238,-2.17213 0.165825,-0.61968 0.360442,-1.24085 0.376425,-1.88213 0.01096,-0.43959 -0.06252,-0.88223 0,-1.31749 0.0711,-0.49495 0.312548,-0.9461 0.531445,-1.39568 0.218897,-0.44957 0.422825,-0.92766 0.40962,-1.42752 -0.0042,-0.15798 -0.03014,-0.31454 -0.04205,-0.47213 -0.01191,-0.15759 -0.0092,-0.31943 0.04205,-0.46893 0.0512,-0.14933 0.148121,-0.27856 0.252575,-0.39692 0.104455,-0.11836 0.218207,-0.229 0.312062,-0.35593 0.232984,-0.31509 0.328913,-0.71011 0.383998,-1.09809 0.05508,-0.38798 0.07523,-0.78304 0.180641,-1.16047 0.160029,-0.57301 0.507351,-1.07382 0.870103,-1.54538 0.362752,-0.47156 0.750404,-0.9317 1.012026,-1.46603 0.12353,-0.25229 0.218598,-0.52047 0.376426,-0.75285 0.177764,-0.26174 0.427825,-0.4666 0.692231,-0.64037 0.264406,-0.17377 0.545965,-0.31994 0.813473,-0.4889 0.415481,-0.26241 0.796246,-0.57972 1.129278,-0.94107 0.196052,-0.40741 0.533657,-0.74501 0.941065,-0.94106 0.357906,-0.17223 0.758147,-0.23493 1.129276,-0.37643 0.384574,-0.14663 0.731394,-0.37517 1.093282,-0.57122 0.361887,-0.19605 0.753745,-0.36342 1.165273,-0.36984 0.125523,-0.002 0.251385,0.0112 0.376428,0 0.211932,-0.0189 0.412177,-0.10674 0.595388,-0.21493 0.183211,-0.1082 0.353169,-0.2374 0.533888,-0.34971 0.526905,-0.32744 1.133718,-0.50414 1.742331,-0.62429 0.608612,-0.12015 1.226973,-0.18751 1.833714,-0.31678 1.051751,-0.22408 2.057783,-0.63229 3.011408,-1.12927 0.08894,-0.0463 0.17774,-0.0936 0.271407,-0.12946 0.09367,-0.0358 0.192948,-0.0602 0.293232,-0.0588 0.09584,0.001 0.18966,0.0261 0.284764,0.038 0.04755,0.006 0.09574,0.009 0.143411,0.004 0.04767,-0.005 0.09493,-0.0179 0.136465,-0.0418 0.04979,-0.0287 0.08979,-0.0722 0.121165,-0.12032 0.03138,-0.0481 0.05467,-0.101 0.07684,-0.154 0.02216,-0.053 0.04341,-0.10657 0.07112,-0.1569 0.02771,-0.0503 0.06231,-0.0977 0.107303,-0.13342 0.06315,-0.0502 0.143855,-0.0747 0.224293,-0.0805 0.08044,-0.006 0.161135,0.006 0.240008,0.0231 0.07887,0.0168 0.156738,0.0384 0.236181,0.0523 0.07944,0.0139 0.161287,0.0198 0.240583,0.005 0.09275,-0.0172 0.179977,-0.063 0.246675,-0.12975 0.0667,-0.0667 0.11258,-0.15392 0.12975,-0.24667 l 0.941065,-0.18822 c 0.457147,0.43351 1.065804,0.70402 1.693916,0.75286 0.312863,0.0243 0.627291,-0.005 0.941065,0 0.582518,0.008 1.164182,0.13397 1.693916,0.37642 0.382871,0.17523 0.737587,0.41013 1.129278,0.56464 0.454975,0.17948 0.945196,0.24499 1.427457,0.32647 0.48226,0.0815 0.971086,0.18372 1.395737,0.42638 0.184708,0.10555 0.35405,0.23596 0.535881,0.3464 0.181831,0.11043 0.381272,0.20208 0.593396,0.21824 0.1257,0.01 0.251657,-0.008 0.377243,-0.0186 0.125585,-0.011 0.254243,-0.0155 0.375609,0.0186 0.178055,0.05 0.32227,0.17715 0.463477,0.2966 0.0706,0.0597 0.142361,0.11862 0.221122,0.16708 0.07876,0.0484 0.165142,0.0864 0.256466,0.10096 0.09326,0.0149 0.188453,0.005 0.282491,-0.004 0.09404,-0.009 0.189796,-0.016 0.282148,0.004 0.09174,0.0196 0.177523,0.0662 0.243854,0.13257 0.06633,0.0663 0.112969,0.15212 0.132571,0.24386 0.224884,0.17044 0.481568,0.29878 0.752852,0.37642 0.307696,0.0881 0.630532,0.11076 0.941065,0.18822 0.584047,0.14569 1.108172,0.48287 1.540907,0.90129 0.432734,0.41842 0.780146,0.91685 1.094578,1.43014 0.628863,1.02658 1.158249,2.15218 2.069838,2.93853 0.237624,0.20498 0.497093,0.38279 0.752852,0.56464 1.134656,0.80675 2.242282,1.74616 2.823194,3.0114 0.05859,0.12762 0.111839,0.25858 0.188213,0.37643 0.158304,0.24427 0.404532,0.41584 0.647343,0.57637 0.242812,0.16053 0.493895,0.32126 0.670147,0.55291 0.242891,0.31924 0.314584,0.73293 0.376426,1.12927 0.234124,1.50048 0.429015,3.06033 0,4.51711 -0.224492,0.76229 -0.615297,1.4759 -0.752852,2.25856 -0.111533,0.63461 -0.05121,1.28506 -0.06529,1.92924 -0.007,0.32209 -0.03303,0.64524 -0.107756,0.95862 -0.07472,0.31339 -0.199594,0.6177 -0.391593,0.8764 -0.0678,0.0914 -0.143546,0.17655 -0.211905,0.26749 -0.06836,0.0909 -0.12985,0.1888 -0.16452,0.29715 -0.04951,0.15473 -0.04169,0.32091 -0.04912,0.4832 -0.0037,0.0812 -0.01145,0.16254 -0.03212,0.2411 -0.02067,0.0786 -0.05477,0.15452 -0.106971,0.21676 -0.07314,0.0872 -0.176648,0.14236 -0.278385,0.19339 -0.101737,0.051 -0.206655,0.10168 -0.286254,0.18304 -0.09289,0.0949 -0.14337,0.22465 -0.166354,0.35547 -0.02298,0.13083 -0.02072,0.26456 -0.02186,0.39738 -0.0061,0.71305 -0.115876,1.43524 -0.417875,2.0812 -0.301999,0.64597 -0.809748,1.21183 -1.464254,1.49484 -0.129556,0.056 -0.263756,0.10076 -0.393391,0.15659 -0.129634,0.0558 -0.256025,0.1238 -0.359461,0.21984 -0.177022,0.16437 -0.273101,0.39738 -0.342228,0.62884 -0.06913,0.23146 -0.117353,0.47113 -0.222411,0.68865 -0.194732,0.40319 -0.56341,0.69021 -0.923846,0.95586 -0.360436,0.26565 -0.736532,0.53728 -0.958283,0.92627 -0.09161,0.1607 -0.153576,0.33633 -0.233299,0.50326 -0.07972,0.16692 -0.181298,0.3296 -0.33134,0.4378 -0.114003,0.0822 -0.249298,0.12828 -0.376426,0.18822 -0.30319,0.14296 -0.561357,0.36602 -0.798224,0.6032 -0.236867,0.23719 -0.456992,0.49154 -0.707479,0.71429 -0.575075,0.5114 -1.306911,0.84405 -2.070342,0.94106 -0.05119,0.13082 -0.114271,0.25699 -0.188213,0.37643 -0.32028,0.51738 -0.851575,0.89972 -1.443889,1.03909 -0.592315,0.13937 -1.238355,0.034 -1.755732,-0.28624 z"
         id="path60"
         inkscape:path-effect="#path-effect61"
         inkscape:original-d="m 78.48479,149.81749 c 0,0.44276 -0.88651,0.51008 -1.129279,0.75285 -0.04436,0.0444 0.04436,0.14381 0,0.18821 -0.0992,0.0992 -0.264197,0.10402 -0.376425,0.18822 -0.212937,0.1597 -0.306411,0.50004 -0.56464,0.56464 -0.182591,0.0456 -0.386082,-0.0595 -0.564636,0 -0.214596,0.0715 -0.362318,0.27526 -0.56464,0.37642 -0.82868,0.41434 -1.667245,0.36976 -2.446768,0.56464 -0.08608,0.0215 -0.104042,0.16011 -0.188212,0.18821 -0.787132,0.26238 -2.153859,0.45745 -3.011408,0.56464 -1.546606,0.19333 -5.713097,0.0996 -7.152092,-0.18821 -0.872625,-0.17453 -2.071169,-0.25151 -2.823191,-0.75285 -0.147648,-0.0984 -0.224267,-0.28513 -0.376428,-0.37643 -0.630145,-0.37809 -1.453023,-0.50012 -2.070341,-0.94106 -0.216596,-0.15471 -0.338926,-0.42357 -0.56464,-0.56464 -0.594809,-0.37176 -1.394049,-0.35477 -1.882129,-0.94107 -0.943496,-0.62899 -2.022144,-1.26929 -2.823194,-2.07034 -0.34648,-0.34648 -0.594585,-0.7828 -0.941065,-1.12928 -0.376425,-0.37642 -0.855387,-0.67279 -1.129276,-1.12927 -0.102074,-0.17013 -0.08614,-0.39452 -0.188214,-0.56464 -0.0913,-0.15216 -0.297065,-0.21772 -0.376425,-0.37643 -0.115684,-0.23136 -0.07253,-0.52149 -0.188214,-0.75285 -0.07936,-0.15872 -0.297065,-0.21771 -0.376425,-0.37643 -0.05611,-0.11223 0.03043,-0.25469 0,-0.37642 -0.234749,-0.939 -0.703811,-1.87418 -0.941065,-2.8232 -0.03043,-0.12173 0.0466,-0.25992 0,-0.37642 -0.08401,-0.21003 -0.292415,-0.35462 -0.376425,-0.56464 -0.139801,-0.3495 0.119036,-0.77217 0,-1.12928 -0.05612,-0.16834 -0.327676,-0.2058 -0.376426,-0.37642 -0.08618,-0.30162 0.03891,-0.6298 0,-0.94107 -0.04922,-0.39372 -0.311195,-0.73789 -0.376425,-1.12928 -0.155932,-0.93558 -0.103656,-3.396 0,-4.32889 0.07065,-0.63589 0.297065,-1.24727 0.376425,-1.88213 0.05405,-0.43241 -0.05405,-0.88509 0,-1.31749 0.128429,-1.02743 0.696291,-1.8441 0.941065,-2.8232 0.07608,-0.30432 -0.0992,-0.64347 0,-0.94106 0.09919,-0.29759 0.424352,-0.47228 0.564637,-0.75285 0.338153,-0.67631 0.266409,-1.56269 0.564639,-2.25856 0.463701,-1.08197 1.242705,-2.05227 1.882129,-3.01141 0.155634,-0.23345 0.196811,-0.53731 0.376426,-0.75285 0.366966,-0.44036 1.098806,-0.72238 1.505704,-1.12927 1.064118,-1.06412 -0.485833,-0.13351 1.129278,-0.94107 1.129276,-0.94106 -0.439163,-0.25095 0.941065,-0.94106 0.354896,-0.17745 0.77438,-0.19898 1.129276,-0.37643 0.730216,-0.36511 1.431171,-0.77559 2.258555,-0.94106 0.123039,-0.0246 0.257389,0.0397 0.376428,0 0.399259,-0.13309 0.730017,-0.43156 1.129276,-0.56464 1.172512,-0.39084 2.391952,-0.62531 3.576045,-0.94107 1.096089,-0.29229 1.96764,-0.78135 3.011408,-1.12927 0.188214,-0.0627 0.368943,-0.15562 0.564639,-0.18822 0.18565,-0.0309 0.403246,0.0968 0.56464,0 0.193966,-0.11638 0.16851,-0.47554 0.376425,-0.56464 0.288324,-0.12357 0.639445,0.0862 0.941065,0 0.170619,-0.0487 0.250949,-0.25095 0.376425,-0.37642 0.313687,-0.0627 0.627377,-0.12552 0.941065,-0.18822 0.564639,0.25095 1.099796,0.58311 1.693916,0.75286 0.301619,0.0862 0.629295,-0.0346 0.941065,0 0.449071,0.0499 1.262483,0.23261 1.693916,0.37642 0.35975,0.11992 0.710235,0.44492 1.129278,0.56464 0.935135,0.26718 1.916844,0.39031 2.823194,0.75285 0.350071,0.14003 0.759269,0.50297 1.129277,0.56464 0.247537,0.0413 0.511557,-0.0689 0.752852,0 0.443431,0.1267 0.509876,0.4784 0.941065,0.56464 0.184558,0.0369 0.389887,-0.0699 0.564639,0 0.164757,0.0659 0.25095,0.25095 0.376425,0.37643 0.250951,0.12547 0.486679,0.2877 0.752852,0.37642 0.303484,0.10116 0.660226,0.035 0.941065,0.18822 2.081509,1.13536 3.103069,3.6677 4.705323,5.26996 0.221811,0.22181 0.531041,0.34283 0.752852,0.56464 0.108128,0.10812 2.483294,2.50155 2.823194,3.0114 0.07782,0.11673 0.08902,0.27723 0.188213,0.37643 0.367079,0.36708 1.059972,0.61424 1.31749,1.12928 0.177449,0.35489 0.298609,0.74019 0.376426,1.12927 0.114579,0.5729 0.121992,4.02915 0,4.51711 -0.184194,0.73678 -0.630039,1.39887 -0.752852,2.25856 -0.183116,1.28181 -0.259632,2.54423 -0.564639,3.76426 -0.05486,0.21945 -0.321563,0.34519 -0.376425,0.56464 -0.113161,0.45264 0.168516,0.58433 -0.188213,0.94106 -0.159951,0.15995 -0.439164,0.18821 -0.564639,0.37643 -0.143487,0.21523 -0.09739,0.51065 -0.188213,0.75285 -0.190894,0.50905 -1.732797,3.38938 -1.882129,3.57604 -0.175272,0.21909 -0.554458,0.17804 -0.752852,0.37643 -0.550722,0.55072 -0.227193,0.75508 -0.564639,1.31749 -0.439195,0.73199 -1.349554,1.21641 -1.882129,1.88213 -0.228526,0.28566 -0.305965,0.68239 -0.564639,0.94106 -0.0992,0.0992 -0.264197,0.10405 -0.376426,0.18822 -0.545568,0.40917 -0.871132,1.0002 -1.505703,1.31749 -0.662065,0.33103 -1.444158,0.52361 -2.070342,0.94106 -0.372861,-0.0188 -0.08902,0.27723 -0.188213,0.37643 -0.03859,0.0386 -2.930483,0.7144 -3.199621,0.75285 z" />
      <path
         style="fill:url(#pattern98);stroke-width:0;stroke-linecap:round;stroke-linejoin:bevel;stroke-dasharray:none;paint-order:fill markers stroke"
         d="m 92.036121,135.13688 c 0.796702,0.3076 1.614953,0.55937 2.446769,0.75285 0.504116,0.11726 1.014448,0.21348 1.505701,0.37643 1.020144,0.33839 1.949817,0.96128 3.011408,1.12928 0.273954,0.0434 0.553544,0.0556 0.822056,0.12513 0.134255,0.0348 0.265535,0.084 0.384135,0.1559 0.1186,0.0719 0.22441,0.16701 0.29951,0.2836 0.076,0.11803 0.11879,0.2544 0.18821,0.37643 0.13515,0.23759 0.36349,0.40777 0.60081,0.5434 0.23731,0.13564 0.49042,0.24429 0.71668,0.39766 0.48209,0.3268 0.80856,0.83133 1.12928,1.31749 0.73896,1.12013 1.53878,2.2374 2.63498,3.01141 0.32946,0.23263 0.6893,0.43777 0.94107,0.75285 0.22865,0.28615 0.35143,0.64323 0.56464,0.94107 0.20152,0.28151 0.47786,0.50147 0.76923,0.68845 0.29137,0.18698 0.60066,0.34443 0.89572,0.52553 0.29506,0.18109 0.57909,0.38896 0.79718,0.65784 0.21808,0.26888 0.36671,0.60521 0.36106,0.95137 -0.002,0.10771 -0.0181,0.21642 7.5e-4,0.32247 0.009,0.053 0.028,0.10506 0.0594,0.14884 0.0314,0.0438 0.0762,0.0789 0.12811,0.0933 0.0612,0.017 0.1261,0.005 0.1887,-0.006 0.0313,-0.005 0.0628,-0.01 0.0946,-0.0103 0.0317,-3.2e-4 0.0639,0.004 0.0932,0.0162 0.048,0.02 0.0854,0.0606 0.10911,0.10684 0.0237,0.0463 0.0346,0.0981 0.04,0.14977 0.0109,0.10336 0.001,0.21115 0.0391,0.30803 0.0265,0.0681 0.0751,0.12633 0.13318,0.17072 0.0581,0.0444 0.12533,0.0756 0.19464,0.0988 0.13863,0.0464 0.28607,0.0616 0.42504,0.10695 0.17103,0.0558 0.32519,0.15617 0.45896,0.27646 0.13378,0.12029 0.24826,0.26042 0.35574,0.40469 0.21497,0.28853 0.40897,0.60111 0.691,0.82455 0.21404,0.16957 0.46815,0.27902 0.70769,0.41011 0.23955,0.1311 0.47461,0.29369 0.6098,0.53095 0.0695,0.12201 0.1101,0.25973 0.18821,0.37643 0.11267,0.16833 0.29239,0.27765 0.46713,0.3801 0.17473,0.10246 0.35573,0.20826 0.47394,0.37275 0.0667,0.0928 0.11004,0.20002 0.16255,0.3016 0.0525,0.10157 0.11764,0.20128 0.21387,0.26304 0.10122,0.065 0.22534,0.0809 0.3377,0.12382 0.0562,0.0214 0.11054,0.0504 0.15313,0.0928 0.0426,0.0425 0.0726,0.0997 0.0738,0.15977 6.3e-4,0.0318 -0.007,0.0632 -0.0104,0.0947 -0.004,0.0316 -0.004,0.065 0.0104,0.0935 0.008,0.0168 0.0213,0.031 0.0364,0.0421 0.0151,0.0111 0.0324,0.0189 0.0503,0.0245 0.0358,0.011 0.0737,0.0126 0.111,0.0155 0.0373,0.003 0.0754,0.007 0.10921,0.0234 0.0169,0.008 0.0326,0.019 0.045,0.033 0.0124,0.014 0.0214,0.0313 0.0246,0.0497 0.003,0.016 0.001,0.0325 -0.002,0.0484 -0.003,0.0159 -0.008,0.0315 -0.0116,0.0473 -0.004,0.0158 -0.006,0.0321 -0.005,0.0483 0.001,0.0162 0.007,0.0323 0.0183,0.0442 0.0112,0.0119 0.0271,0.0187 0.0433,0.021 0.0162,0.002 0.0328,3.8e-4 0.0487,-0.003 0.032,-0.007 0.0635,-0.0199 0.0961,-0.018 0.0188,0.001 0.0371,0.007 0.0533,0.0168 0.0162,0.01 0.0302,0.0227 0.0417,0.0376 0.023,0.0298 0.0357,0.0663 0.0433,0.10318 0.008,0.0368 0.0107,0.0745 0.0166,0.11163 0.006,0.0372 0.0149,0.0744 0.0333,0.10722 0.0252,0.0448 0.0669,0.0787 0.11327,0.10081 0.0463,0.0221 0.0972,0.0332 0.14812,0.0398 0.10184,0.0132 0.20788,0.01 0.30325,0.0476 0.0834,0.0333 0.15176,0.0962 0.20984,0.1647 0.0581,0.0685 0.10783,0.14379 0.16659,0.21173 0.20464,0.23662 0.50411,0.36875 0.80266,0.46222 0.29855,0.0935 0.60857,0.15663 0.89125,0.29063 0.30785,0.14593 0.57065,0.36982 0.83471,0.58508 0.26406,0.21526 0.53907,0.42768 0.85921,0.5442 0.18759,0.0683 0.38569,0.1017 0.57971,0.14867 0.19403,0.047 0.38861,0.10967 0.54957,0.22775 0.21505,0.15776 0.35342,0.40179 0.56464,0.56464 0.15842,0.12215 0.35059,0.19279 0.54431,0.24271 0.19371,0.0499 0.39201,0.0809 0.58496,0.13372 0.56846,0.1556 1.07001,0.495 1.5183,0.87761 0.44829,0.38262 0.85421,0.81294 1.3049,1.19273 1.27058,1.07071 2.88867,1.73504 3.95247,3.01141 0.23004,0.27601 0.42991,0.57632 0.66393,0.84896 0.23402,0.27264 0.50898,0.52127 0.84177,0.65674 0.13178,0.0537 0.27048,0.0887 0.40287,0.14082 0.13238,0.0521 0.26148,0.1242 0.34998,0.23561 0.0875,0.11018 0.12823,0.24913 0.18822,0.37642 0.10487,0.22252 0.26983,0.41078 0.44136,0.5871 0.17153,0.17632 0.35268,0.34496 0.4997,0.54218 0.13564,0.18196 0.23975,0.38494 0.35206,0.58215 0.11231,0.19721 0.23528,0.39185 0.40079,0.54713 0.16541,0.15517 0.36697,0.26523 0.56464,0.37643 2.69785,1.51771 5.12186,3.5944 6.77567,6.21102 0.45764,0.72407 0.86638,1.50027 1.5057,2.07034 0.55737,0.49699 1.25472,0.80458 1.9465,1.08583 0.69177,0.28125 1.39947,0.54884 2.00597,0.98451 0.46999,0.33761 0.86612,0.76715 1.31749,1.12928 0.91296,0.73247 2.05154,1.19026 2.8232,2.07034 0.23539,0.26847 0.44078,0.57937 0.75285,0.75286 0.12331,0.0685 0.25842,0.1125 0.38955,0.16457 0.13112,0.0521 0.26142,0.11425 0.3633,0.21185 0.11441,0.10961 0.18494,0.25576 0.26146,0.3945 0.0765,0.13874 0.16645,0.2783 0.30318,0.35835 0.0609,0.0356 0.12842,0.0578 0.19408,0.0836 0.0657,0.0258 0.13114,0.0561 0.18234,0.10463 0.0514,0.0487 0.0854,0.11282 0.11207,0.17834 0.0267,0.0655 0.047,0.1336 0.0761,0.19808 0.092,0.20383 0.26517,0.35857 0.44132,0.49637 0.17615,0.1378 0.36294,0.26778 0.49974,0.4447 0.17206,0.22252 0.25124,0.50096 0.37643,0.75285 0.27711,0.55756 0.77728,0.97583 1.3175,1.28539 0.54022,0.30956 1.12817,0.52493 1.6939,0.78495 0.28092,0.12912 0.56164,0.2729 0.78191,0.48984 0.11014,0.10847 0.20394,0.23478 0.26684,0.37599 0.0629,0.14121 0.0942,0.29768 0.0805,0.45166 -0.006,0.0633 -0.0187,0.12583 -0.0238,0.1892 -0.005,0.0634 -0.002,0.12907 0.0238,0.18723 0.0181,0.0411 0.0468,0.0768 0.0793,0.1077 0.0326,0.0309 0.0691,0.0572 0.1057,0.0832 0.0732,0.0519 0.15009,0.10583 0.19142,0.18551 0.022,0.0424 0.0326,0.09 0.0355,0.13764 0.003,0.0476 -0.001,0.0955 -0.008,0.14271 -0.0134,0.0945 -0.036,0.18922 -0.0274,0.28429 0.0117,0.12909 0.0845,0.25132 0.19231,0.32323 0.10786,0.0719 0.24865,0.092 0.37233,0.0532 -0.0734,0.11082 -0.11336,0.2435 -0.11336,0.37642 0,0.13293 0.04,0.26561 0.11336,0.37643 0.0983,0.14835 0.24948,0.25175 0.37642,0.37643 0.2859,0.28081 0.44897,0.68724 0.41852,1.08682 -0.0152,0.19979 -0.0773,0.39614 -0.18184,0.56709 -0.10452,0.17096 -0.25145,0.3161 -0.42489,0.41643 -0.12186,0.0705 -0.2551,0.11849 -0.38534,0.17192 -0.13024,0.0534 -0.25991,0.11373 -0.36751,0.2045 -0.10246,0.0864 -0.18095,0.1971 -0.2652,0.30138 -0.0842,0.10428 -0.17841,0.20562 -0.29944,0.26326 -0.0902,0.0429 -0.19022,0.0592 -0.28789,0.0801 -0.0977,0.0208 -0.19708,0.0479 -0.27675,0.10814 -0.0716,0.0541 -0.12183,0.1308 -0.1759,0.20239 -0.0541,0.0716 -0.11675,0.14197 -0.20053,0.17404 -0.0591,0.0226 -0.1243,0.0243 -0.18743,0.0192 -0.0631,-0.005 -0.12571,-0.0166 -0.18899,-0.0192 -0.11599,-0.005 -0.23234,0.021 -0.33838,0.0683 -0.10604,0.0473 -0.20198,0.11562 -0.286,0.19573 -0.16803,0.16022 -0.28701,0.36439 -0.39349,0.57071 -0.10648,0.20631 -0.20347,0.4189 -0.33707,0.60879 -0.1336,0.18988 -0.30921,0.35868 -0.52719,0.43863 -0.21466,0.0787 -0.45186,0.0657 -0.67403,0.1197 -0.11109,0.027 -0.21999,0.072 -0.30609,0.14721 -0.0431,0.0376 -0.08,0.0825 -0.10632,0.13327 -0.0263,0.0507 -0.0419,0.10731 -0.0428,0.16446 -5e-4,0.0315 0.003,0.0629 0.005,0.0943 0.002,0.0314 0.002,0.0634 -0.005,0.0939 -0.0118,0.0465 -0.042,0.0873 -0.0803,0.11613 -0.0384,0.0288 -0.0846,0.0461 -0.13186,0.0543 -0.0945,0.0164 -0.19115,-0.002 -0.28598,-0.0171 -0.0948,-0.0147 -0.19439,-0.0248 -0.28467,0.008 -0.0451,0.0163 -0.087,0.0434 -0.11661,0.0812 -0.0296,0.0377 -0.0464,0.0864 -0.0416,0.13415 0.003,0.0327 0.0161,0.0637 0.0217,0.0961 0.003,0.0162 0.004,0.0329 6.1e-4,0.049 -0.003,0.0161 -0.0104,0.0318 -0.0223,0.0431 -0.0118,0.0113 -0.0276,0.0178 -0.0437,0.0203 -0.0161,0.002 -0.0326,0.001 -0.0487,-0.002 -0.0321,-0.006 -0.0633,-0.0179 -0.0959,-0.0186 -0.0304,-6.1e-4 -0.0606,0.009 -0.0864,0.0253 -0.0257,0.0163 -0.0471,0.0389 -0.0637,0.0644 -0.0332,0.051 -0.0474,0.11179 -0.0585,0.17164 -0.0111,0.0598 -0.0198,0.12088 -0.0438,0.17678 -0.012,0.0279 -0.0279,0.0544 -0.0487,0.0767 -0.0208,0.0222 -0.0465,0.0402 -0.0754,0.0498 -0.03,0.01 -0.0623,0.0108 -0.0938,0.009 -0.0315,-0.002 -0.0628,-0.007 -0.0944,-0.009 -0.11827,-0.005 -0.23482,0.0414 -0.32947,0.11254 -0.0947,0.0711 -0.16949,0.16538 -0.23517,0.26388 -0.12008,0.18008 -0.21444,0.37942 -0.36215,0.53762 -0.0739,0.0791 -0.16121,0.14722 -0.26119,0.18864 -0.1,0.0414 -0.21327,0.0549 -0.31773,0.0266 -0.0319,-0.009 -0.063,-0.0211 -0.0958,-0.0251 -0.0164,-0.002 -0.0332,-0.002 -0.0493,0.002 -0.0161,0.004 -0.0314,0.0115 -0.0432,0.0231 -0.0118,0.0116 -0.0196,0.0269 -0.0236,0.043 -0.004,0.0161 -0.004,0.0329 -0.002,0.0494 0.004,0.0329 0.0166,0.064 0.0259,0.0958 0.0374,0.12777 0.0188,0.27091 -0.0502,0.38482 -0.0689,0.11391 -0.18708,0.19684 -0.31764,0.22295 -0.13055,0.0261 -0.27152,-0.005 -0.37895,-0.0836 -0.10744,-0.0786 -0.17972,-0.20359 -0.19431,-0.33593 0.008,0.10041 -0.0307,0.20335 -0.10188,0.27455 -0.0712,0.0712 -0.17414,0.1094 -0.27455,0.10188 -0.0724,-0.005 -0.14124,-0.0331 -0.20686,-0.0642 -0.0656,-0.0311 -0.12984,-0.0661 -0.19912,-0.0879 -0.0693,-0.0218 -0.14551,-0.0296 -0.214,-0.005 -0.0342,0.0121 -0.0659,0.0321 -0.0899,0.0594 -0.024,0.0273 -0.0399,0.0619 -0.043,0.0981 -0.003,0.0316 0.004,0.0632 0.009,0.0947 0.004,0.0315 0.005,0.0649 -0.009,0.0935 -0.0115,0.0239 -0.0327,0.0424 -0.0569,0.0529 -0.0243,0.0105 -0.0515,0.0133 -0.0778,0.0106 -0.0526,-0.006 -0.10039,-0.0322 -0.1462,-0.0587 -0.0458,-0.0265 -0.0929,-0.054 -0.14532,-0.0613 -0.0262,-0.004 -0.0534,-0.002 -0.0782,0.007 -0.0248,0.009 -0.047,0.0264 -0.0601,0.0493 -0.0159,0.0278 -0.0174,0.0615 -0.0139,0.0933 0.004,0.0318 0.0117,0.063 0.0139,0.0949 0.003,0.0473 -0.007,0.0953 -0.0272,0.13821 -0.0203,0.0429 -0.0506,0.0808 -0.0866,0.11176 -0.072,0.0619 -0.16503,0.0952 -0.25885,0.10962 -0.18765,0.0289 -0.38087,-0.0123 -0.56848,0.0168 -0.23939,0.0372 -0.44479,0.18399 -0.64749,0.31667 -0.10135,0.0663 -0.20492,0.13041 -0.3166,0.17733 -0.11168,0.0469 -0.2324,0.0763 -0.3534,0.0706 -0.1656,-0.008 -0.32078,-0.08 -0.48314,-0.11351 -0.0812,-0.0168 -0.16555,-0.0237 -0.24691,-0.008 -0.0814,0.0159 -0.15979,0.0562 -0.21101,0.12139 -0.0437,0.0556 -0.0651,0.12492 -0.0879,0.19184 -0.0228,0.0669 -0.0495,0.13542 -0.10027,0.18459 -0.0468,0.0453 -0.11078,0.07 -0.17543,0.0778 -0.0647,0.008 -0.13026,-3.3e-4 -0.19396,-0.0138 -0.12739,-0.027 -0.25379,-0.0759 -0.38347,-0.064 -0.13232,0.0122 -0.24946,0.086 -0.36941,0.14315 -0.06,0.0286 -0.12237,0.0535 -0.1879,0.0645 -0.0655,0.011 -0.13476,0.007 -0.19554,-0.0195 -0.0825,-0.0364 -0.14149,-0.11111 -0.18821,-0.18821 -0.18331,-0.30253 -0.22389,-0.66851 -0.24165,-1.02181 -0.0178,-0.35329 -0.0183,-0.71454 -0.13478,-1.04854 -0.13889,-0.39813 -0.43319,-0.72863 -0.56464,-1.12928 -0.1181,-0.35996 -0.0961,-0.7497 -0.0546,-1.12626 0.0415,-0.37656 0.10127,-0.75633 0.0546,-1.13229 -0.008,-0.0629 -0.0186,-0.12553 -0.022,-0.18882 -0.003,-0.0633 7.4e-4,-0.12791 0.022,-0.18761 0.0247,-0.0693 0.0718,-0.12935 0.12904,-0.17557 0.0572,-0.0462 0.12427,-0.0792 0.19377,-0.10323 0.13902,-0.0481 0.28745,-0.0615 0.43005,-0.0976 0.12288,-0.0311 0.24197,-0.0796 0.34773,-0.14952 0.10576,-0.0699 0.19797,-0.16163 0.26217,-0.27094 0.0642,-0.10931 0.0996,-0.23647 0.0939,-0.36311 -0.006,-0.12664 -0.0536,-0.25216 -0.13918,-0.34571 -0.0772,-0.0845 -0.18208,-0.1406 -0.29222,-0.17168 -0.11013,-0.0311 -0.22577,-0.0383 -0.34017,-0.0354 -0.22881,0.006 -0.45847,0.0508 -0.68511,0.0189 -0.2378,-0.0335 -0.45513,-0.14931 -0.66407,-0.2677 -0.20894,-0.11838 -0.41941,-0.24297 -0.65342,-0.29694 -0.30862,-0.0712 -0.63026,-0.0138 -0.94352,0.0329 -0.31326,0.0467 -0.64296,0.0807 -0.93861,-0.0329 -0.12811,-0.0492 -0.24432,-0.12432 -0.36149,-0.19579 -0.11716,-0.0715 -0.23804,-0.14054 -0.3707,-0.17572 -0.13266,-0.0352 -0.28006,-0.0334 -0.40059,0.0322 -0.0603,0.0328 -0.11249,0.0813 -0.14641,0.14095 -0.0339,0.0596 -0.0489,0.13054 -0.0383,0.19834 0.005,0.0321 0.0156,0.0632 0.0196,0.0954 0.002,0.0161 0.002,0.0325 -5.4e-4,0.0485 -0.003,0.016 -0.009,0.0315 -0.019,0.0443 -0.0103,0.0131 -0.0244,0.0229 -0.0399,0.0291 -0.0155,0.006 -0.0323,0.009 -0.0489,0.008 -0.0333,-3.9e-4 -0.0655,-0.0113 -0.0966,-0.0233 -0.0311,-0.012 -0.062,-0.0253 -0.0949,-0.0307 -0.0164,-0.003 -0.0333,-0.003 -0.0497,-0.001 -0.0165,0.002 -0.0326,0.008 -0.0463,0.0175 -0.02,0.0136 -0.0341,0.0344 -0.0449,0.056 -0.0109,0.0216 -0.0189,0.0445 -0.0298,0.0661 -0.0108,0.0216 -0.0248,0.0424 -0.0447,0.0561 -0.01,0.007 -0.0213,0.0119 -0.0332,0.0138 -0.0119,0.002 -0.0245,8.6e-4 -0.0356,-0.004 -0.0163,-0.007 -0.0288,-0.0214 -0.0353,-0.0379 -0.007,-0.0165 -0.007,-0.0348 -0.005,-0.0523 0.006,-0.035 0.0247,-0.066 0.0399,-0.098 0.0341,-0.0717 0.0491,-0.1514 0.0521,-0.23075 0.003,-0.0793 -0.006,-0.15866 -0.0176,-0.2372 -0.0234,-0.15707 -0.0583,-0.31612 -0.0345,-0.47311 0.0308,-0.20262 0.15678,-0.37874 0.3013,-0.52406 0.14452,-0.14532 0.31061,-0.26821 0.45155,-0.41701 0.2159,-0.22793 0.36628,-0.5095 0.56464,-0.75285 0.0721,-0.0885 0.15053,-0.17183 0.21936,-0.26288 0.0688,-0.0911 0.12851,-0.19125 0.15706,-0.30176 0.0284,-0.10986 0.0247,-0.2273 -0.007,-0.3363 -0.0315,-0.10901 -0.0904,-0.20952 -0.1673,-0.29297 -0.15375,-0.16692 -0.37571,-0.26185 -0.60116,-0.28774 -0.22546,-0.0259 -0.45458,0.0131 -0.67052,0.0829 -0.21593,0.0698 -0.42064,0.16985 -0.62454,0.26948 -0.17353,0.0848 -0.34767,0.16978 -0.53058,0.23182 -0.18291,0.062 -0.37592,0.10083 -0.56878,0.0903 -0.19286,-0.0105 -0.38602,-0.0729 -0.53501,-0.19578 -0.0745,-0.0615 -0.13728,-0.13752 -0.18086,-0.2237 -0.0436,-0.0862 -0.0677,-0.18251 -0.0669,-0.27908 0.001,-0.13885 0.0537,-0.27423 0.13317,-0.38807 0.0795,-0.11384 0.18497,-0.20751 0.29815,-0.28795 0.22634,-0.16089 0.48666,-0.27306 0.69796,-0.45326 0.1349,-0.11504 0.24801,-0.25767 0.31776,-0.42066 0.0697,-0.163 0.0947,-0.34681 0.0587,-0.5204 -0.0518,-0.24937 -0.22851,-0.46374 -0.45093,-0.58784 -0.22241,-0.1241 -0.48616,-0.1629 -0.73962,-0.13779 -0.5069,0.0502 -0.95435,0.33809 -1.38431,0.61124 -0.21498,0.13658 -0.43185,0.27189 -0.66383,0.37701 -0.23199,0.10513 -0.48083,0.17978 -0.73536,0.18884 -0.25453,0.009 -0.51558,-0.0508 -0.72525,-0.19537 -0.10484,-0.0723 -0.19591,-0.16514 -0.2629,-0.27345 -0.067,-0.1083 -0.10956,-0.23211 -0.11954,-0.35907 -0.0114,-0.14481 0.0199,-0.29173 0.0822,-0.42292 0.0624,-0.13119 0.15522,-0.24687 0.26478,-0.34226 0.21911,-0.19076 0.49937,-0.29799 0.78227,-0.3641 0.16748,-0.0391 0.3383,-0.0653 0.50238,-0.11684 0.16409,-0.0516 0.32408,-0.13133 0.43869,-0.25958 0.0939,-0.10507 0.15225,-0.23661 0.20358,-0.36784 0.0513,-0.13124 0.0977,-0.26578 0.17284,-0.38501 0.0885,-0.14049 0.21354,-0.25429 0.34527,-0.35537 0.13172,-0.10109 0.27165,-0.19134 0.40063,-0.29591 0.12899,-0.10456 0.2483,-0.22552 0.32529,-0.37264 0.077,-0.14712 0.10814,-0.32347 0.0581,-0.48179 -0.026,-0.0824 -0.0732,-0.1575 -0.13325,-0.21956 -0.0601,-0.062 -0.13295,-0.11118 -0.21145,-0.14721 -0.15701,-0.0721 -0.33381,-0.0913 -0.50646,-0.0851 -0.34529,0.0124 -0.68862,0.12206 -1.03097,0.0754 -0.23779,-0.0324 -0.45876,-0.13852 -0.66995,-0.25253 -0.21118,-0.114 -0.41921,-0.23822 -0.64754,-0.31211 -0.27075,-0.0876 -0.56041,-0.10103 -0.84455,-0.0852 -0.28413,0.0159 -0.56589,0.0601 -0.84936,0.0852 -1.12965,0.0998 -2.2923,-0.10479 -3.38784,0.18821 -0.38341,0.10254 -0.74865,0.26401 -1.12928,0.37643 -0.42695,0.1261 -0.87231,0.18973 -1.31749,0.18821 -0.90813,-0.12224 -1.85667,0.081 -2.63498,0.56464 -0.46273,0.28753 -0.86151,0.66658 -1.30874,0.97767 -0.22362,0.15555 -0.46041,0.29452 -0.71487,0.39172 -0.25446,0.0972 -0.52763,0.15187 -0.79958,0.13631 -0.10812,-0.006 -0.21744,-0.0233 -0.32391,-0.004 -0.0532,0.01 -0.10533,0.0293 -0.14885,0.0615 -0.0435,0.0322 -0.0781,0.0779 -0.0919,0.13022 -0.0161,0.061 -0.004,0.12526 0,0.18822 0.0101,0.17553 -0.052,0.35209 -0.16031,0.49056 -0.10834,0.13848 -0.26085,0.23961 -0.42688,0.29748 -0.33204,0.11574 -0.70236,0.0595 -1.03164,-0.0639 -0.32929,-0.12338 -0.63049,-0.31011 -0.94657,-0.46419 -0.31609,-0.15407 -0.65944,-0.27762 -1.01064,-0.25997 -0.33004,0.0166 -0.64047,0.15607 -0.96457,0.22053 -0.16205,0.0322 -0.33006,0.0455 -0.4924,0.0148 -0.16234,-0.0307 -0.31925,-0.1085 -0.42516,-0.23531 -0.0964,-0.11536 -0.1458,-0.26625 -0.1492,-0.41652 -0.003,-0.15027 0.0375,-0.29968 0.10537,-0.43376 0.13581,-0.26818 0.37185,-0.47002 0.60847,-0.65543 0.38846,-0.30439 0.79577,-0.58562 1.16506,-0.913 0.36929,-0.32739 0.70343,-0.70699 0.90528,-1.15734 0.11554,-0.2578 0.18622,-0.53517 0.31847,-0.78481 0.0661,-0.12481 0.14803,-0.24256 0.25222,-0.33793 0.1042,-0.0954 0.23173,-0.16773 0.37037,-0.19475 0.12361,-0.0241 0.25105,-0.0118 0.37643,0 0.26353,0.0249 0.53484,0.0468 0.78835,-0.0294 0.12675,-0.0381 0.2473,-0.10118 0.34307,-0.19253 0.0958,-0.0913 0.16568,-0.21198 0.18607,-0.34275 0.0209,-0.13428 -0.0113,-0.27438 -0.0796,-0.39186 -0.0683,-0.11748 -0.17126,-0.21292 -0.28829,-0.282 -0.23408,-0.13816 -0.51499,-0.17055 -0.78672,-0.1769 -0.27173,-0.006 -0.5464,0.01 -0.81301,-0.0429 -0.13331,-0.0265 -0.26404,-0.0705 -0.38074,-0.14016 -0.1167,-0.0696 -0.2191,-0.1657 -0.28663,-0.28364 -0.0738,-0.12882 -0.10376,-0.28089 -0.0924,-0.42889 0.0114,-0.148 0.0631,-0.29174 0.14196,-0.41751 0.15769,-0.25153 0.41712,-0.42543 0.6924,-0.53656 0.27529,-0.11114 0.56936,-0.16589 0.85975,-0.22761 0.29038,-0.0617 0.58283,-0.13237 0.84505,-0.27156 0.27762,-0.14737 0.50986,-0.36529 0.75286,-0.56464 0.27619,-0.22658 0.57831,-0.44115 0.75285,-0.75285 0.15416,-0.27531 0.19266,-0.60923 0.12509,-0.91744 -0.0676,-0.30822 -0.23734,-0.59009 -0.46404,-0.80956 -0.22671,-0.21947 -0.50859,-0.37804 -0.80773,-0.47846 -0.29913,-0.10042 -0.61545,-0.14397 -0.93093,-0.14997 -0.63096,-0.012 -1.25392,0.12364 -1.87598,0.22992 -0.62206,0.10628 -1.26308,0.18329 -1.88101,0.0552 -0.41397,-0.0858 -0.8031,-0.26089 -1.20301,-0.39805 -0.39991,-0.13717 -0.82699,-0.2376 -1.24376,-0.16659 -0.37578,0.064 -0.71342,0.26194 -1.03939,0.45958 -0.32596,0.19763 -0.65813,0.40201 -1.03095,0.48149 -0.24865,0.053 -0.50535,0.0481 -0.75947,0.0559 -0.25411,0.008 -0.5135,0.03 -0.74624,0.13229 -0.23964,0.10534 -0.43557,0.28883 -0.61606,0.47842 -0.18048,0.1896 -0.35253,0.39044 -0.56424,0.5444 -0.10585,0.077 -0.22141,0.14174 -0.34558,0.18312 -0.12417,0.0414 -0.25727,0.0589 -0.38705,0.042 -0.12979,-0.0169 -0.25604,-0.0693 -0.35398,-0.1561 -0.0979,-0.0868 -0.16604,-0.20885 -0.17985,-0.339 -0.007,-0.0624 -0.001,-0.12543 0,-0.18821 0.005,-0.32037 -0.10702,-0.62906 -0.18779,-0.93913 -0.0404,-0.15503 -0.0732,-0.31296 -0.0795,-0.47304 -0.006,-0.16009 0.015,-0.32312 0.079,-0.46996 0.0906,-0.20774 0.25994,-0.37022 0.37643,-0.56464 0.14453,-0.24121 0.20624,-0.529 0.37642,-0.75285 0.0955,-0.12558 0.22105,-0.22516 0.35239,-0.31254 0.13133,-0.0874 0.26967,-0.16391 0.40047,-0.2521 0.35093,-0.2366 0.64024,-0.55176 0.93024,-0.86004 0.29,-0.30828 0.58878,-0.61643 0.95189,-0.83388 0.19491,-0.11672 0.41071,-0.20933 0.56464,-0.37642 0.13952,-0.15145 0.21658,-0.35777 0.21505,-0.56369 -0.002,-0.20592 -0.0806,-0.40959 -0.21505,-0.56559 -0.12025,-0.13956 -0.28002,-0.23931 -0.4444,-0.32248 -0.16438,-0.0832 -0.336,-0.15203 -0.49667,-0.24216 -0.35111,-0.19696 -0.63781,-0.48807 -0.94106,-0.75285 -1.0849,-0.94729 -2.41118,-1.57684 -3.76426,-2.07034 -0.39309,-0.14337 -0.79213,-0.27723 -1.15932,-0.47785 -0.36718,-0.20063 -0.70553,-0.47516 -0.91103,-0.83964 -0.0789,-0.13998 -0.13717,-0.29106 -0.21968,-0.42895 -0.0825,-0.13789 -0.19512,-0.26587 -0.34496,-0.32391 -0.0889,-0.0344 -0.18614,-0.0423 -0.28131,-0.0373 -0.0952,0.005 -0.18918,0.0225 -0.28332,0.0373 -1.03633,0.16337 -2.122826,9.4e-4 -3.062424,-0.46578 -0.939599,-0.46672 -1.727029,-1.23658 -2.207541,-2.1692 -0.16834,-0.32673 -0.305444,-0.68047 -0.564639,-0.94106 -0.221519,-0.22271 -0.515227,-0.3592 -0.752851,-0.56464 -0.389582,-0.33682 -0.606071,-0.85132 -0.623613,-1.36602 -0.01754,-0.5147 0.153378,-1.02625 0.435399,-1.45717 0.461969,-0.70587 1.234292,-1.20487 2.070343,-1.31749 0.150103,-0.0202 0.301673,-0.0285 0.451488,-0.0508 0.149814,-0.0223 0.299515,-0.0592 0.432073,-0.13247 0.132558,-0.0733 0.247461,-0.18595 0.301462,-0.32745 0.027,-0.0708 0.0383,-0.14783 0.02961,-0.22306 -0.0087,-0.0752 -0.0377,-0.14843 -0.08535,-0.20729 -0.06202,-0.0766 -0.152981,-0.12616 -0.248239,-0.15148 -0.09526,-0.0253 -0.195134,-0.028 -0.293591,-0.0233 -0.09846,0.005 -0.196511,0.0164 -0.295031,0.0195 -0.09852,0.003 -0.198511,-0.003 -0.292415,-0.0329 -0.150499,-0.048 -0.274959,-0.15382 -0.38941,-0.2627 -0.11445,-0.10889 -0.225463,-0.22502 -0.363443,-0.30194 -0.195384,-0.10892 -0.426893,-0.12941 -0.65054,-0.13391 -0.223647,-0.005 -0.451046,0.004 -0.66695,-0.0543 -0.232689,-0.0631 -0.43695,-0.20003 -0.64445,-0.32277 -0.2075,-0.12274 -0.432036,-0.2357 -0.67304,-0.24187 -0.1257,-0.003 -0.252784,0.0229 -0.376425,0 -0.111567,-0.0206 -0.213173,-0.0806 -0.297172,-0.15685 -0.084,-0.0763 -0.151791,-0.1686 -0.214349,-0.26326 -0.06256,-0.0947 -0.120572,-0.19244 -0.188244,-0.28352 -0.06767,-0.0911 -0.145902,-0.17602 -0.2413,-0.23744 -0.162115,-0.10438 -0.360967,-0.13333 -0.55354,-0.14292 -0.192573,-0.01 -0.38771,-0.003 -0.575739,-0.0453 -0.330219,-0.075 -0.611934,-0.29683 -0.941064,-0.37643 -0.276195,-0.0668 -0.565525,-0.0289 -0.847404,0.007 -0.28188,0.0359 -0.572685,0.0689 -0.846512,-0.007 -0.13603,-0.0377 -0.264634,-0.10202 -0.376425,-0.18821 -0.0663,0.12934 -0.173734,0.23719 -0.302809,0.304 -0.129076,0.0668 -0.279169,0.0922 -0.423047,0.0717 -0.143879,-0.0205 -0.280847,-0.087 -0.386054,-0.18727 -0.105208,-0.10027 -0.178146,-0.23389 -0.20558,-0.37662 -0.01945,-0.1012 -0.01651,-0.20564 -0.03514,-0.30699 -0.0093,-0.0507 -0.02417,-0.10074 -0.04892,-0.14594 -0.02475,-0.0452 -0.05983,-0.0854 -0.104157,-0.11171 -0.0448,-0.0266 -0.0971,-0.0379 -0.148963,-0.0426 -0.05186,-0.005 -0.104087,-0.003 -0.156085,-0.006 -0.052,-0.003 -0.104605,-0.0103 -0.151971,-0.032 -0.04737,-0.0216 -0.08932,-0.0589 -0.107621,-0.10769 -0.01114,-0.0297 -0.01311,-0.0621 -0.0112,-0.0938 0.0019,-0.0317 0.0076,-0.063 0.0112,-0.0944 0.02308,-0.19981 -0.03752,-0.40543 -0.153337,-0.56987 -0.115816,-0.16445 -0.284267,-0.28858 -0.470317,-0.365 -0.372102,-0.15285 -0.796613,-0.11586 -1.185199,-0.0118 -0.388585,0.10404 -0.757841,0.27136 -1.145721,0.378 -0.387879,0.10664 -0.811009,0.1494 -1.18611,0.004 -0.1309,-0.0507 -0.252174,-0.12288 -0.376425,-0.18822 -0.80083,-0.42111 -1.748273,-0.55646 -2.63498,-0.37642"
         id="path61"
         inkscape:path-effect="#path-effect62"
         inkscape:original-d="m 92.036121,135.13688 c 0.987192,-0.0528 1.629696,0.40268 2.446769,0.75285 0.475517,0.2038 1.014902,0.21283 1.505701,0.37643 1.036206,0.3454 2.003859,0.75144 3.011408,1.12928 0.101598,0.0381 1.439321,0.49825 1.505701,0.56463 0.0992,0.0992 0.089,0.27723 0.18821,0.37643 0.21822,0.21822 1.21225,0.73057 1.31749,0.94106 0.25213,0.50425 0.72089,0.85076 1.12928,1.31749 0.86936,0.99355 1.70168,2.07811 2.63498,3.01141 0.28406,0.28406 0.67418,0.45261 0.94107,0.75285 0.24304,0.27342 0.34005,0.65231 0.56464,0.94107 0.80562,1.0358 2.06087,1.75594 2.82319,2.82319 0.11531,0.16144 0.0479,0.42436 0.18822,0.56464 0.0887,0.0887 0.2877,-0.0887 0.37642,0 0.14029,0.14029 0.0479,0.42435 0.18821,0.56464 0.1984,0.19839 0.52454,0.21335 0.75286,0.37643 0.56545,0.40389 0.96282,1.07139 1.5057,1.5057 0.39801,0.31841 0.96252,0.5861 1.31749,0.94106 0.0992,0.0992 0.10404,0.2642 0.18821,0.37643 0.55876,0.74502 0.20024,0.012 0.94107,0.75285 0.15995,0.15995 0.21647,0.40469 0.37642,0.56464 0.0293,0.0293 0.53529,0.34707 0.56464,0.37643 0.0444,0.0444 -0.0444,0.14385 0,0.18821 0.38942,0.38942 -0.0152,-0.59509 0.37643,0.18821 0.0281,0.0561 -0.0444,0.14385 0,0.18821 0.0444,0.0444 0.14385,-0.0444 0.18821,0 0.0992,0.0992 0.089,0.27723 0.18821,0.37643 0.73455,0.73454 0.10108,-0.0436 0.56464,0.18821 0.15872,0.0794 0.21771,0.29707 0.37643,0.37643 0.89239,0.4462 0.89563,0.25393 1.69391,0.75285 0.92679,0.57924 0.62232,0.64219 1.69392,1.12928 0.36122,0.16419 0.78242,0.18373 1.12928,0.37642 0.23268,0.12927 0.33196,0.43538 0.56464,0.56464 0.34685,0.1927 0.77991,0.18831 1.12927,0.37643 0.29434,0.15849 2.6686,1.95088 2.8232,2.07034 1.12872,0.87219 2.78204,1.98728 3.95247,3.01141 0.53418,0.4674 0.92812,1.09314 1.5057,1.5057 0.22831,0.16308 0.53376,0.20116 0.75285,0.37643 0.10955,0.0876 0.1104,0.2597 0.18822,0.37642 0.2662,0.39931 0.64105,0.75427 0.94106,1.12928 0.28262,0.35327 0.43295,0.80938 0.75285,1.12928 0.15995,0.15995 0.3979,0.22357 0.56464,0.37643 2.26575,2.07693 4.44068,4.2096 6.77567,6.21102 0.67839,0.58149 0.65838,1.34407 1.5057,2.07034 1.15446,0.98954 2.6842,1.1984 3.95247,2.07034 0.47664,0.32769 0.86583,0.76795 1.31749,1.12928 0.88981,0.71184 1.95993,1.31498 2.8232,2.07034 0.26709,0.23371 0.46893,0.53992 0.75285,0.75286 0.22446,0.16834 0.5194,0.22079 0.75285,0.37642 1.01536,0.67691 -0.12963,0.0586 0.56464,0.75285 0.0992,0.0992 0.27723,0.089 0.37642,0.18822 0.0992,0.0992 0.10405,0.26419 0.18822,0.37642 0.25849,0.34465 0.70161,0.58189 0.94106,0.94107 0.15563,0.23345 0.17803,0.55446 0.37643,0.75285 0.8907,0.8907 1.98156,1.38378 3.0114,2.07034 0.0916,0.0611 1.08206,1.17581 1.12928,1.31749 0.0397,0.11904 -0.0561,0.2642 0,0.37643 0.0794,0.15871 0.31053,0.21167 0.37643,0.37642 0.0699,0.17475 -0.0968,0.40325 0,0.56464 0.11638,0.19397 0.44826,0.18246 0.56464,0.37643 0.33668,0.17147 -0.11223,0.52839 0,0.75285 0.0793,0.15872 0.32031,0.20808 0.37642,0.37643 0.16855,0.50563 0.0254,1.64317 -0.18821,2.07034 -0.15465,0.3093 -0.5242,0.2621 -0.75285,0.37642 -0.22235,0.11118 -0.35701,0.42622 -0.56464,0.56464 -0.16507,0.11005 -0.39957,0.0782 -0.56464,0.18821 -0.14765,0.0984 -0.21771,0.29707 -0.37643,0.37643 -0.11222,0.0561 -0.26419,-0.0561 -0.37642,0 -0.79797,0.39898 -1.0829,1.48251 -1.88213,1.88213 -0.16489,0.0824 -1.00049,0.43585 -1.12928,0.56464 -0.0444,0.0444 0.0522,0.15341 0,0.18821 -0.2205,0.14701 -0.72463,0.16 -0.94106,0.37643 -0.0444,0.0444 0.0444,0.14385 0,0.18821 -0.0444,0.0444 -0.1321,-0.0281 -0.18822,0 -0.28826,0.14413 -0.14718,0.3354 -0.37642,0.56464 -0.0444,0.0444 -0.1321,-0.0281 -0.18821,0 -0.20233,0.10116 -0.38368,0.2407 -0.56464,0.37642 -0.31651,0.23739 -0.58687,0.57576 -0.94107,0.75286 -0.0561,0.028 -0.14385,-0.0444 -0.18821,0 -0.0444,0.0444 0.0444,0.14385 0,0.18821 -0.22621,0.2262 -0.63758,0.0871 -0.94106,0.18821 -0.78744,-0.34082 -0.21772,0.29707 -0.37643,0.37643 -0.22446,0.11223 -0.5284,-0.11223 -0.75285,0 -0.0561,0.0281 0.0595,0.16837 0,0.18821 -0.17856,0.0595 -0.38609,-0.0595 -0.56464,0 -0.0595,0.0198 0.0561,0.16016 0,0.18821 -0.298,0.14901 -0.38573,0.006 -0.94107,0.37643 -0.34729,0.23153 -0.91782,0.46472 -1.31749,0.56464 -0.22112,0.0553 -0.73805,-0.10151 -0.94106,0 -0.0367,0.0183 -0.14737,0.33559 -0.18821,0.37643 -0.17745,0.17744 -0.5019,0 -0.75286,0 -0.19974,0 -0.61761,0.25583 -0.75285,0.18821 -0.0793,-0.0397 -0.15326,-0.10666 -0.18821,-0.18821 -0.48586,-1.13369 -0.18492,-1.11283 -0.37643,-2.07035 -0.0797,-0.39843 -0.46596,-0.73456 -0.56464,-1.12928 -0.16784,-0.67137 0,-1.55693 0,-2.25855 0,-0.12547 -0.0887,-0.2877 0,-0.37643 0.1984,-0.19839 0.53732,-0.1968 0.75286,-0.37642 0.43465,-0.36221 0.6332,-1.10969 0.56464,-1.12928 -0.42656,-0.12187 -0.88249,-0.10121 -1.3175,-0.18821 -0.60584,-0.12117 -0.70533,-0.31978 -1.31749,-0.56464 -0.36904,-0.14762 -1.72153,0 -1.88213,0 -0.43916,0 -0.90086,-0.13887 -1.31749,0 -0.0595,0.0198 0.0561,0.16015 0,0.18821 -0.11222,0.0561 -0.25738,-0.0397 -0.37642,0 -0.0842,0.0281 -0.0995,0.18821 -0.18821,0.18821 -0.0627,0 0,-0.12547 0,-0.18821 0,-0.31369 -0.1165,-0.64981 0,-0.94106 0.14919,-0.37299 0.50622,-0.62397 0.75285,-0.94107 0.19258,-0.24761 0.34282,-0.53104 0.56464,-0.75285 0.25488,-0.25488 0.90503,-0.43249 0.37642,-0.56464 -0.69396,-0.17349 -1.36891,-0.42435 -2.07034,-0.56464 -0.73956,-0.14791 -2.32347,-0.0822 -1.88213,-0.37642 1.04922,-0.69948 0.20898,0.71132 1.12928,-1.12928 0.15109,-0.30219 0.37642,-0.60321 0.37642,-0.94106 0,-0.2466 -4.70733,-0.33483 -5.08174,-0.37643 -0.52909,-0.0588 0.68015,-0.84347 1.12927,-1.12928 0.28504,-0.18138 0.68455,-0.15655 0.94107,-0.37642 0.21302,-0.1826 0.19681,-0.53731 0.37642,-0.75285 0.20665,-0.24798 1.6509,-0.98409 1.12928,-1.50571 -0.17419,-0.17419 -1.67956,-0.3089 -1.88213,-0.37642 -0.45328,-0.1511 -0.84788,-0.47659 -1.31749,-0.56464 -0.55497,-0.10406 -1.12928,0 -1.69391,0 -1.13661,0 -2.27306,-0.0905 -3.38784,0.18821 -0.38494,0.0962 -0.74265,0.2872 -1.12928,0.37643 -0.43226,0.0998 -0.87832,0.12547 -1.31749,0.18821 -0.87832,0.18821 -1.76629,0.33603 -2.63498,0.56464 -1.00395,0.26419 -1.98097,0.94422 -2.82319,1.5057 -0.16507,0.11005 -0.42435,0.0479 -0.56464,0.18821 -0.0444,0.0444 0.0561,0.16016 0,0.18822 -0.29775,0.14887 -3.1761,0 -3.57604,0 -0.15583,0 -1.69083,0.1913 -1.88213,0 -0.37904,-0.37903 0.29454,-1.04269 0.56464,-1.50571 0.536,-0.91887 1.36475,-1.36475 2.07034,-2.07034 0.57973,-0.57973 0.20006,-0.72469 0.94106,-1.31749 0.098,-0.0784 0.2547,0.0304 0.37643,0 0.21788,-0.0545 1.19516,-0.44231 1.31749,-0.56464 0.38531,-0.3853 -2.57436,-1.19625 -2.63498,-1.31749 -0.37962,-0.75924 1.93321,-1.59682 2.44676,-1.88213 0.27422,-0.15234 0.48685,-0.39838 0.75286,-0.56464 0.45947,-0.28717 1.09218,-0.55894 0.75285,-0.75285 -1.78692,-1.0211 -3.88604,-1.48577 -5.8346,-2.07034 -0.90599,-0.2718 -1.54186,-0.69391 -2.44677,-0.56464 -1.52985,0.21855 0.0316,0.24044 -2.07034,0.94107 -0.47985,0.15995 -1.015,0.0655 -1.50571,0.18821 -0.69985,0.17496 -1.67567,0.75285 -2.44676,0.75285 -0.0627,0 0.0123,-0.12669 0,-0.18821 -0.14969,-0.74845 -0.37713,-1.03201 -0.18822,-1.88213 0.0491,-0.22082 0.2642,-0.36824 0.37643,-0.56464 0.1392,-0.2436 0.19383,-0.53983 0.37642,-0.75285 0.20415,-0.23817 0.51469,-0.3605 0.75286,-0.56464 0.63695,-0.54596 1.22688,-1.16972 1.88213,-1.69392 0.17663,-0.14131 0.40468,-0.21647 0.56464,-0.37642 0.0794,-0.0795 0.0315,-1.08199 0,-1.12928 -0.20293,-0.30438 -0.64841,-0.34515 -0.94107,-0.56464 -0.32137,-0.24103 -0.60682,-0.53002 -0.94106,-0.75285 -1.2143,-0.80953 -2.54831,-1.25971 -3.76426,-2.07034 -0.68062,-0.45375 -1.44194,-0.79382 -2.07035,-1.31749 -0.17384,-0.14487 -0.26889,-0.67892 -0.56464,-0.75286 -0.18259,-0.0456 -0.37898,0.031 -0.56463,0 -1.830554,-0.30509 -4.088055,-1.11538 -5.269965,-2.63498 -0.224591,-0.28876 -0.323744,-0.66575 -0.564639,-0.94106 -0.206566,-0.23608 -0.600512,-0.29043 -0.752851,-0.56464 -0.141002,-0.2538 -0.45684,-2.42025 -0.188214,-2.82319 0.412414,-0.61863 1.457513,-0.9498 2.070343,-1.31749 0.179258,-0.10756 1.227553,-0.74452 1.129276,-0.94107 -0.222263,-0.44453 -0.763322,-0.0662 -1.129276,-0.18821 -0.297592,-0.0992 -0.458049,-0.45744 -0.752853,-0.56464 -0.416912,-0.15161 -0.882483,-0.10121 -1.31749,-0.18821 -0.476096,-0.0952 -0.912508,-0.42965 -1.31749,-0.56464 -0.119036,-0.0397 -0.257389,0.0397 -0.376425,0 -0.339342,-0.11312 -0.832094,-0.86842 -0.941065,-0.94107 -0.213148,-0.1421 -0.865243,-0.1222 -1.129279,-0.18821 -0.969153,-0.24229 0.343953,-0.19285 -0.941064,-0.37643 -0.472096,-0.0674 -1.226556,0.15579 -1.693916,0 -0.133088,-0.0444 -0.250952,-0.12547 -0.376425,-0.18821 -0.439164,-0.0627 -0.887114,-0.0806 -1.31749,-0.18821 -0.414571,-0.10365 -0.02387,-0.4003 -0.188214,-0.56464 -0.140285,-0.14029 -0.424352,-0.0479 -0.56464,-0.18821 -0.04436,-0.0444 0.05825,-0.16492 0,-0.18822 -0.95087,-0.38034 -3.187247,-0.42843 -4.140684,-0.56463 -0.138874,-0.0198 -0.24334,-0.14386 -0.376425,-0.18822 -0.512191,-0.17073 -2.63498,0.34934 -2.63498,-0.37642" />
      <path
         style="display:inline;fill:url(#pattern98);stroke-width:0;stroke-linecap:round;stroke-linejoin:bevel;stroke-dasharray:none;paint-order:fill markers stroke"
         d="m 160.54563,193.85931 -68.321296,-57.96958 -3.387833,3.01141 69.638789,57.21673 z"
         id="path63" />
    </g>
    <rect
       style="display:inline;fill:#ffffff;fill-opacity:1;fill-rule:nonzero;stroke-width:0;stroke-linecap:round;stroke-linejoin:bevel;stroke-dasharray:none;paint-order:fill markers stroke"
       id="rect64"
       width="3.219553"
       height="22.599197"
       x="101.46159"
       y="-10.566411"
       inkscape:label="隔断2"
       transform="matrix(0.72385864,0.68994831,-0.74670494,0.66515541,0,0)"
       inkscape:transform-center-x="-3.4666505"
       inkscape:transform-center-y="-4.1780013" />
    <rect
       style="display:inline;fill:#ffffff;fill-opacity:1;fill-rule:nonzero;stroke-width:0;stroke-linecap:round;stroke-linejoin:bevel;stroke-dasharray:none;paint-order:fill markers stroke"
       id="rect64-2"
       width="3.219553"
       height="22.599197"
       x="131.75648"
       y="-12.23784"
       inkscape:label="隔断2"
       transform="matrix(0.72385864,0.68994831,-0.74670494,0.66515541,0,0)"
       inkscape:transform-center-x="-3.4666505"
       inkscape:transform-center-y="-4.1780013" />
    <rect
       style="display:inline;fill:#ffffff;fill-opacity:1;fill-rule:nonzero;stroke-width:0;stroke-linecap:round;stroke-linejoin:bevel;stroke-dasharray:none;paint-order:fill markers stroke"
       id="rect64-23"
       width="3.7430766"
       height="37.309883"
       x="64.588242"
       y="16.698355"
       inkscape:label="隔断2"
       transform="matrix(0.98050702,0.19648408,-0.31050262,0.95057252,0,0)"
       inkscape:transform-center-x="-0.090763933"
       inkscape:transform-center-y="-7.7946323" />
    <path
       d="m 52.489053,155.07178 c -0.124068,-0.55904 -0.345333,-1.49305 -0.607507,-2.63943 -0.323439,-1.41077 -0.694665,-3.10293 -0.952323,-4.80775 -0.07347,-0.48902 -0.139952,-0.99166 -0.192502,-1.50081 -0.04625,-0.44811 -0.08756,-0.95736 -0.107908,-1.50016 -0.02361,-0.65311 -0.01968,-1.40669 0.07604,-2.17264 0.0647,-0.51118 0.171303,-1.03557 0.35664,-1.53049 0.130397,-0.33559 0.285444,-0.6733 0.463977,-1.03807 0.4743,-0.95951 1.045958,-1.88951 1.692812,-2.78769 0.781599,-1.0831 1.652865,-2.09058 2.597084,-3.00876 0.923229,-0.89634 1.892745,-1.68416 2.905803,-2.3484 0.939398,-0.61498 1.875805,-1.09632 2.809257,-1.44224 0.948978,-0.35143 1.834012,-0.53724 2.642436,-0.59573 0.237192,-0.0172 0.433165,-0.0209 0.572376,-0.0209 a 0.94106462,0.94106462 90 0 0 1.6e-5,-1.88212 c -0.1736,-1e-5 -0.416159,0.005 -0.708297,0.0258 -0.996885,0.0721 -2.055918,0.29902 -3.160349,0.70802 -1.082466,0.40114 -2.144482,0.95041 -3.18689,1.63283 -1.123584,0.73671 -2.185561,1.60162 -3.185944,2.57287 -1.023067,0.99485 -1.965995,2.08528 -2.812247,3.25798 -0.699727,0.97159 -1.327268,1.99013 -1.854934,3.05762 -0.192215,0.3927 -0.373614,0.78535 -0.531704,1.19292 -0.0012,0.003 -0.0024,0.006 -0.0036,0.009 -0.254667,0.67799 -0.387479,1.3586 -0.46386,1.96206 -0.113117,0.90515 -0.115072,1.76872 -0.08948,2.47677 0.02229,0.5944 0.0672,1.14573 0.116578,1.62414 0.05616,0.5441 0.126675,1.07623 0.203568,1.58803 0.268974,1.77968 0.653728,3.52952 0.978794,4.94739 0.265982,1.16303 0.483582,2.08123 0.604732,2.62711 a 0.94106462,0.94106462 90 0 0 1.837422,-0.40778 z"
       id="path-1"
       inkscape:path-effect="#path-effect109;#path-effect110"
       inkscape:original-d="m 51.570342,155.27567 c -0.873103,-3.94966 -2.878712,-11.12189 -1.31749,-14.86883 2.200196,-5.28047 8.425367,-11.6692 14.492395,-11.6692"
       style="fill:#b39dc9;fill-opacity:0.945338;fill-rule:nonzero;stroke:none;stroke-width:0;stroke-linecap:round;stroke-linejoin:bevel;stroke-dasharray:none;paint-order:fill markers stroke"
       transform="translate(-38.598679,-84.380486)" />
    <path
       d="m 105.36624,105.11729 c 0.3934,0.19009 0.71211,0.29202 1.2945,0.483 0.30315,0.0995 0.61211,0.20671 0.87017,0.35203 0.14491,0.0813 0.28285,0.18056 0.40159,0.29964 0.0918,0.0921 0.18354,0.18759 0.2753,0.28642 0.27247,0.29347 0.55588,0.62761 0.87822,1.03799 0.54629,0.69847 1.09608,1.48339 1.66472,2.3878 0.57913,0.92371 1.154,1.93576 1.68278,3.02505 0.36185,0.74809 0.70832,1.54351 0.99052,2.3712 0.1756,0.51872 0.32666,1.0488 0.41669,1.58324 0.0401,0.24148 0.0667,0.49645 0.0903,0.78086 0.0727,0.90934 0.0547,1.83786 0.0148,2.82633 -0.0445,1.10547 -0.122,2.32118 -0.097,3.51292 0.007,0.39033 0.0329,0.78952 0.0509,1.14486 0.0796,1.52997 0.15769,3.0238 0.16786,4.5179 0.009,1.27655 -0.0375,2.53052 -0.17064,3.76304 -0.13192,1.23402 -0.35083,2.44405 -0.6423,3.62009 -0.17676,0.71484 -0.37826,1.41325 -0.59542,2.09187 -0.14165,0.43776 -0.28424,0.82257 -0.45802,1.17401 -0.12028,0.24143 -0.2362,0.42846 -0.36054,0.57692 -0.0797,0.0949 -0.14787,0.15219 -0.20148,0.1863 -0.004,0.002 -0.007,0.005 -0.0105,0.007 -0.34846,0.22832 -0.74709,0.40876 -1.12519,0.56745 -0.66628,0.28004 -1.0306,0.40502 -1.57172,0.67486 a 0.94106462,0.94106462 90 0 0 0.83994,1.68432 c 0.46873,-0.23375 0.70735,-0.30729 1.4606,-0.62389 0.39273,-0.16483 0.92353,-0.39871 1.42307,-0.7253 0.24555,-0.15723 0.45199,-0.35235 0.62722,-0.56087 0.2527,-0.30171 0.44449,-0.62859 0.60454,-0.94984 0.23355,-0.47235 0.40884,-0.95542 0.56378,-1.43424 0.22926,-0.71644 0.44271,-1.45571 0.63074,-2.21613 0.31088,-1.25436 0.54531,-2.54883 0.68667,-3.87126 0.14256,-1.31965 0.19052,-2.64778 0.18137,-3.97702 -0.0105,-1.54385 -0.0911,-3.08057 -0.17028,-4.60133 -0.0197,-0.39073 -0.0423,-0.73288 -0.0488,-1.08551 -0.0235,-1.11783 0.0488,-2.23319 0.0958,-3.40017 0.0404,-1.00362 0.0628,-2.02516 -0.0195,-3.05493 -0.0254,-0.30672 -0.057,-0.62047 -0.10986,-0.93855 -0.113,-0.67082 -0.2966,-1.30413 -0.49095,-1.87819 -0.31498,-0.92388 -0.69493,-1.79278 -1.07884,-2.58648 -0.56315,-1.1601 -1.17221,-2.23163 -1.78254,-3.20511 -0.59924,-0.95307 -1.18563,-1.79147 -1.77739,-2.54806 -0.34816,-0.44328 -0.6653,-0.81832 -0.98025,-1.15754 -0.10601,-0.11418 -0.21314,-0.22575 -0.32174,-0.33469 -0.26179,-0.26252 -0.54549,-0.46184 -0.81227,-0.61149 -0.43864,-0.24703 -0.9143,-0.40399 -1.20553,-0.49962 -0.59902,-0.19643 -0.79969,-0.26238 -1.06246,-0.38935 a 0.94106462,0.94106462 90 0 0 -0.81886,1.69466 z"
       id="path-1-1"
       inkscape:path-effect="#path-effect113;#path-effect114"
       inkscape:original-d="m 105.77567,104.26996 c 0.96286,0.46452 2.03573,0.53003 2.82319,1.31749 2.35194,2.35195 5.79071,8.11847 6.21103,11.48099 0.30712,2.457 -0.13026,5.05371 0,7.52852 0.28455,5.40646 0.50825,9.17042 -1.12928,14.49239 -0.25932,0.8428 -0.71349,2.29506 -1.5057,2.8232 -0.8651,0.57673 -1.92223,0.86701 -2.8232,1.31749"
       style="fill:#7692dd;fill-opacity:1;fill-rule:nonzero;stroke:none;stroke-width:0;stroke-linecap:round;stroke-linejoin:bevel;stroke-dasharray:none;paint-order:fill markers stroke"
       transform="translate(-38.598679,-84.380486)" />
    <path
       d="m 89.482538,175.7223 c 0.6906,-0.652 2.255438,-2.08809 4.535798,-3.66383 0.611024,-0.42222 1.387471,-0.93385 2.314336,-1.48648 2.259223,-1.3458 5.179788,-2.79667 8.709008,-3.92202 2.80565,-0.89361 5.79287,-1.51433 8.88051,-1.7427 2.89114,-0.21366 5.61536,-0.0613 8.12005,0.38026 1.86466,0.32849 3.29937,0.76439 4.13921,1.04439 a 0.94106462,0.94106462 90 0 0 0.59528,-1.78552 c -0.89764,-0.29926 -2.42558,-0.76323 -4.40785,-1.11244 -2.66141,-0.46916 -5.54205,-0.62861 -8.58546,-0.40369 -3.24809,0.24023 -6.38044,0.89233 -9.31322,1.82643 -3.68888,1.17626 -6.74038,2.69226 -9.101072,4.0985 -0.968988,0.57775 -1.781046,1.11281 -2.420754,1.55485 -2.388531,1.65049 -4.030341,3.15679 -4.757908,3.84369 a 0.94106462,0.94106462 90 0 0 1.292072,1.36856 z"
       id="path-1-8"
       inkscape:path-effect="#path-effect117;#path-effect118"
       inkscape:original-d="m 88.836502,175.03802 c 9.567151,-9.03641 24.860468,-13.85956 37.642588,-9.59886"
       style="fill:#319ddd;fill-opacity:1;fill-rule:nonzero;stroke:none;stroke-width:0;stroke-linecap:round;stroke-linejoin:bevel;stroke-dasharray:none;paint-order:fill markers stroke"
       transform="translate(-38.598679,-84.380486)" />
    <path
       d="m 138.67798,194.48982 c 0.23539,-0.83948 0.6314,-2.137 1.26055,-3.72341 0.21968,-0.55373 0.47171,-1.15253 0.7604,-1.78766 0.0357,-0.078 0.0924,-0.17035 0.17974,-0.28841 0.0648,-0.087 0.13745,-0.17502 0.21518,-0.26257 0.07,-0.0788 0.14826,-0.16193 0.2386,-0.25298 0.24141,-0.24235 0.51699,-0.4873 0.84054,-0.74813 0.40759,-0.32776 0.84602,-0.6433 1.31522,-0.9476 0.44701,-0.28929 0.9017,-0.55521 1.3653,-0.79164 0.34465,-0.17524 0.67086,-0.32263 0.99094,-0.44205 0.25205,-0.0935 0.46142,-0.15552 0.65195,-0.19466 0.15778,-0.032 0.25283,-0.0373 0.31123,-0.0374 a 0.94106462,0.94106462 90 0 0 -0.003,-1.88212 c -0.19303,3.1e-4 -0.41243,0.0203 -0.68436,0.0754 -0.31154,0.064 -0.61559,0.15747 -0.9319,0.27477 -0.40401,0.15073 -0.79656,0.32945 -1.18881,0.52889 -0.5295,0.27003 -1.04015,0.56924 -1.5346,0.88924 -0.51919,0.33671 -1.00995,0.68945 -1.47222,1.06119 -0.36595,0.29501 -0.69449,0.58554 -0.99495,0.88719 -0.11212,0.11299 -0.2147,0.22154 -0.31124,0.33027 -0.10684,0.12033 -0.21466,0.2503 -0.31889,0.3902 -0.13098,0.177 -0.26973,0.38609 -0.3811,0.62952 -0.30329,0.66726 -0.56728,1.29442 -0.79746,1.87462 -0.65922,1.66227 -1.07517,3.02449 -1.32326,3.90921 a 0.94106462,0.94106462 90 0 0 1.81224,0.50816 z"
       id="path-1-5"
       inkscape:path-effect="#path-effect119;#path-effect120"
       inkscape:original-d="m 137.77186,194.23574 c 0.54145,-1.93178 1.24928,-3.84003 2.07035,-5.64639 0.72466,-1.59425 5.13328,-4.51711 6.96387,-4.51711"
       style="fill:#55ffd7;fill-opacity:1;fill-rule:nonzero;stroke:none;stroke-width:0;stroke-linecap:round;stroke-linejoin:bevel;stroke-dasharray:none;paint-order:fill markers stroke"
       transform="translate(-38.598679,-84.380486)" />
  </g>
  <g
     inkscape:label="上层"
     inkscape:groupmode="layer"
     id="layer1"
     style="display:inline">
    <path
       sodipodi:type="star"
       style="fill:#e7d500;fill-opacity:1;stroke-width:0.07;stroke-dasharray:none;paint-order:fill markers stroke"
       id="path10"
       inkscape:flatsided="false"
       sodipodi:sides="5"
       sodipodi:cx="45.249458"
       sodipodi:cy="48.177364"
       sodipodi:r1="5.6463876"
       sodipodi:r2="2.6040609"
       sodipodi:arg1="0.78539816"
       sodipodi:arg2="1.4137167"
       inkscape:rounded="0"
       inkscape:randomized="0"
       d="m 49.242057,52.169963 -3.585234,-1.420598 -2.970771,2.458968 0.243171,-3.84875 -3.256636,-2.065508 3.735522,-0.95806 0.95806,-3.735522 2.065508,3.256636 3.848749,-0.243171 -2.458967,2.970771 z"
       inkscape:transform-center-x="0.27295152"
       inkscape:transform-center-y="-0.27295152"
       transform="translate(65.475071,-23.160633)"
       inkscape:label="星5" />
    <path
       sodipodi:type="star"
       style="display:inline;fill:#e7d500;fill-opacity:1;stroke-width:0.07;stroke-dasharray:none;paint-order:fill markers stroke"
       id="path10-9"
       inkscape:flatsided="false"
       sodipodi:sides="5"
       sodipodi:cx="45.249458"
       sodipodi:cy="48.177364"
       sodipodi:r1="5.6463876"
       sodipodi:r2="2.6040609"
       sodipodi:arg1="0.78539816"
       sodipodi:arg2="1.4137167"
       inkscape:rounded="0"
       inkscape:randomized="0"
       d="m 49.242057,52.169963 -3.585234,-1.420598 -2.970771,2.458968 0.243171,-3.84875 -3.256636,-2.065508 3.735522,-0.95806 0.95806,-3.735522 2.065508,3.256636 3.848749,-0.243171 -2.458967,2.970771 z"
       inkscape:transform-center-x="0.16640691"
       inkscape:transform-center-y="-0.15672487"
       transform="matrix(0.60965808,0,0,0.57417245,16.707772,92.748974)"
       inkscape:label="星5" />
    <path
       sodipodi:type="star"
       style="fill:#e7d500;fill-opacity:1;stroke-width:0.07;stroke-dasharray:none;paint-order:fill markers stroke"
       id="path10-8"
       inkscape:flatsided="false"
       sodipodi:sides="5"
       sodipodi:cx="45.249458"
       sodipodi:cy="48.177364"
       sodipodi:r1="5.6463876"
       sodipodi:r2="2.6040609"
       sodipodi:arg1="0.78539816"
       sodipodi:arg2="1.4137167"
       inkscape:rounded="0"
       inkscape:randomized="0"
       d="m 49.242057,52.169963 -3.585234,-1.420598 -2.970771,2.458968 0.243171,-3.84875 -3.256636,-2.065508 3.735522,-0.95806 0.95806,-3.735522 2.065508,3.256636 3.848749,-0.243171 -2.458967,2.970771 z"
       inkscape:transform-center-x="0.27295152"
       inkscape:transform-center-y="-0.27295152"
       transform="translate(17.842978,-29.03982)"
       inkscape:label="星4" />
    <path
       sodipodi:type="star"
       style="fill:#e7d500;fill-opacity:1;stroke-width:0.07;stroke-dasharray:none;paint-order:fill markers stroke"
       id="path11"
       inkscape:flatsided="false"
       sodipodi:sides="5"
       sodipodi:cx="65.744797"
       sodipodi:cy="60.155159"
       sodipodi:r1="9.4181719"
       sodipodi:r2="4.3435721"
       sodipodi:arg1="0.82537685"
       sodipodi:arg2="1.4536954"
       inkscape:rounded="0"
       inkscape:randomized="0"
       d="m 72.132955,67.075664 -5.880684,-2.60668 -5.115216,3.900229 0.661868,-6.398372 -5.290026,-3.659623 6.289741,-1.347731 1.845801,-6.162 3.225405,5.565428 6.430794,-0.148702 -4.296331,4.787354 z"
       inkscape:transform-center-x="0.34002932"
       inkscape:transform-center-y="-0.56980906"
       transform="translate(-17.841753,35.335194)"
       inkscape:label="星3" />
    <path
       sodipodi:type="star"
       style="fill:#e7d500;fill-opacity:1;stroke-width:0.07;stroke-dasharray:none;paint-order:fill markers stroke"
       id="path12"
       inkscape:flatsided="false"
       sodipodi:sides="5"
       sodipodi:cx="96.088554"
       sodipodi:cy="63.881584"
       sodipodi:r1="5.3830214"
       sodipodi:r2="2.4825988"
       sodipodi:arg1="2.9927027"
       sodipodi:arg2="3.6210212"
       inkscape:rounded="0"
       inkscape:randomized="0"
       d="m 90.765089,64.680104 3.120758,-1.943674 -0.201771,-3.671006 2.81291,2.367389 3.428984,-1.326299 -1.382283,3.4068 2.321003,2.851309 -3.667213,-0.261871 -1.994526,3.088505 -0.884177,-3.568646 z"
       inkscape:transform-center-x="0.27366663"
       inkscape:transform-center-y="0.2467562"
       transform="translate(3.0277204,49.941084)"
       inkscape:label="星2" />
    <path
       sodipodi:type="star"
       style="fill:#e7d500;fill-opacity:1;stroke-width:0.07;stroke-dasharray:none;paint-order:fill markers stroke"
       id="path13"
       inkscape:flatsided="false"
       sodipodi:sides="5"
       sodipodi:cx="138.67628"
       sodipodi:cy="65.212456"
       sodipodi:r1="7.166935"
       sodipodi:r2="3.3053229"
       sodipodi:arg1="1.0240075"
       sodipodi:arg2="1.652326"
       inkscape:rounded="0"
       inkscape:randomized="0"
       d="m 142.40271,71.334441 -3.99561,-2.827642 -4.40164,2.141496 1.45454,-4.67384 -3.39687,-3.524451 4.89456,-0.06095 2.30227,-4.319727 1.57047,4.636171 4.81974,0.854714 -3.92396,2.926261 z"
       inkscape:transform-center-x="-0.18036421"
       inkscape:transform-center-y="-0.5105715"
       transform="translate(-122.22046,10.349104)"
       inkscape:label="星1" />
    <path
       sodipodi:type="star"
       style="display:inline;fill:#e7d500;fill-opacity:1;stroke-width:0.07;stroke-dasharray:none;paint-order:fill markers stroke"
       id="path10-4"
       inkscape:flatsided="false"
       sodipodi:sides="5"
       sodipodi:cx="45.249458"
       sodipodi:cy="48.177364"
       sodipodi:r1="5.6463876"
       sodipodi:r2="2.6040609"
       sodipodi:arg1="0.78539816"
       sodipodi:arg2="1.4137167"
       inkscape:rounded="0"
       inkscape:randomized="0"
       d="m 49.242057,52.169963 -3.585234,-1.420598 -2.970771,2.458968 0.243171,-3.84875 -3.256636,-2.065508 3.735522,-0.95806 0.95806,-3.735522 2.065508,3.256636 3.848749,-0.243171 -2.458967,2.970771 z"
       inkscape:transform-center-x="0.20030741"
       inkscape:transform-center-y="-0.1954654"
       transform="matrix(0.73385778,0,0,0.71611496,-24.205803,-24.722409)"
       inkscape:label="星5" />
    <path
       sodipodi:type="star"
       style="display:inline;fill:#e7d500;fill-opacity:1;stroke-width:0.07;stroke-dasharray:none;paint-order:fill markers stroke"
       id="path10-3"
       inkscape:flatsided="false"
       sodipodi:sides="5"
       sodipodi:cx="45.249458"
       sodipodi:cy="48.177364"
       sodipodi:r1="5.6463876"
       sodipodi:r2="2.6040609"
       sodipodi:arg1="0.78539816"
       sodipodi:arg2="1.4137167"
       inkscape:rounded="0"
       inkscape:randomized="0"
       d="m 49.242057,52.169963 -3.585234,-1.420598 -2.970771,2.458968 0.243171,-3.84875 -3.256636,-2.065508 3.735522,-0.95806 0.95806,-3.735522 2.065508,3.256636 3.848749,-0.243171 -2.458967,2.970771 z"
       inkscape:transform-center-x="0.074394188"
       inkscape:transform-center-y="-0.059864722"
       transform="matrix(0.2725446,0,0,0.21931615,75.394921,44.140324)"
       inkscape:label="星5" />
    <path
       sodipodi:type="star"
       style="display:inline;fill:#e7d500;fill-opacity:1;stroke-width:0.07;stroke-dasharray:none;paint-order:fill markers stroke"
       id="path10-87"
       inkscape:flatsided="false"
       sodipodi:sides="5"
       sodipodi:cx="45.249458"
       sodipodi:cy="48.177364"
       sodipodi:r1="5.6463876"
       sodipodi:r2="2.6040609"
       sodipodi:arg1="0.78539816"
       sodipodi:arg2="1.4137167"
       inkscape:rounded="0"
       inkscape:randomized="0"
       d="m 49.242057,52.169963 -3.585234,-1.420598 -2.970771,2.458968 0.243171,-3.84875 -3.256636,-2.065508 3.735522,-0.95806 0.95806,-3.735522 2.065508,3.256636 3.848749,-0.243171 -2.458967,2.970771 z"
       inkscape:transform-center-x="0.15672081"
       inkscape:transform-center-y="-0.16156536"
       transform="matrix(0.57417245,0,0,0.59191526,17.335102,46.684754)"
       inkscape:label="星5" />
    <path
       sodipodi:type="star"
       style="display:inline;fill:#e7d500;fill-opacity:1;stroke-width:0.07;stroke-dasharray:none;paint-order:fill markers stroke"
       id="path10-93"
       inkscape:flatsided="false"
       sodipodi:sides="5"
       sodipodi:cx="45.249458"
       sodipodi:cy="48.177364"
       sodipodi:r1="5.6463876"
       sodipodi:r2="2.6040609"
       sodipodi:arg1="0.78539816"
       sodipodi:arg2="1.4137167"
       inkscape:rounded="0"
       inkscape:randomized="0"
       d="m 49.242057,52.169963 -3.585234,-1.420598 -2.970771,2.458968 0.243171,-3.84875 -3.256636,-2.065508 3.735522,-0.95806 0.95806,-3.735522 2.065508,3.256636 3.848749,-0.243171 -2.458967,2.970771 z"
       inkscape:transform-center-x="0.10828814"
       inkscape:transform-center-y="-0.10829416"
       transform="matrix(0.3967443,0,0,0.3967443,67.003401,-7.6645145)"
       inkscape:label="星5" />
    <path
       sodipodi:type="star"
       style="display:inline;fill:#e7d500;fill-opacity:1;stroke-width:0.07;stroke-dasharray:none;paint-order:fill markers stroke"
       id="path10-5"
       inkscape:flatsided="false"
       sodipodi:sides="5"
       sodipodi:cx="45.249458"
       sodipodi:cy="48.177364"
       sodipodi:r1="5.6463876"
       sodipodi:r2="2.6040609"
       sodipodi:arg1="0.78539816"
       sodipodi:arg2="1.4137167"
       inkscape:rounded="0"
       inkscape:randomized="0"
       d="m 49.242057,52.169963 -3.585234,-1.420598 -2.970771,2.458968 0.243171,-3.84875 -3.256636,-2.065508 3.735522,-0.95806 0.95806,-3.735522 2.065508,3.256636 3.848749,-0.243171 -2.458967,2.970771 z"
       inkscape:transform-center-x="0.093762327"
       inkscape:transform-center-y="-0.1034521"
       transform="matrix(0.34351586,0,0,0.37900149,-6.3884056,90.925774)"
       inkscape:label="星5" />
  </g>
</svg>
