<?xml version="1.0" encoding="UTF-8" standalone="no"?>
<!-- Created with Inkscape (http://www.inkscape.org/) -->

<svg
   width="500"
   height="500"
   viewBox="0 0 132.29166 132.29167"
   version="1.1"
   id="svg1"
   inkscape:version="1.4.3 (0d15f75, 2025-12-25)"
   sodipodi:docname="透底版-passwd-memory-points.svg"
   xmlns:inkscape="http://www.inkscape.org/namespaces/inkscape"
   xmlns:sodipodi="http://sodipodi.sourceforge.net/DTD/sodipodi-0.dtd"
   xmlns:xlink="http://www.w3.org/1999/xlink"
   xmlns="http://www.w3.org/2000/svg"
   xmlns:svg="http://www.w3.org/2000/svg">
  <sodipodi:namedview
     id="namedview1"
     pagecolor="#ffffff"
     bordercolor="#000000"
     borderopacity="0.25"
     inkscape:showpageshadow="2"
     inkscape:pageopacity="0.0"
     inkscape:pagecheckerboard="false"
     inkscape:deskcolor="#d1d1d1"
     inkscape:document-units="mm"
     inkscape:zoom="0.99402667"
     inkscape:cx="532.17888"
     inkscape:cy="337.5161"
     inkscape:window-width="1920"
     inkscape:window-height="1003"
     inkscape:window-x="-9"
     inkscape:window-y="39"
     inkscape:window-maximized="1"
     inkscape:current-layer="layer3"
     showborder="true"
     labelstyle="default" />
  <defs
     id="defs1">
    <inkscape:path-effect
       effect="powerstroke"
       message=""
       id="path-effect120"
       is_visible="true"
       lpeversion="1.3"
       scale_width="1"
       interpolator_type="CentripetalCatmullRom"
       interpolator_beta="0.75"
       start_linecap_type="round"
       end_linecap_type="round"
       offset_points="3.5142598,0.94106462"
       linejoin_type="spiro"
       miter_limit="4"
       not_jump="true"
       sort_points="true" />
    <inkscape:path-effect
       effect="simplify"
       id="path-effect119"
       is_visible="true"
       lpeversion="1.3"
       threshold="0.6"
       steps="1"
       smooth_angles="0"
       helper_size="0"
       simplify_individual_paths="false"
       simplify_just_coalesce="false"
       step="1" />
    <inkscape:path-effect
       effect="powerstroke"
       message=""
       id="path-effect118"
       is_visible="true"
       lpeversion="1.3"
       scale_width="1"
       interpolator_type="CentripetalCatmullRom"
       interpolator_beta="0.75"
       start_linecap_type="round"
       end_linecap_type="round"
       offset_points="0.6799718,0.94106462"
       linejoin_type="spiro"
       miter_limit="4"
       not_jump="true"
       sort_points="true" />
    <inkscape:path-effect
       effect="simplify"
       id="path-effect117"
       is_visible="true"
       lpeversion="1.3"
       threshold="0.6"
       steps="1"
       smooth_angles="0"
       helper_size="0"
       simplify_individual_paths="false"
       simplify_just_coalesce="false"
       step="1" />
    <inkscape:path-effect
       effect="powerstroke"
       message=""
       id="path-effect116"
       is_visible="true"
       lpeversion="1.3"
       scale_width="1"
       interpolator_type="CentripetalCatmullRom"
       interpolator_beta="0.75"
       start_linecap_type="round"
       end_linecap_type="round"
       offset_points="2.5357879,0.94106462"
       linejoin_type="spiro"
       miter_limit="4"
       not_jump="true"
       sort_points="true" />
    <inkscape:path-effect
       effect="simplify"
       id="path-effect115"
       is_visible="true"
       lpeversion="1.3"
       threshold="0.6"
       steps="1"
       smooth_angles="0"
       helper_size="0"
       simplify_individual_paths="false"
       simplify_just_coalesce="false"
       step="1" />
    <inkscape:path-effect
       effect="powerstroke"
       message=""
       id="path-effect114"
       is_visible="true"
       lpeversion="1.3"
       scale_width="1"
       interpolator_type="CentripetalCatmullRom"
       interpolator_beta="0.75"
       start_linecap_type="round"
       end_linecap_type="round"
       offset_points="3.2305924,0.94106462"
       linejoin_type="spiro"
       miter_limit="4"
       not_jump="true"
       sort_points="true" />
    <inkscape:path-effect
       effect="simplify"
       id="path-effect113"
       is_visible="true"
       lpeversion="1.3"
       threshold="0.6"
       steps="1"
       smooth_angles="0"
       helper_size="0"
       simplify_individual_paths="false"
       simplify_just_coalesce="false"
       step="1" />
    <inkscape:path-effect
       effect="powerstroke"
       message=""
       id="path-effect112"
       is_visible="true"
       lpeversion="1.3"
       scale_width="1"
       interpolator_type="CentripetalCatmullRom"
       interpolator_beta="0.75"
       start_linecap_type="round"
       end_linecap_type="round"
       offset_points="1.859778,0.94106462"
       linejoin_type="spiro"
       miter_limit="4"
       not_jump="true"
       sort_points="true" />
    <inkscape:path-effect
       effect="simplify"
       id="path-effect111"
       is_visible="true"
       lpeversion="1.3"
       threshold="0.6"
       steps="1"
       smooth_angles="0"
       helper_size="0"
       simplify_individual_paths="false"
       simplify_just_coalesce="false"
       step="1" />
    <inkscape:path-effect
       effect="powerstroke"
       message=""
       id="path-effect110"
       is_visible="true"
       lpeversion="1.3"
       scale_width="1"
       interpolator_type="CentripetalCatmullRom"
       interpolator_beta="0.75"
       start_linecap_type="round"
       end_linecap_type="round"
       offset_points="2.4986765,0.94106462"
       linejoin_type="spiro"
       miter_limit="4"
       not_jump="true"
       sort_points="true" />
    <inkscape:path-effect
       effect="simplify"
       id="path-effect109"
       is_visible="true"
       lpeversion="1.3"
       threshold="0.6"
       steps="1"
       smooth_angles="0"
       helper_size="0"
       simplify_individual_paths="false"
       simplify_just_coalesce="false"
       step="1" />
    <inkscape:path-effect
       effect="powerstroke"
       message=""
       id="path-effect108"
       is_visible="true"
       lpeversion="1.3"
       scale_width="1"
       interpolator_type="CentripetalCatmullRom"
       interpolator_beta="0.75"
       start_linecap_type="round"
       end_linecap_type="round"
       offset_points="4.1586481,0.94106462"
       linejoin_type="spiro"
       miter_limit="4"
       not_jump="true"
       sort_points="true" />
    <inkscape:path-effect
       effect="simplify"
       id="path-effect107"
       is_visible="true"
       lpeversion="1.3"
       threshold="0.6"
       steps="1"
       smooth_angles="0"
       helper_size="0"
       simplify_individual_paths="false"
       simplify_just_coalesce="false"
       step="1" />
    <inkscape:path-effect
       effect="powerstroke"
       message=""
       id="path-effect106"
       is_visible="true"
       lpeversion="1.3"
       scale_width="1"
       interpolator_type="CentripetalCatmullRom"
       interpolator_beta="0.75"
       start_linecap_type="round"
       end_linecap_type="round"
       offset_points="1.9508341,2.8231939"
       linejoin_type="spiro"
       miter_limit="4"
       not_jump="true"
       sort_points="true" />
    <inkscape:path-effect
       effect="simplify"
       id="path-effect105"
       is_visible="true"
       lpeversion="1.3"
       threshold="0.6"
       steps="1"
       smooth_angles="0"
       helper_size="0"
       simplify_individual_paths="false"
       simplify_just_coalesce="false"
       step="1" />
    <inkscape:path-effect
       effect="powerstroke"
       message=""
       id="path-effect104"
       is_visible="true"
       lpeversion="1.3"
       scale_width="1"
       interpolator_type="CentripetalCatmullRom"
       interpolator_beta="0.75"
       start_linecap_type="round"
       end_linecap_type="round"
       offset_points="63.527056,2.8231939"
       linejoin_type="spiro"
       miter_limit="4"
       not_jump="true"
       sort_points="true" />
    <inkscape:path-effect
       effect="simplify"
       id="path-effect103"
       is_visible="true"
       lpeversion="1.3"
       threshold="0.012"
       steps="1"
       smooth_angles="0"
       helper_size="0"
       simplify_individual_paths="false"
       simplify_just_coalesce="false"
       step="1" />
    <inkscape:path-effect
       effect="powerstroke"
       message=""
       id="path-effect102"
       is_visible="true"
       lpeversion="1.3"
       scale_width="1"
       interpolator_type="CentripetalCatmullRom"
       interpolator_beta="0.75"
       start_linecap_type="round"
       end_linecap_type="round"
       offset_points="26.347798,2.8231939"
       linejoin_type="spiro"
       miter_limit="4"
       not_jump="true"
       sort_points="true" />
    <inkscape:path-effect
       effect="simplify"
       id="path-effect101"
       is_visible="true"
       lpeversion="1.3"
       threshold="0.012"
       steps="1"
       smooth_angles="0"
       helper_size="0"
       simplify_individual_paths="false"
       simplify_just_coalesce="false"
       step="1" />
    <inkscape:path-effect
       effect="bspline"
       id="path-effect100"
       is_visible="true"
       lpeversion="1.3"
       weight="33.333333"
       steps="2"
       helper_size="0"
       apply_no_weight="true"
       apply_with_weight="true"
       only_selected="false"
       uniform="false" />
    <inkscape:path-effect
       effect="spiro"
       id="path-effect99"
       is_visible="true"
       lpeversion="1" />
    <inkscape:path-effect
       effect="spiro"
       id="path-effect98"
       is_visible="true"
       lpeversion="1" />
    <pattern
       inkscape:collect="always"
       xlink:href="#TableCloth"
       preserveAspectRatio="xMidYMid"
       id="pattern98"
       patternTransform="rotate(15)"
       x="0"
       y="0" />
    <pattern
       patternUnits="userSpaceOnUse"
       preserveAspectRatio="xMidYMid"
       width="50"
       height="50"
       id="TableCloth"
       inkscape:stockid="Table Cloth"
       style="fill:none"
       inkscape:collect="always"
       inkscape:isstock="true"
       inkscape:label="桌布">
      <g
   id="g152475">
        <rect
   style="fill:none;fill-opacity:1;stroke:none;stroke-width:1;stroke-dasharray:none"
   id="rect152346"
   width="50"
   height="50"
   x="0"
   y="0" />

        <path
   id="path152348"
   style="fill:#afecda;fill-opacity:1;stroke:none;stroke-width:0.999995;stroke-dasharray:none"
   d="m 0.5,25.5 v 22 l 2,2 h 22 v -19 l -5,-5 z" />

        <path
   id="path152350"
   style="fill:#a8cbfe;fill-opacity:1;stroke:none;stroke-width:0.999995;stroke-dasharray:none"
   d="m 30.5,25.5 -5,5 v 19 h 22 l 2,-2 v -22 z" />

        <path
   id="path152352"
   style="fill:#cbbbe9;fill-opacity:1;stroke:none;stroke-width:0.999995;stroke-dasharray:none"
   d="m 25.5,0.5 v 19 l 5,5 h 19 v -22 l -2,-2 z" />

        <path
   id="path152354"
   style="fill:#f0b6d3;fill-opacity:1;stroke:none;stroke-width:0.999995;stroke-dasharray:none"
   d="m 2.5,0.5 -2,2 v 22 h 19 l 5,-5 v -19 z" />

        <path
   id="path152356"
   style="fill:#ffe9a6;stroke-width:1"
   d="m 17.5,37.5 c 0,2.761423 -2.238577,5 -5,5 -2.7614235,0 -5,-2.238577 -5,-5 0,-2.761424 2.2385765,-5 5,-5 2.761423,0 5,2.238576 5,5 z m 2.5,0 C 20,33.345004 16.654996,30 12.5,30 h -12 v 15 h 12 c 4.154996,0 7.5,-3.345004 7.5,-7.5 z"
   sodipodi:nodetypes="sssssssccss" />

        <path
   id="path152358"
   style="fill:#ea95bf;stroke-width:1"
   d="m 42.5,37.5 c 0,2.761423 -2.238577,5 -5,5 -2.761424,0 -5,-2.238577 -5,-5 0,-2.761424 2.238576,-5 5,-5 2.761423,0 5,2.238576 5,5 z M 37.5,30 C 33.345004,30 30,33.345004 30,37.5 v 12 h 15 v -12 C 45,33.345004 41.654996,30 37.5,30 Z"
   sodipodi:nodetypes="sssssssccss" />

        <path
   id="path152360"
   style="fill:#81b4fe;stroke-width:1"
   d="m 12.5,7.5 c 2.77,0 5,2.23 5,5 0,2.77 -2.23,5 -5,5 -2.77,0 -5,-2.23 -5,-5 0,-2.77 2.23,-5 5,-5 z m 0,12.5 C 16.654996,20 20,16.654996 20,12.5 V 0.5 H 5 v 12 c 0,4.154996 3.345004,7.5 7.5,7.5 z"
   sodipodi:nodetypes="sssssssccss" />

        <path
   id="path152362"
   style="fill:#8be3c9;stroke-width:1"
   d="m 42.5,12.5 c 0,2.761423 -2.238577,5 -5,5 -2.761424,0 -5,-2.238577 -5,-5 0,-2.7614235 2.238576,-5 5,-5 2.761423,0 5,2.2385765 5,5 z m -12.5,0 c 0,4.154996 3.345004,7.5 7.5,7.5 h 12 V 5 h -12 C 33.345004,5 30,8.345004 30,12.5 Z"
   sodipodi:nodetypes="sssssssccss" />

        <path
   style="fill:#81b4fe;fill-opacity:1;stroke:none;stroke-width:1;stroke-dasharray:none"
   d="m 25.5,30.5 h 5 v -5 z"
   id="path152364"
   sodipodi:nodetypes="cccc" />

        <path
   style="fill:#67dab8;fill-opacity:1;stroke:none;stroke-width:1;stroke-dasharray:none"
   d="m 24.5,30.5 h -5 v -5 z"
   id="path152366"
   sodipodi:nodetypes="cccc" />

        <path
   style="fill:#ea95bf;fill-opacity:1;stroke:none;stroke-width:1;stroke-dasharray:none"
   d="m 24.5,19.5 h -5 v 5 z"
   id="path152368"
   sodipodi:nodetypes="cccc" />

        <path
   style="fill:#b49ddf;fill-opacity:1;stroke:none;stroke-width:1;stroke-dasharray:none"
   d="m 25.5,19.5 h 5 v 5 z"
   id="path152370"
   sodipodi:nodetypes="cccc" />

        <path
   style="fill:#81b4fe;fill-opacity:1;stroke:none;stroke-width:1;stroke-dasharray:none"
   d="m 49.5,47.5 h -2 v 2 z"
   id="path153287"
   sodipodi:nodetypes="cccc" />

        <path
   style="fill:#67dab8;fill-opacity:1;stroke:none;stroke-width:1;stroke-dasharray:none"
   d="m 0.5,47.5 h 2 v 2 z"
   id="path154015"
   sodipodi:nodetypes="cccc" />

        <path
   style="fill:#ea95bf;fill-opacity:1;stroke:none;stroke-width:1;stroke-dasharray:none"
   d="m 0.5,2.5 h 2 v -2 z"
   id="path154155"
   sodipodi:nodetypes="cccc" />

        <path
   style="fill:#b49ddf;fill-opacity:1;stroke:none;stroke-width:1;stroke-dasharray:none"
   d="m 49.5,2.5 h -2 v -2 z"
   id="path154226"
   sodipodi:nodetypes="cccc" />

      </g>

    </pattern>
    <clipPath
       clipPathUnits="userSpaceOnUse"
       id="clipPath27">
      <rect
         style="fill:none;stroke:#000000;stroke-width:0.999999;stroke-linecap:butt;stroke-linejoin:bevel;paint-order:stroke markers fill;stop-color:#000000"
         id="rect28-6"
         width="46.160622"
         height="39.922417"
         x="86.574379"
         y="420.06253" />
    </clipPath>
    <clipPath
       clipPathUnits="userSpaceOnUse"
       id="clipPath33">
      <rect
         style="fill:#000000;stroke:none;stroke-width:0.999995;stroke-linecap:butt;stroke-linejoin:bevel;paint-order:stroke markers fill;stop-color:#000000"
         id="rect33"
         width="46.19186"
         height="80.006783"
         x="74.999985"
         y="399.99661" />
    </clipPath>
    <clipPath
       clipPathUnits="userSpaceOnUse"
       id="clipPath51">
      <path
         id="path51"
         style="stroke-width:0.0999999;stroke-linecap:square;paint-order:markers fill stroke;stop-color:#000000"
         d="m 1806.4991,-753.5228 h 1637.2646 v 66.90533 H 1806.4991 Z" />
    </clipPath>
    <inkscape:path-effect
       effect="spiro"
       id="path-effect62"
       is_visible="true"
       lpeversion="1" />
    <inkscape:path-effect
       effect="spiro"
       id="path-effect61"
       is_visible="true"
       lpeversion="1" />
    <inkscape:path-effect
       effect="spiro"
       id="path-effect60"
       is_visible="true"
       lpeversion="1" />
    <inkscape:path-effect
       effect="spiro"
       id="path-effect59"
       is_visible="true"
       lpeversion="1" />
    <inkscape:path-effect
       effect="spiro"
       id="path-effect58"
       is_visible="true"
       lpeversion="1" />
    <inkscape:path-effect
       effect="spiro"
       id="path-effect57"
       is_visible="true"
       lpeversion="1" />
    <linearGradient
       id="swatch16"
       inkscape:swatch="solid">
      <stop
         style="stop-color:#000000;stop-opacity:1;"
         offset="0"
         id="stop17" />
    </linearGradient>
    <linearGradient
       inkscape:collect="always"
       xlink:href="#swatch16"
       id="linearGradient17"
       x1="38.563679"
       y1="150.52632"
       x2="170.92535"
       y2="150.52632"
       gradientUnits="userSpaceOnUse"
       gradientTransform="translate(-38.598679,-84.380486)" />
  </defs>
  <g
     inkscape:groupmode="layer"
     id="layer2"
     inkscape:label="底层"
     style="display:inline">
    <path
       id="rect1"
       style="fill:#e76600;fill-opacity:0;stroke:url(#linearGradient17);stroke-width:0;stroke-linecap:round;stroke-linejoin:bevel;stroke-dasharray:none;paint-order:stroke fill markers"
       d="M 9.9999064,0 C 4.4599064,0 0,4.4599064 0,9.9999064 V 122.29176 c 0,5.54 4.4599064,9.99991 9.9999064,9.99991 H 122.29176 c 5.54,0 9.99991,-4.45991 9.99991,-9.99991 V 9.9999064 C 132.29167,4.4599064 127.83176,0 122.29176,0 Z M 59.876449,37.09541 c 0.836956,0.0074 1.464409,1.076278 0.809769,2.587439 -0.45605,1.05274 -0.860398,2.128022 -1.295011,3.189986 -0.50015,1.2076 -0.817702,2.476424 -1.191659,3.725354 -0.298894,1.043298 -0.566576,2.095796 -0.846976,3.144511 -0.249224,0.970224 -0.41387,1.958601 -0.65164,2.931604 -0.211407,0.843486 -0.395446,1.693597 -0.572058,2.545064 -0.209216,0.899572 -0.39279,1.802635 -0.571025,2.708879 -0.20744,0.971004 -0.53082,1.903527 -0.926558,2.811715 -0.135337,0.368729 -0.330388,0.711051 -0.515214,1.056266 -1.243715,2.322993 -3.59149,1.06533 -2.34611,-1.256771 0.15158,-0.282632 0.317755,-0.55785 0.421163,-0.863513 0.319448,-0.731852 0.58601,-1.479489 0.755509,-2.262394 0.180739,-0.914665 0.365758,-1.826462 0.575675,-2.734717 0.183252,-0.883472 0.375763,-1.76526 0.594279,-2.640666 0.24573,-0.989275 0.401474,-1.998028 0.664559,-2.98328 0.287603,-1.074516 0.561343,-2.15323 0.868681,-3.222026 0.400529,-1.330765 0.740477,-2.682655 1.278475,-3.968233 0.478652,-1.168455 0.908,-2.360018 1.44694,-3.502112 0.421688,-0.893619 0.999027,-1.271545 1.501201,-1.267106 z M 83.09777,59.505929 c 0.924335,-0.0023 1.554464,1.175392 0.649573,2.648933 -0.800211,1.303076 -1.9948,2.283001 -3.15588,3.248898 -1.360563,1.059318 -2.698383,2.141461 -3.955831,3.321761 -0.241785,0.195008 -0.472314,0.400923 -0.694531,0.614433 -0.102928,0.103548 -0.205296,0.207319 -0.307475,0.311608 -0.0249,0.02339 -0.04956,0.04685 -0.07441,0.07028 -0.488747,0.505699 -0.946268,1.04171 -1.41335,1.570447 -0.716163,0.90833 -1.429451,1.818343 -2.150773,2.722831 -0.551554,0.689288 -1.063441,1.404348 -1.628325,2.083077 -0.441356,0.540021 -0.91596,1.052711 -1.452107,1.499134 -0.413466,0.264386 -0.830563,0.522103 -1.256771,0.765328 -1.057045,0.603226 -1.907635,0.431696 -2.290817,-0.05529 -0.348829,0.369312 -0.691713,0.743177 -1.056266,1.098124 -1.887913,1.838177 -3.752393,-0.08931 -1.850533,-1.913061 0.465976,-0.446837 0.881997,-0.939335 1.338937,-1.395264 0.667744,-0.672512 1.32556,-1.358007 2.032434,-1.989543 0.961352,-0.767662 1.915542,-1.545907 2.899047,-2.284098 1.074912,-0.761546 2.190077,-1.478337 3.180168,-2.350761 0.615905,-0.51789 1.180175,-1.089863 1.769918,-1.636593 0.122898,-0.126737 0.247662,-0.251882 0.374654,-0.374654 0.605127,-0.608222 1.220125,-1.206443 1.81591,-1.824178 0.880043,-0.954716 1.727674,-1.941214 2.658236,-2.847888 0.530811,-0.517171 1.06124,-0.74008 1.507401,-0.752409 0.120058,-0.0033 0.233796,0.0085 0.340031,0.03411 0.45664,-0.439526 0.87443,-0.915302 1.204578,-1.463477 0.46731,-0.775918 1.032011,-1.10056 1.516186,-1.101741 z m 14.484387,18.913057 c 0.75569,0.01411 1.410847,0.865105 1.052133,2.303219 -0.413511,1.657795 -0.943042,3.282955 -1.416451,4.92373 -0.541817,1.762761 -1.138095,3.507958 -1.684135,5.269446 -0.374399,1.133008 -0.687987,2.284808 -1.040764,3.424597 -0.219655,0.849864 -0.542574,1.669194 -0.763261,2.518193 -0.182979,0.603698 -0.287954,1.225458 -0.377754,1.848466 -0.375922,2.608023 -3.015186,2.224333 -2.633948,-0.382923 0.105768,-0.723339 0.229041,-1.445248 0.438216,-2.147156 0.23688,-0.883082 0.557494,-1.740637 0.794267,-2.624129 0.353146,-1.140142 0.666367,-2.292303 1.04128,-3.42563 0.54151,-1.744703 1.129769,-3.474529 1.669149,-5.219837 0.470669,-1.627775 0.994665,-3.240754 1.405599,-4.88549 0.279436,-1.118424 0.927911,-1.613458 1.515669,-1.602486 z" />
  </g>
  <g
     inkscape:groupmode="layer"
     id="layer3"
     inkscape:label="中层">
    <g
       id="g63"
       inkscape:label="钥匙"
       transform="translate(-36.904762,-89.650448)"
       style="fill:url(#pattern98)">
      <path
         id="path60"
         style="fill:url(#pattern98);stroke-width:0;stroke-linecap:round;stroke-linejoin:bevel;stroke-dasharray:none;paint-order:fill markers stroke"
         d="m 70.203505,108.97537 -0.941028,0.1881 c -0.01717,0.0927 -0.06301,0.1798 -0.129708,0.2465 -0.0667,0.0667 -0.154264,0.11253 -0.247013,0.1297 -0.0793,0.0147 -0.160852,0.009 -0.240296,-0.005 -0.07944,-0.0139 -0.157288,-0.0359 -0.236161,-0.0527 -0.07887,-0.0168 -0.159858,-0.0285 -0.240295,-0.0227 -0.08044,0.006 -0.161127,0.0299 -0.224276,0.0801 -0.04499,0.0357 -0.07926,0.0835 -0.10697,0.13385 -0.02771,0.0503 -0.04915,0.10357 -0.07131,0.15657 -0.02216,0.053 -0.04562,0.10587 -0.077,0.154 -0.03137,0.0481 -0.07113,0.0917 -0.120923,0.12041 -0.04153,0.0239 -0.08876,0.0369 -0.136425,0.0418 -0.04767,0.005 -0.09611,0.002 -0.143661,-0.004 -0.0951,-0.0119 -0.188895,-0.0369 -0.284737,-0.0382 -0.100284,-0.001 -0.199338,0.0231 -0.293005,0.0589 -0.09367,0.0358 -0.182361,0.0828 -0.271302,0.12919 -0.953624,0.49698 -1.959951,0.90557 -3.011702,1.12965 -0.606741,0.12926 -1.224867,0.19662 -1.83348,0.31677 -0.608613,0.12015 -1.215624,0.29682 -1.742529,0.62425 -0.18072,0.11231 -0.350606,0.24114 -0.533818,0.34934 -0.183211,0.10819 -0.38338,0.19608 -0.595312,0.21497 -0.125043,0.0112 -0.251198,-0.002 -0.376721,0 -0.411529,0.006 -0.803416,0.17396 -1.165304,0.37 -0.361888,0.19605 -0.708382,0.4244 -1.092957,0.57103 -0.371129,0.1415 -0.771741,0.20449 -1.129646,0.37672 -0.407409,0.19605 -0.744976,0.53362 -0.941028,0.94103 -0.333032,0.36135 -0.713649,0.67861 -1.12913,0.94102 -0.267508,0.16896 -0.548981,0.31509 -0.813387,0.48886 -0.264406,0.17377 -0.5147,0.37854 -0.692464,0.64027 -0.157829,0.23239 -0.252675,0.50064 -0.376205,0.75293 -0.261622,0.53433 -0.649073,0.9945 -1.011824,1.46606 -0.362752,0.47156 -0.710203,0.97263 -0.870232,1.54564 -0.105406,0.37743 -0.125782,0.77216 -0.180867,1.16014 -0.05509,0.38798 -0.150972,0.78304 -0.383956,1.09812 -0.09385,0.12693 -0.207671,0.23769 -0.312126,0.35605 -0.104454,0.11836 -0.200985,0.24755 -0.252181,0.39688 -0.05125,0.1495 -0.05429,0.31111 -0.04237,0.4687 0.01191,0.15759 0.0382,0.31434 0.04237,0.47233 0.0132,0.49986 -0.190897,0.97773 -0.409794,1.4273 -0.218896,0.44957 -0.460655,0.90083 -0.53175,1.39578 -0.06252,0.43526 0.01096,0.87816 0,1.31775 -0.01598,0.64128 -0.210379,1.26238 -0.376205,1.88205 -0.190323,0.71123 -0.345031,1.43629 -0.374137,2.17197 -0.02911,0.73567 0.07158,1.48576 0.374137,2.15697 0.08241,0.18282 0.179163,0.35893 0.254765,0.54467 0.0756,0.18574 0.129893,0.3841 0.12144,0.58446 -0.0068,0.16053 -0.05344,0.31671 -0.07493,0.47594 -0.01074,0.0796 -0.01477,0.1606 -0.0047,0.24029 0.01012,0.0797 0.03483,0.15808 0.07958,0.2248 0.04967,0.074 0.121189,0.13019 0.190686,0.18603 0.0695,0.0558 0.139799,0.11446 0.186035,0.19069 0.0499,0.0823 0.06831,0.18026 0.06718,0.27647 -0.0011,0.0962 -0.02074,0.1915 -0.04237,0.28525 -0.02164,0.0937 -0.0457,0.18746 -0.05529,0.28319 -0.0096,0.0957 -0.0042,0.19448 0.03049,0.28422 0.0411,0.10631 0.12048,0.19252 0.195854,0.27802 0.07537,0.0855 0.150232,0.17688 0.18035,0.2868 0.03334,0.12168 0.0074,0.25026 0,0.37621 -0.01476,0.25178 0.04645,0.50332 0.141594,0.7369 0.09514,0.23359 0.223841,0.45154 0.350366,0.66973 0.126525,0.21819 0.252275,0.43863 0.340548,0.67489 0.08827,0.23627 0.137973,0.49107 0.10852,0.74156 -0.0074,0.0631 -0.01943,0.12574 -0.02377,0.18914 -0.0043,0.0634 -6.33e-4,0.12891 0.02377,0.18758 0.03441,0.0827 0.105272,0.14387 0.176734,0.19792 0.07146,0.0541 0.147737,0.1055 0.199987,0.17829 0.03815,0.0531 0.06186,0.11555 0.07648,0.17931 0.01462,0.0638 0.02019,0.12909 0.02532,0.19431 0.01026,0.13042 0.01953,0.26679 0.0863,0.3793 0.04548,0.0766 0.114425,0.13586 0.183451,0.19224 0.06903,0.0564 0.140088,0.11207 0.192753,0.18397 0.059,0.0805 0.09164,0.17752 0.115755,0.2744 0.02411,0.0969 0.04106,0.19579 0.07286,0.29042 0.08611,0.25624 0.277014,0.46437 0.485758,0.63614 0.208745,0.17176 0.43972,0.31522 0.643372,0.49299 0.369818,0.32282 0.635772,0.7452 0.941028,1.12965 0.734362,0.92487 1.720245,1.64775 2.823083,2.07015 0.707295,0.0978 1.379428,0.43388 1.882056,0.94103 0.187587,0.18927 0.35343,0.40257 0.564823,0.56482 0.302658,0.23231 0.6778,0.34467 1.042314,0.45734 0.364514,0.11267 0.737765,0.23586 1.027844,0.48369 0.134969,0.11531 0.247901,0.25407 0.376722,0.37621 0.362347,0.34355 0.842421,0.54268 1.331701,0.64234 0.489281,0.0996 0.992073,0.1065 1.491382,0.11058 2.3855,0.0195 4.775447,-0.019 7.152018,0.18811 0.526399,0.0459 1.056468,0.10368 1.581816,0.047 0.525348,-0.0566 1.054934,-0.23903 1.429887,-0.61133 0.06298,-0.0625 0.121125,-0.13039 0.188102,-0.18862 0.161121,-0.14008 0.366703,-0.2208 0.576192,-0.262 0.209489,-0.0412 0.424189,-0.0448 0.637687,-0.046 0.213499,-0.001 0.42814,-6.1e-4 0.639238,-0.0326 0.211098,-0.0319 0.420961,-0.0984 0.593762,-0.22376 0.09272,-0.0673 0.172674,-0.15036 0.261483,-0.22272 0.08881,-0.0724 0.189739,-0.13567 0.302824,-0.154 0.09365,-0.0152 0.189089,0.001 0.283187,0.0134 0.0941,0.0121 0.192601,0.0193 0.281636,-0.0134 0.06347,-0.0234 0.118659,-0.0658 0.164848,-0.11524 0.04619,-0.0494 0.08405,-0.1059 0.12144,-0.16226 0.03739,-0.0564 0.07425,-0.11298 0.118855,-0.16382 0.04461,-0.0508 0.09781,-0.0957 0.15968,-0.12299 0.0666,-0.0294 0.140193,-0.0371 0.209807,-0.0584 0.03481,-0.0107 0.0691,-0.0253 0.0987,-0.0465 0.0296,-0.0212 0.05454,-0.0498 0.0677,-0.0837 0.01147,-0.0296 0.01331,-0.0619 0.01137,-0.0935 -0.0019,-0.0317 -0.0075,-0.0631 -0.01137,-0.0946 -0.01695,-0.13881 0.0052,-0.2822 0.06356,-0.40927 0.05838,-0.12708 0.152879,-0.23714 0.269234,-0.31471 0.116355,-0.0776 0.25454,-0.12212 0.394291,-0.12713 0.139751,-0.005 0.280431,0.0291 0.402043,0.0982 0.517377,0.32028 1.16365,0.42565 1.755965,0.28629 0.592315,-0.13937 1.12356,-0.52184 1.44384,-1.03922 0.07394,-0.11944 0.136912,-0.24538 0.188102,-0.3762 0.763431,-0.097 1.495083,-0.42963 2.070158,-0.94103 0.250487,-0.22275 0.4711,-0.47698 0.707967,-0.71417 0.236867,-0.23718 0.494694,-0.46062 0.797884,-0.60358 0.127128,-0.0599 0.262718,-0.10589 0.376721,-0.1881 0.150043,-0.1082 0.251524,-0.27078 0.331246,-0.4377 0.07972,-0.16692 0.141447,-0.34262 0.233061,-0.50333 0.221751,-0.38898 0.598162,-0.66039 0.958598,-0.92604 0.360435,-0.26565 0.728725,-0.55282 0.923457,-0.95601 0.105059,-0.21753 0.153599,-0.45739 0.222726,-0.68885 0.06913,-0.23146 0.165076,-0.46402 0.342098,-0.62839 0.103436,-0.096 0.230033,-0.1643 0.359668,-0.22014 0.129635,-0.0558 0.263702,-0.10056 0.393257,-0.15658 0.654506,-0.28301 1.161995,-0.84903 1.463994,-1.495 0.301999,-0.64596 0.411959,-1.36796 0.418062,-2.08101 0.0011,-0.13282 -0.0013,-0.26656 0.0217,-0.39739 0.02299,-0.13082 0.07351,-0.26059 0.166398,-0.35553 0.0796,-0.0814 0.18455,-0.1319 0.286288,-0.18294 0.05396,-0.0271 0.108488,-0.0553 0.158646,-0.0889 0.145487,-0.54808 0.293442,-1.09541 0.450102,-1.64021 0.246818,-0.82006 0.470409,-1.64829 0.731738,-2.46393 -0.0053,-0.42616 -0.0064,-0.8515 0.06718,-1.27021 0.137554,-0.78266 0.528434,-1.49648 0.752925,-2.25878 0.429015,-1.45677 0.234124,-3.01655 0,-4.51703 -0.06184,-0.39634 -0.133313,-0.8099 -0.376204,-1.12913 -0.176252,-0.23166 -0.427432,-0.39241 -0.670243,-0.55294 -0.242812,-0.16053 -0.489202,-0.33244 -0.647506,-0.57671 -0.07637,-0.11785 -0.129507,-0.24858 -0.188102,-0.3762 -0.580912,-1.26525 -1.688428,-2.20444 -2.823084,-3.01119 -0.255759,-0.18185 -0.515301,-0.35985 -0.752925,-0.56482 -0.911589,-0.78635 -1.441294,-1.91174 -2.070158,-2.93833 -0.314432,-0.51329 -0.661772,-1.01198 -1.094507,-1.4304 -0.432735,-0.41842 -0.956944,-0.75555 -1.540991,-0.90124 -0.310534,-0.0775 -0.633333,-0.10004 -0.941028,-0.1881 -0.271284,-0.0776 -0.527525,-0.20628 -0.752409,-0.37672 -0.0196,-0.0917 -0.06648,-0.17758 -0.132808,-0.24391 -0.06633,-0.0663 -0.152177,-0.11269 -0.243913,-0.13229 -0.09235,-0.0197 -0.188116,-0.0123 -0.282153,-0.004 -0.09404,0.009 -0.189408,0.0185 -0.282671,0.004 -0.09132,-0.0145 -0.177553,-0.0523 -0.256315,-0.10077 -0.07876,-0.0485 -0.150571,-0.10771 -0.221175,-0.16743 -0.141207,-0.11945 -0.285482,-0.24661 -0.463537,-0.29663 -0.121367,-0.0341 -0.249586,-0.0296 -0.375171,-0.0186 -0.125586,0.011 -0.251538,0.0282 -0.377238,0.0186 -0.212125,-0.0162 -0.411931,-0.10764 -0.593762,-0.21807 -0.181832,-0.11043 -0.351177,-0.24068 -0.535885,-0.34623 -0.424651,-0.24267 -0.91352,-0.34486 -1.39578,-0.42633 -0.482261,-0.0815 -0.972328,-0.14712 -1.427304,-0.3266 -0.391691,-0.15451 -0.746259,-0.38959 -1.12913,-0.56482 -0.529734,-0.24245 -1.111436,-0.36777 -1.693953,-0.37621 -0.313774,-0.005 -0.628165,0.0243 -0.941028,0 -0.628112,-0.0488 -1.236807,-0.31942 -1.693953,-0.75292 z" />
      <path
         id="path61"
         style="fill:url(#pattern98);stroke-width:0;stroke-linecap:round;stroke-linejoin:bevel;stroke-dasharray:none;paint-order:fill markers stroke"
         d="m 92.036281,135.13759 -13.363526,14.49163 c 0.886708,-0.18004 1.834152,-0.0444 2.634981,0.37672 0.124251,0.0653 0.245822,0.13738 0.376722,0.1881 0.3751,0.14534 0.798094,0.10212 1.185974,-0.004 0.387879,-0.10665 0.757081,-0.27424 1.145666,-0.37828 0.388586,-0.10404 0.813356,-0.14099 1.185458,0.0119 0.18605,0.0764 0.354439,0.20091 0.470255,0.36535 0.115817,0.16445 0.17656,0.36967 0.153479,0.56948 -0.0036,0.0315 -0.0095,0.0629 -0.01137,0.0946 -0.0019,0.0317 2.24e-4,0.0644 0.01137,0.094 0.0183,0.0488 0.06012,0.0859 0.107487,0.10749 0.04737,0.0216 0.09993,0.0292 0.151929,0.032 0.052,0.003 0.104199,0.001 0.156063,0.006 0.05186,0.005 0.104027,0.0163 0.148828,0.0429 0.04433,0.0263 0.07964,0.0664 0.104386,0.11162 0.02475,0.0452 0.03926,0.095 0.04858,0.14573 0.01863,0.10135 0.01569,0.20576 0.03514,0.30696 0.02743,0.14273 0.100465,0.27645 0.205672,0.37672 0.105207,0.10028 0.242145,0.16704 0.386023,0.18759 0.143878,0.0206 0.294155,-0.005 0.42323,-0.0718 0.129075,-0.0668 0.236524,-0.17452 0.302824,-0.30386 0.111791,0.0862 0.240175,0.15039 0.376204,0.1881 0.06783,0.0188 0.136669,0.0307 0.206189,0.0377 -0.235002,-0.44436 -0.234108,-1.1203 0.196888,-1.92392 0.15158,-0.28264 0.317755,-0.55784 0.421163,-0.86351 0.319448,-0.73185 0.58601,-1.4795 0.755509,-2.2624 0.180739,-0.91467 0.365758,-1.82645 0.575675,-2.73471 0.183252,-0.88347 0.375763,-1.76527 0.594279,-2.64067 0.24573,-0.98928 0.401474,-1.99802 0.664559,-2.98328 0.287603,-1.07451 0.561343,-2.15322 0.868681,-3.22202 0.01408,-0.0468 0.02791,-0.0937 0.04186,-0.14056 -0.187942,-0.0656 -0.374471,-0.13398 -0.560172,-0.20568 z m 3.129008,0.90589 c -0.02018,0.0685 -0.0405,0.13678 -0.06098,0.20516 -0.298894,1.0433 -0.566576,2.09579 -0.846976,3.14451 -0.249224,0.97022 -0.41387,1.9586 -0.65164,2.9316 -0.211407,0.84349 -0.395446,1.6936 -0.572058,2.54507 -0.209216,0.89957 -0.39279,1.80263 -0.571025,2.70888 -0.20744,0.971 -0.53082,1.90352 -0.926558,2.81171 -0.135337,0.36873 -0.330388,0.71105 -0.515214,1.05627 -0.184684,0.34495 -0.393856,0.61087 -0.611849,0.80615 0.161796,0.0791 0.322896,0.1598 0.497644,0.19947 0.188028,0.0427 0.383619,0.0359 0.576192,0.0455 0.192573,0.01 0.39134,0.0388 0.553455,0.14315 0.0954,0.0614 0.173656,0.14612 0.241328,0.23719 0.06767,0.0911 0.125545,0.18905 0.188103,0.28371 0.06256,0.0947 0.130458,0.18675 0.214457,0.26303 0.084,0.0763 0.185572,0.13645 0.297139,0.1571 0.123641,0.0229 0.250505,-0.003 0.376205,0 0.241004,0.006 0.465844,0.1191 0.673344,0.24184 0.2075,0.12274 0.411715,0.2594 0.644405,0.32246 0.215904,0.0585 0.442979,0.0498 0.666626,0.0543 0.223647,0.004 0.455222,0.0249 0.650606,0.13385 0.137981,0.0769 0.248835,0.19342 0.363285,0.3023 0.114451,0.10889 0.239141,0.21451 0.389641,0.26252 0.0939,0.0299 0.193969,0.0361 0.292488,0.0331 0.09852,-0.003 0.196616,-0.015 0.295073,-0.0196 0.09846,-0.005 0.198264,-0.002 0.293522,0.0233 0.09526,0.0253 0.186024,0.0748 0.248047,0.15141 0.04765,0.0589 0.07657,0.13199 0.08527,0.20722 0.0087,0.0752 -0.0025,0.15249 -0.02946,0.22325 -0.054,0.1415 -0.168716,0.25435 -0.301273,0.32762 -0.132558,0.0733 -0.282201,0.11004 -0.432015,0.1323 -0.149815,0.0223 -0.301549,0.0304 -0.451652,0.0506 -0.836052,0.11262 -1.608189,0.61188 -2.070158,1.31775 -0.282021,0.43091 -0.453175,0.94257 -0.435632,1.45727 0.01754,0.5147 0.234152,1.02899 0.623734,1.36581 0.237624,0.20545 0.531406,0.34211 0.752926,0.56482 0.259195,0.2606 0.395966,0.6143 0.564306,0.94103 0.480513,0.93262 1.268019,1.70214 2.207617,2.16886 0.939599,0.46673 2.026017,0.6295 3.062347,0.46612 0.0941,-0.0148 0.18853,-0.0322 0.2837,-0.0372 0.0952,-0.005 0.19225,0.003 0.28112,0.0372 0.0301,0.0117 0.0586,0.0266 0.0858,0.0434 0.20951,-0.20216 0.42217,-0.40138 0.63923,-0.59531 0.96135,-0.76766 1.91555,-1.54591 2.89905,-2.2841 1.07491,-0.76155 2.19008,-1.47834 3.18017,-2.35076 0.61618,-0.51812 1.18092,-1.09016 1.77095,-1.63711 0.12192,-0.12571 0.2456,-0.24974 0.37155,-0.37155 0.60585,-0.609 1.22146,-1.20827 1.81798,-1.82676 0.76004,-0.82454 1.49604,-1.67267 2.28203,-2.47272 -0.1647,-0.0973 -0.33015,-0.2039 -0.43615,-0.36225 -0.0781,-0.1167 -0.11857,-0.25419 -0.1881,-0.37621 -0.13519,-0.23725 -0.37023,-0.40014 -0.60978,-0.53123 -0.23954,-0.13109 -0.49341,-0.24023 -0.70745,-0.4098 -0.28203,-0.22344 -0.47596,-0.53621 -0.69092,-0.82475 -0.10749,-0.14427 -0.22228,-0.28433 -0.35605,-0.40463 -0.13378,-0.12029 -0.28785,-0.22068 -0.45888,-0.27647 -0.13897,-0.0453 -0.28667,-0.0606 -0.4253,-0.10697 -0.0693,-0.0232 -0.13624,-0.0543 -0.1943,-0.0987 -0.0581,-0.0444 -0.10686,-0.1024 -0.13333,-0.17053 -0.0376,-0.0969 -0.0284,-0.20463 -0.0393,-0.30799 -0.005,-0.0517 -0.0161,-0.1036 -0.0398,-0.14986 -0.0237,-0.0463 -0.0611,-0.0869 -0.10904,-0.10698 -0.0293,-0.0122 -0.0613,-0.0163 -0.093,-0.016 -0.0317,3.1e-4 -0.0633,0.005 -0.0946,0.0103 -0.0626,0.0105 -0.12797,0.0233 -0.18913,0.006 -0.0519,-0.0144 -0.0963,-0.0497 -0.12764,-0.0935 -0.0314,-0.0438 -0.05,-0.0958 -0.0594,-0.14883 -0.0189,-0.10606 -0.003,-0.21475 -0.001,-0.32246 0.006,-0.34615 -0.14263,-0.68248 -0.36071,-0.95136 -0.21809,-0.26888 -0.5023,-0.47675 -0.79736,-0.65785 -0.29506,-0.18109 -0.60419,-0.33857 -0.89556,-0.52555 -0.29137,-0.18698 -0.56794,-0.40682 -0.76946,-0.68833 -0.2132,-0.29784 -0.33617,-0.65486 -0.56482,-0.94102 -0.25176,-0.31508 -0.61156,-0.5203 -0.94103,-0.75293 -1.0962,-0.77401 -1.89602,-1.89105 -2.63498,-3.01118 -0.32072,-0.48616 -0.64703,-0.99095 -1.12913,-1.31775 -0.22625,-0.15337 -0.47943,-0.26176 -0.71675,-0.3974 -0.23732,-0.13564 -0.46533,-0.30604 -0.60048,-0.54363 -0.0694,-0.12204 -0.11259,-0.25818 -0.18862,-0.37621 -0.0751,-0.11659 -0.1806,-0.21183 -0.29921,-0.2837 -0.1186,-0.0719 -0.250215,-0.1213 -0.384471,-0.15606 -0.268512,-0.0695 -0.547703,-0.0817 -0.821656,-0.12506 -1.061591,-0.16801 -1.991558,-0.79074 -3.011702,-1.12913 -0.270076,-0.0896 -0.545801,-0.15889 -0.823206,-0.22272 z m 22.177971,19.12958 -5.1e-4,0.001 c -1.30764,1.02121 -2.59223,2.06598 -3.80236,3.20187 -0.24146,0.19475 -0.47155,0.40019 -0.69349,0.6134 -0.10322,0.10384 -0.20605,0.20806 -0.30851,0.31264 -0.025,0.0235 -0.0499,0.0472 -0.0749,0.0708 -0.48859,0.50557 -0.94588,1.04134 -1.41284,1.56993 -0.71616,0.90833 -1.42945,1.81834 -2.15077,2.72283 -0.55155,0.68929 -1.06344,1.40435 -1.62832,2.08308 -0.35815,0.4382 -0.73844,0.8583 -1.15549,1.23971 0.82525,0.39108 1.60804,0.86311 2.29443,1.46245 0.30325,0.26478 0.58993,0.55545 0.94103,0.7524 0.16067,0.0901 0.33275,0.1592 0.49713,0.24237 0.16438,0.0832 0.32365,0.1829 0.4439,0.32246 0.13442,0.156 0.21397,0.35994 0.21549,0.56586 0.002,0.20591 -0.076,0.41181 -0.21549,0.56327 -0.15392,0.16709 -0.3694,0.26 -0.56431,0.37672 -0.36311,0.21745 -0.66188,0.52526 -0.95188,0.83354 -0.28999,0.30828 -0.57924,0.62381 -0.93017,0.86041 -0.1308,0.0882 -0.26916,0.1648 -0.40049,0.25218 -0.13134,0.0874 -0.25696,0.18655 -0.35244,0.31213 -0.17018,0.22385 -0.23219,0.51171 -0.37672,0.75293 -0.11649,0.19441 -0.28558,0.35708 -0.3762,0.56482 -0.0641,0.14684 -0.0853,0.30965 -0.0791,0.46974 0.006,0.16008 0.0392,0.31832 0.0796,0.47335 0.0808,0.31007 0.1929,0.61859 0.18759,0.93896 -10e-4,0.0628 -0.007,0.12567 0,0.18811 0.0138,0.13015 0.0819,0.25218 0.17983,0.33899 0.0979,0.0868 0.2242,0.13915 0.35399,0.15607 0.12978,0.0169 0.26288,-3.6e-4 0.38705,-0.0419 0.12417,-0.0414 0.23986,-0.10596 0.34572,-0.18294 0.21171,-0.15395 0.38382,-0.35507 0.56431,-0.54467 0.18048,-0.18959 0.37634,-0.37318 0.61598,-0.47852 0.23274,-0.10231 0.49209,-0.12447 0.74621,-0.13229 0.25411,-0.008 0.51099,-0.003 0.75964,-0.0558 0.37282,-0.0795 0.70498,-0.28399 1.03094,-0.48163 0.32597,-0.19763 0.66344,-0.39537 1.03922,-0.4594 0.41677,-0.071 0.84394,0.0292 1.24385,0.1664 0.39991,0.13717 0.78905,0.31259 1.20303,0.39842 0.61793,0.12813 1.25896,0.051 1.88102,-0.0553 0.62206,-0.10628 1.24489,-0.24197 1.87585,-0.22996 0.31548,0.006 0.63208,0.0495 0.93121,0.14986 0.29914,0.10042 0.581,0.25905 0.80771,0.47853 0.2267,0.21947 0.39648,0.50155 0.46405,0.80977 0.0676,0.30821 0.0286,0.64194 -0.12557,0.91725 -0.17454,0.3117 -0.47622,0.52634 -0.75241,0.75293 -0.243,0.19935 -0.47531,0.41746 -0.75293,0.56482 -0.26222,0.13919 -0.55504,0.20958 -0.84543,0.2713 -0.29038,0.0617 -0.58409,0.11624 -0.85937,0.22738 -0.27529,0.11113 -0.53478,0.28539 -0.69247,0.53692 -0.0788,0.12576 -0.13075,0.26954 -0.14211,0.41754 -0.0114,0.148 0.0187,0.3001 0.0925,0.42892 0.0675,0.11794 0.17011,0.21405 0.28681,0.2837 0.1167,0.0696 0.24703,0.11359 0.38033,0.14004 0.26661,0.0529 0.54166,0.0365 0.81339,0.0429 0.27173,0.006 0.55244,0.0386 0.78652,0.17673 0.11703,0.0691 0.22003,0.16467 0.28835,0.28215 0.0683,0.11748 0.10046,0.25743 0.0796,0.39171 -0.0204,0.13077 -0.0903,0.25127 -0.18603,0.34261 -0.0958,0.0913 -0.21638,0.15467 -0.34313,0.19276 -0.25351,0.0762 -0.52505,0.0543 -0.78859,0.0294 -0.12538,-0.0118 -0.25259,-0.0241 -0.3762,0 -0.13864,0.027 -0.26632,0.0994 -0.37052,0.19482 -0.1042,0.0954 -0.18605,0.21315 -0.25218,0.33797 -0.13226,0.24963 -0.20278,0.52665 -0.31833,0.78444 -0.20185,0.45035 -0.53608,0.83017 -0.90537,1.15756 -0.36929,0.32738 -0.77632,0.60873 -1.16479,0.91312 -0.23661,0.18541 -0.47293,0.38708 -0.60874,0.65526 -0.0679,0.13409 -0.10882,0.2833 -0.10542,0.43356 0.003,0.15027 0.053,0.30115 0.14934,0.41651 0.10592,0.12682 0.26296,0.20491 0.4253,0.23565 0.16234,0.0307 0.33042,0.0172 0.49247,-0.015 0.32411,-0.0645 0.63425,-0.20407 0.96429,-0.22066 0.35119,-0.0177 0.6947,0.10586 1.01079,0.25994 0.31609,0.15407 0.61742,0.34119 0.94671,0.46457 0.32929,0.12337 0.69942,0.17918 1.03146,0.0636 0.16602,-0.0579 0.31851,-0.15866 0.42685,-0.29714 0.10833,-0.13848 0.17027,-0.3154 0.1602,-0.49093 -0.004,-0.063 -0.0161,-0.12712 0,-0.1881 0.0138,-0.0524 0.0485,-0.098 0.092,-0.13022 0.0435,-0.0322 0.0956,-0.0516 0.14883,-0.0615 0.10648,-0.0198 0.21589,-0.003 0.32401,0.004 0.27195,0.0155 0.54497,-0.0392 0.79943,-0.13643 0.25446,-0.0972 0.49107,-0.23617 0.71469,-0.39171 0.44723,-0.31109 0.84623,-0.69018 1.30896,-0.97771 0.77831,-0.48362 1.72685,-0.68655 2.63498,-0.56431 0.44519,0.002 0.8908,-0.0625 1.31775,-0.18862 0.38064,-0.11242 0.74572,-0.27367 1.12913,-0.37621 0.0881,-0.0236 0.17669,-0.0439 0.26562,-0.0615 0.14579,-0.45544 0.29263,-0.91077 0.41651,-1.37304 0.35315,-1.14014 0.66637,-2.29231 1.04128,-3.42563 0.54151,-1.74471 1.12977,-3.47453 1.66915,-5.21984 0.47067,-1.62777 0.99467,-3.24075 1.4056,-4.88549 0.27944,-1.11842 0.92791,-1.61346 1.51567,-1.60249 0.75569,0.0141 1.41085,0.86511 1.05213,2.30322 -0.41351,1.6578 -0.94304,3.28296 -1.41645,4.92373 -0.54182,1.76276 -1.13809,3.50796 -1.68413,5.26945 -0.3744,1.13301 -0.68799,2.28481 -1.04077,3.4246 -0.0415,0.16042 -0.0864,0.31987 -0.13384,0.47852 0.0993,-0.005 0.19825,-0.0109 0.29714,-0.0196 0.28347,-0.025 0.56491,-0.0694 0.84904,-0.0853 0.28414,-0.0159 0.57416,-0.002 0.84491,0.0853 0.22834,0.0739 0.43632,0.19813 0.64751,0.31213 0.21118,0.11401 0.43193,0.21977 0.66973,0.25218 0.34235,0.0467 0.68565,-0.0633 1.03094,-0.0754 0.17265,-0.006 0.34942,0.0132 0.50643,0.0853 0.0785,0.036 0.15126,0.0852 0.21136,0.14728 0.0601,0.062 0.10728,0.13726 0.13332,0.21962 0.0501,0.15832 0.0191,0.3345 -0.0579,0.48162 -0.077,0.14712 -0.19658,0.26802 -0.32556,0.37259 -0.12898,0.10456 -0.26877,0.19502 -0.40049,0.29611 -0.13173,0.10109 -0.2567,0.21503 -0.3452,0.35553 -0.0751,0.11923 -0.12179,0.25376 -0.17311,0.38499 -0.0513,0.13124 -0.1092,0.26235 -0.20309,0.36742 -0.11461,0.12825 -0.27465,0.20836 -0.43874,0.25993 -0.16408,0.0516 -0.33532,0.0777 -0.50281,0.11679 -0.28289,0.0661 -0.56275,0.17304 -0.78186,0.3638 -0.10956,0.0954 -0.20273,0.21143 -0.2651,0.34262 -0.0624,0.13119 -0.0935,0.27789 -0.0822,0.42271 0.01,0.12695 0.0529,0.25084 0.11989,0.35915 0.067,0.1083 0.15768,0.20108 0.26252,0.27337 0.20967,0.14459 0.471,0.2044 0.72553,0.19534 0.25454,-0.009 0.50337,-0.0835 0.73536,-0.18862 0.23199,-0.10512 0.44855,-0.24066 0.66353,-0.37724 0.42995,-0.27314 0.8775,-0.5611 1.38441,-0.61133 0.25345,-0.0251 0.51707,0.0139 0.73949,0.13798 0.22241,0.1241 0.39935,0.33869 0.45113,0.58807 0.036,0.17359 0.0108,0.35738 -0.0589,0.52038 -0.0697,0.163 -0.18239,0.30561 -0.31729,0.42065 -0.2113,0.1802 -0.4718,0.2923 -0.69815,0.4532 -0.11317,0.0804 -0.21867,0.174 -0.29817,0.28784 -0.0795,0.11384 -0.13219,0.24925 -0.13333,0.38809 -7.9e-4,0.0966 0.0236,0.19287 0.0672,0.27905 0.0436,0.0862 0.10637,0.1623 0.18087,0.22376 0.14899,0.12291 0.34199,0.18535 0.53485,0.19586 0.19286,0.0105 0.38605,-0.0284 0.56896,-0.0904 0.18291,-0.062 0.35666,-0.14722 0.5302,-0.23202 0.20389,-0.0996 0.40883,-0.19943 0.62476,-0.26924 0.21594,-0.0698 0.44479,-0.10908 0.67025,-0.0832 0.22545,0.0259 0.44776,0.12093 0.60151,0.28784 0.0769,0.0835 0.13592,0.184 0.16743,0.29301 0.0315,0.109 0.0357,0.22655 0.007,0.33641 -0.0285,0.11052 -0.0883,0.21073 -0.1571,0.30179 -0.0688,0.0911 -0.1475,0.17455 -0.21962,0.26303 -0.19836,0.24334 -0.34841,0.52448 -0.56431,0.75241 -0.14094,0.1488 -0.30713,0.27171 -0.45165,0.41703 -0.14452,0.14532 -0.27048,0.3219 -0.30128,0.52452 -0.0239,0.15699 0.0112,0.31577 0.0346,0.47284 0.0117,0.0785 0.0205,0.15785 0.0176,0.23719 -0.003,0.0794 -0.0181,0.15929 -0.0522,0.23099 -0.0152,0.032 -0.0343,0.0627 -0.0398,0.0977 -0.003,0.0175 -0.002,0.0362 0.004,0.0527 0.007,0.0165 0.0194,0.0308 0.0357,0.0377 0.0111,0.005 0.0237,0.006 0.0357,0.004 0.0119,-0.002 0.0236,-0.007 0.0336,-0.0134 0.0199,-0.0137 0.0351,-0.0347 0.046,-0.0563 0.0108,-0.0216 0.0171,-0.0446 0.0279,-0.0662 0.0109,-0.0216 0.026,-0.0422 0.046,-0.0558 0.0138,-0.009 0.0295,-0.0151 0.046,-0.0176 0.0165,-0.002 0.0332,-0.002 0.0496,5.2e-4 0.0329,0.005 0.0645,0.019 0.0956,0.031 0.0311,0.012 0.0623,0.0229 0.0956,0.0233 0.0166,2e-4 0.0336,-0.002 0.0491,-0.008 0.0155,-0.006 0.03,-0.0158 0.0403,-0.0289 0.01,-0.0128 0.0158,-0.0285 0.0186,-0.0444 0.003,-0.016 0.003,-0.0325 5.2e-4,-0.0486 -0.004,-0.0322 -0.0136,-0.0635 -0.0186,-0.0956 -0.0106,-0.0678 0.005,-0.13827 0.0388,-0.19792 0.0339,-0.0597 0.086,-0.10826 0.14625,-0.14108 0.12052,-0.0656 0.26783,-0.0676 0.40049,-0.0325 0.13266,0.0352 0.25335,0.10474 0.37052,0.17621 0.11717,0.0715 0.23362,0.14612 0.36173,0.19534 0.29565,0.11358 0.62519,0.0797 0.93845,0.0331 0.31326,-0.0466 0.63499,-0.10416 0.94361,-0.0331 0.234,0.054 0.44477,0.17875 0.65371,0.29714 0.20894,0.11839 0.42623,0.23421 0.66404,0.26768 0.22664,0.0319 0.4559,-0.0134 0.68471,-0.0191 0.11441,-0.003 0.23041,0.005 0.34055,0.0357 0.11014,0.0311 0.21474,0.0871 0.29197,0.17157 0.0856,0.0935 0.13332,0.21907 0.13901,0.34571 0.006,0.12664 -0.0293,0.25398 -0.0935,0.36329 -0.0642,0.10932 -0.15676,0.20088 -0.26252,0.27078 -0.10576,0.0699 -0.2249,0.11872 -0.34778,0.14986 -0.1426,0.0361 -0.29094,0.0496 -0.42995,0.0977 -0.0695,0.0241 -0.13657,0.0571 -0.19379,0.10336 -0.0572,0.0462 -0.10397,0.10641 -0.12867,0.17569 -0.0213,0.0597 -0.0257,0.1243 -0.0222,0.18759 0.003,0.0633 0.0144,0.12572 0.0222,0.18862 0.0467,0.37596 -0.0133,0.75618 -0.0548,1.13275 -0.0415,0.37656 -0.0633,0.76606 0.0548,1.12603 0.13145,0.40064 0.42542,0.731 0.56431,1.12913 0.11651,0.33399 0.11711,0.69522 0.13487,1.04851 0.0178,0.35329 0.0585,0.71963 0.24185,1.02216 0.0467,0.0771 0.10562,0.1517 0.1881,0.1881 0.0608,0.0268 0.12981,0.0301 0.19534,0.0191 0.0655,-0.011 0.12812,-0.036 0.1881,-0.0646 0.11995,-0.0572 0.23716,-0.13096 0.36948,-0.14315 0.12968,-0.012 0.25605,0.037 0.38344,0.0641 0.0637,0.0135 0.12914,0.0217 0.19379,0.014 0.0647,-0.008 0.1289,-0.0322 0.1757,-0.0775 0.0508,-0.0492 0.0774,-0.11808 0.10025,-0.185 0.0228,-0.0669 0.0442,-0.13612 0.0879,-0.19172 0.0512,-0.0652 0.12948,-0.10558 0.21084,-0.12144 0.0814,-0.0159 0.16583,-0.008 0.24702,0.008 0.16236,0.0335 0.31757,0.10536 0.48317,0.11317 0.121,0.006 0.24179,-0.0239 0.35347,-0.0708 0.11167,-0.0469 0.2149,-0.11091 0.31626,-0.17725 0.2027,-0.13267 0.40812,-0.27902 0.6475,-0.31626 0.18761,-0.0292 0.38079,0.0118 0.56844,-0.0171 0.0938,-0.0145 0.18694,-0.0476 0.2589,-0.10955 0.036,-0.031 0.0665,-0.0687 0.0868,-0.11162 0.0203,-0.0429 0.0301,-0.0911 0.0269,-0.13849 -0.002,-0.0319 -0.01,-0.0633 -0.0134,-0.0951 -0.004,-0.0318 -0.002,-0.0652 0.0134,-0.093 0.0131,-0.023 0.0357,-0.0404 0.0605,-0.0496 0.0248,-0.009 0.0518,-0.01 0.078,-0.007 0.0524,0.007 0.0994,0.0345 0.14521,0.061 0.0458,0.0265 0.0936,0.0534 0.14625,0.0589 0.0263,0.003 0.0537,-8e-4 0.078,-0.0114 0.0243,-0.0105 0.0455,-0.0289 0.0568,-0.0527 0.0138,-0.0286 0.0124,-0.0615 0.009,-0.093 -0.004,-0.0315 -0.0108,-0.0634 -0.009,-0.0951 0.003,-0.0362 0.0189,-0.0709 0.0429,-0.0982 0.024,-0.0273 0.0557,-0.0469 0.0899,-0.0589 0.0685,-0.0241 0.14467,-0.0166 0.21394,0.005 0.0693,0.0218 0.13385,0.0573 0.19947,0.0884 0.0656,0.0311 0.13429,0.0587 0.20671,0.0641 0.10041,0.008 0.2032,-0.0306 0.2744,-0.1018 0.0712,-0.0712 0.10932,-0.17451 0.1018,-0.27492 0.0146,0.13233 0.0869,0.25727 0.19431,0.3359 0.10744,0.0786 0.24875,0.10988 0.3793,0.0837 0.13056,-0.0261 0.24837,-0.10882 0.3173,-0.22273 0.0689,-0.1139 0.0876,-0.25722 0.0501,-0.38499 -0.009,-0.0318 -0.0219,-0.0627 -0.0258,-0.0956 -0.002,-0.0165 -0.001,-0.0335 0.003,-0.0496 0.004,-0.0161 0.011,-0.0312 0.0227,-0.0429 0.0118,-0.0116 0.0273,-0.0194 0.0434,-0.0233 0.0161,-0.004 0.0327,-0.004 0.0491,-0.002 0.0328,0.004 0.0642,0.0167 0.0961,0.0253 0.10446,0.0283 0.21783,0.0145 0.31781,-0.0269 0.1,-0.0414 0.18711,-0.10952 0.26097,-0.18862 0.1477,-0.1582 0.24217,-0.35737 0.36225,-0.53744 0.0657,-0.0985 0.14047,-0.19294 0.23513,-0.26406 0.0947,-0.0711 0.21091,-0.11747 0.32918,-0.11214 0.0316,0.001 0.063,0.006 0.0946,0.008 0.0315,0.002 0.0646,0.002 0.0946,-0.008 0.0289,-0.01 0.0537,-0.0279 0.0744,-0.0501 0.0207,-0.0223 0.0371,-0.0485 0.0491,-0.0765 0.0241,-0.0559 0.0323,-0.11689 0.0434,-0.17673 0.0111,-0.0598 0.0257,-0.1211 0.0589,-0.17208 0.0166,-0.0255 0.0383,-0.0478 0.0641,-0.0641 0.0257,-0.0163 0.0559,-0.0259 0.0863,-0.0253 0.0326,6.6e-4 0.0635,0.0128 0.0956,0.0186 0.016,0.003 0.033,0.004 0.0491,0.002 0.0161,-0.002 0.0316,-0.009 0.0434,-0.0207 0.0119,-0.0114 0.0186,-0.0273 0.0217,-0.0434 0.003,-0.0161 0.002,-0.0324 -5.1e-4,-0.0486 -0.006,-0.0324 -0.0185,-0.0634 -0.0217,-0.0961 -0.005,-0.0477 0.0132,-0.0966 0.0429,-0.13436 0.0296,-0.0377 0.0711,-0.0649 0.11627,-0.0811 0.0903,-0.0325 0.18989,-0.0221 0.28473,-0.008 0.0948,0.0147 0.19175,0.0333 0.28629,0.017 0.0473,-0.008 0.0934,-0.0255 0.13178,-0.0543 0.0384,-0.0288 0.0683,-0.0698 0.0801,-0.11627 0.008,-0.0305 0.008,-0.0625 0.006,-0.0941 -0.002,-0.0314 -0.006,-0.063 -0.006,-0.0946 9e-4,-0.0571 0.0165,-0.1136 0.0429,-0.16433 0.0263,-0.0507 0.0634,-0.0957 0.10645,-0.13332 0.0861,-0.0752 0.19483,-0.12029 0.30592,-0.14728 0.22217,-0.054 0.45973,-0.0412 0.67438,-0.11989 0.21798,-0.0799 0.3935,-0.24833 0.5271,-0.43822 0.13361,-0.18988 0.23045,-0.40243 0.33693,-0.60875 0.10649,-0.20631 0.22574,-0.4108 0.39378,-0.57102 0.084,-0.0801 0.17973,-0.14861 0.28577,-0.19585 0.10604,-0.0472 0.22249,-0.0729 0.33848,-0.0682 0.0633,0.003 0.12549,0.014 0.18862,0.0191 0.0631,0.005 0.12843,0.004 0.18758,-0.0191 0.0838,-0.0321 0.14645,-0.10255 0.20051,-0.17415 0.0541,-0.0716 0.10464,-0.14796 0.17621,-0.20205 0.0797,-0.0602 0.1788,-0.0872 0.27647,-0.108 0.0977,-0.0208 0.19768,-0.0372 0.28784,-0.0801 0.12103,-0.0576 0.21548,-0.15927 0.29972,-0.26355 0.0842,-0.10428 0.16263,-0.21484 0.2651,-0.30128 0.1076,-0.0908 0.23717,-0.1512 0.36742,-0.20464 0.13024,-0.0534 0.26365,-0.10107 0.38551,-0.17156 0.17344,-0.10033 0.32027,-0.24556 0.42478,-0.41651 0.10452,-0.17096 0.16668,-0.36762 0.1819,-0.56741 0.0305,-0.39958 -0.13268,-0.80594 -0.41858,-1.08676 -0.12694,-0.12468 -0.27794,-0.22785 -0.3762,-0.3762 -0.0734,-0.11082 -0.11369,-0.24379 -0.11369,-0.37672 0,-0.13293 0.0403,-0.26538 0.11369,-0.37621 -0.12368,0.0388 -0.26473,0.0192 -0.37259,-0.0527 -0.10785,-0.0719 -0.18051,-0.19491 -0.19224,-0.32401 -0.009,-0.0951 0.014,-0.1897 0.0274,-0.28422 0.007,-0.0473 0.0111,-0.0945 0.008,-0.14211 -0.003,-0.0476 -0.0137,-0.0951 -0.0357,-0.13746 -0.0413,-0.0797 -0.1185,-0.1336 -0.19172,-0.18552 -0.0366,-0.026 -0.0729,-0.0523 -0.10542,-0.0832 -0.0326,-0.0309 -0.0615,-0.067 -0.0796,-0.10801 -0.0257,-0.0582 -0.0289,-0.12371 -0.0238,-0.18707 0.005,-0.0634 0.0181,-0.1258 0.0238,-0.18913 0.0137,-0.15398 -0.0172,-0.31044 -0.0801,-0.45165 -0.0629,-0.14121 -0.15702,-0.26826 -0.26716,-0.37673 -0.22028,-0.21694 -0.50095,-0.36077 -0.78187,-0.48989 -0.56573,-0.26002 -1.15373,-0.4749 -1.69395,-0.78445 -0.54022,-0.30956 -1.04012,-0.72815 -1.31723,-1.28571 -0.12519,-0.25189 -0.20466,-0.52988 -0.37672,-0.7524 -0.1368,-0.17693 -0.32357,-0.30662 -0.49972,-0.44442 -0.17615,-0.1378 -0.34927,-0.29278 -0.44131,-0.49661 -0.0291,-0.0645 -0.0493,-0.1324 -0.076,-0.19792 -0.0267,-0.0655 -0.0608,-0.12964 -0.11214,-0.17829 -0.0512,-0.0485 -0.11676,-0.0796 -0.18241,-0.10542 -0.0657,-0.0257 -0.13293,-0.0476 -0.19379,-0.0832 -0.13673,-0.08 -0.22683,-0.21937 -0.30334,-0.35811 -0.0765,-0.13874 -0.14707,-0.28469 -0.26148,-0.3943 -0.10188,-0.0976 -0.23216,-0.16032 -0.36329,-0.21239 -0.13112,-0.0521 -0.26632,-0.0958 -0.38964,-0.16433 -0.31206,-0.17349 -0.51753,-0.48445 -0.75292,-0.75292 -0.77166,-0.88008 -1.91014,-1.33821 -2.82309,-2.07068 -0.45137,-0.36213 -0.84723,-0.79152 -1.31723,-1.12913 -0.6065,-0.43567 -1.3143,-0.70268 -2.00608,-0.98392 -0.69177,-0.28125 -1.38928,-0.58924 -1.94665,-1.08623 -0.63932,-0.57007 -1.04821,-1.34609 -1.50585,-2.07016 -1.65381,-2.61662 -4.07745,-4.69328 -6.7753,-6.21099 -0.19766,-0.1112 -0.39941,-0.22104 -0.56482,-0.37621 -0.16551,-0.15528 -0.2887,-0.35056 -0.40101,-0.54777 -0.11231,-0.19721 -0.21629,-0.39992 -0.35192,-0.58187 -0.14702,-0.19722 -0.32817,-0.36629 -0.49971,-0.54261 -0.17153,-0.17631 -0.33645,-0.364 -0.44132,-0.58652 -0.06,-0.12729 -0.10058,-0.26654 -0.1881,-0.37673 -0.0885,-0.11141 -0.21747,-0.18298 -0.34985,-0.23512 -0.13239,-0.0521 -0.27129,-0.0879 -0.40307,-0.1416 -0.33279,-0.13547 -0.60779,-0.38365 -0.84181,-0.65629 -0.23402,-0.27265 -0.434,-0.57355 -0.66404,-0.84956 -1.0638,-1.27637 -2.68164,-1.93996 -3.95222,-3.01067 -0.45069,-0.37979 -0.85654,-0.81059 -1.30483,-1.19321 -0.4483,-0.38261 -0.94979,-0.72134 -1.51825,-0.87694 -0.19294,-0.0528 -0.39126,-0.0839 -0.58498,-0.13385 -0.19371,-0.0499 -0.38624,-0.12074 -0.54467,-0.24288 -0.21121,-0.16285 -0.34926,-0.40654 -0.5643,-0.5643 -0.16096,-0.11808 -0.35581,-0.18093 -0.54984,-0.2279 -0.19402,-0.047 -0.39222,-0.0805 -0.57981,-0.14882 -0.32014,-0.11652 -0.5948,-0.3289 -0.85886,-0.54416 -0.26407,-0.21526 -0.52726,-0.43904 -0.8351,-0.58497 -0.28269,-0.13401 -0.59236,-0.19747 -0.8909,-0.29094 -0.29855,-0.0935 -0.5984,-0.22589 -0.80305,-0.46251 -0.0587,-0.0679 -0.10832,-0.14283 -0.1664,-0.21135 -0.0581,-0.0685 -0.12639,-0.13102 -0.2098,-0.16433 -0.0954,-0.0381 -0.2015,-0.0354 -0.30334,-0.0486 -0.0509,-0.007 -0.10147,-0.0176 -0.1478,-0.0398 -0.01,-0.005 -0.0189,-0.009 -0.0279,-0.015 z" />
      <path
         id="path63"
         style="display:inline;fill:url(#pattern98);stroke-width:0;stroke-linecap:round;stroke-linejoin:bevel;stroke-dasharray:none;paint-order:fill markers stroke"
         d="m 92.224383,135.88949 -3.387907,3.0117 2.375049,1.9513 c 0.151636,-0.71715 0.285115,-1.43832 0.474389,-2.14716 0.237983,-0.88913 0.466729,-1.78117 0.712618,-2.66805 z m 2.417423,2.05103 c -0.128246,0.4841 -0.255126,0.96886 -0.384472,1.45263 -0.249224,0.97022 -0.41387,1.9586 -0.65164,2.9316 -0.03437,0.13712 -0.06776,0.27442 -0.100769,0.41186 l 17.473865,14.35675 c 0.59916,-0.60183 1.20759,-1.19413 1.79731,-1.80557 0.33787,-0.36654 0.67078,-0.73784 1.00562,-1.10743 z M 116.1082,156.1544 c -0.87967,0.71243 -1.74123,1.4457 -2.56781,2.22157 -0.16796,0.13547 -0.33032,0.27629 -0.48834,0.42116 l 18.64279,15.31741 c 0.37245,-1.26394 0.76802,-2.52155 1.10846,-3.7946 z m 18.92907,16.06103 c -0.29862,1.0288 -0.61772,2.05178 -0.91467,3.08095 -0.0664,0.21602 -0.1337,0.43196 -0.20154,0.64751 l 24.55406,20.17396 2.07067,-2.25878 z" />
    </g>
    <path
       d="m 52.489053,155.07178 c -0.124068,-0.55904 -0.345333,-1.49305 -0.607507,-2.63943 -0.323439,-1.41077 -0.694665,-3.10293 -0.952323,-4.80775 -0.07347,-0.48902 -0.139952,-0.99166 -0.192502,-1.50081 -0.04625,-0.44811 -0.08756,-0.95736 -0.107908,-1.50016 -0.02361,-0.65311 -0.01968,-1.40669 0.07604,-2.17264 0.0647,-0.51118 0.171303,-1.03557 0.35664,-1.53049 0.130397,-0.33559 0.285444,-0.6733 0.463977,-1.03807 0.4743,-0.95951 1.045958,-1.88951 1.692812,-2.78769 0.781599,-1.0831 1.652865,-2.09058 2.597084,-3.00876 0.923229,-0.89634 1.892745,-1.68416 2.905803,-2.3484 0.939398,-0.61498 1.875805,-1.09632 2.809257,-1.44224 0.948978,-0.35143 1.834012,-0.53724 2.642436,-0.59573 0.237192,-0.0172 0.433165,-0.0209 0.572376,-0.0209 a 0.94106462,0.94106462 90 0 0 1.6e-5,-1.88212 c -0.1736,-1e-5 -0.416159,0.005 -0.708297,0.0258 -0.996885,0.0721 -2.055918,0.29902 -3.160349,0.70802 -1.082466,0.40114 -2.144482,0.95041 -3.18689,1.63283 -1.123584,0.73671 -2.185561,1.60162 -3.185944,2.57287 -1.023067,0.99485 -1.965995,2.08528 -2.812247,3.25798 -0.699727,0.97159 -1.327268,1.99013 -1.854934,3.05762 -0.192215,0.3927 -0.373614,0.78535 -0.531704,1.19292 -0.0012,0.003 -0.0024,0.006 -0.0036,0.009 -0.254667,0.67799 -0.387479,1.3586 -0.46386,1.96206 -0.113117,0.90515 -0.115072,1.76872 -0.08948,2.47677 0.02229,0.5944 0.0672,1.14573 0.116578,1.62414 0.05616,0.5441 0.126675,1.07623 0.203568,1.58803 0.268974,1.77968 0.653728,3.52952 0.978794,4.94739 0.265982,1.16303 0.483582,2.08123 0.604732,2.62711 a 0.94106462,0.94106462 90 0 0 1.837422,-0.40778 z"
       id="path-1"
       inkscape:path-effect="#path-effect109;#path-effect110"
       inkscape:original-d="m 51.570342,155.27567 c -0.873103,-3.94966 -2.878712,-11.12189 -1.31749,-14.86883 2.200196,-5.28047 8.425367,-11.6692 14.492395,-11.6692"
       style="fill:#b39dc9;fill-opacity:0.945338;fill-rule:nonzero;stroke:none;stroke-width:0;stroke-linecap:round;stroke-linejoin:bevel;stroke-dasharray:none;paint-order:fill markers stroke"
       transform="translate(-38.598679,-84.380486)" />
    <path
       d="m 105.36624,105.11729 c 0.3934,0.19009 0.71211,0.29202 1.2945,0.483 0.30315,0.0995 0.61211,0.20671 0.87017,0.35203 0.14491,0.0813 0.28285,0.18056 0.40159,0.29964 0.0918,0.0921 0.18354,0.18759 0.2753,0.28642 0.27247,0.29347 0.55588,0.62761 0.87822,1.03799 0.54629,0.69847 1.09608,1.48339 1.66472,2.3878 0.57913,0.92371 1.154,1.93576 1.68278,3.02505 0.36185,0.74809 0.70832,1.54351 0.99052,2.3712 0.1756,0.51872 0.32666,1.0488 0.41669,1.58324 0.0401,0.24148 0.0667,0.49645 0.0903,0.78086 0.0727,0.90934 0.0547,1.83786 0.0148,2.82633 -0.0445,1.10547 -0.122,2.32118 -0.097,3.51292 0.007,0.39033 0.0329,0.78952 0.0509,1.14486 0.0796,1.52997 0.15769,3.0238 0.16786,4.5179 0.009,1.27655 -0.0375,2.53052 -0.17064,3.76304 -0.13192,1.23402 -0.35083,2.44405 -0.6423,3.62009 -0.17676,0.71484 -0.37826,1.41325 -0.59542,2.09187 -0.14165,0.43776 -0.28424,0.82257 -0.45802,1.17401 -0.12028,0.24143 -0.2362,0.42846 -0.36054,0.57692 -0.0797,0.0949 -0.14787,0.15219 -0.20148,0.1863 -0.004,0.002 -0.007,0.005 -0.0105,0.007 -0.34846,0.22832 -0.74709,0.40876 -1.12519,0.56745 -0.66628,0.28004 -1.0306,0.40502 -1.57172,0.67486 a 0.94106462,0.94106462 90 0 0 0.83994,1.68432 c 0.46873,-0.23375 0.70735,-0.30729 1.4606,-0.62389 0.39273,-0.16483 0.92353,-0.39871 1.42307,-0.7253 0.24555,-0.15723 0.45199,-0.35235 0.62722,-0.56087 0.2527,-0.30171 0.44449,-0.62859 0.60454,-0.94984 0.23355,-0.47235 0.40884,-0.95542 0.56378,-1.43424 0.22926,-0.71644 0.44271,-1.45571 0.63074,-2.21613 0.31088,-1.25436 0.54531,-2.54883 0.68667,-3.87126 0.14256,-1.31965 0.19052,-2.64778 0.18137,-3.97702 -0.0105,-1.54385 -0.0911,-3.08057 -0.17028,-4.60133 -0.0197,-0.39073 -0.0423,-0.73288 -0.0488,-1.08551 -0.0235,-1.11783 0.0488,-2.23319 0.0958,-3.40017 0.0404,-1.00362 0.0628,-2.02516 -0.0195,-3.05493 -0.0254,-0.30672 -0.057,-0.62047 -0.10986,-0.93855 -0.113,-0.67082 -0.2966,-1.30413 -0.49095,-1.87819 -0.31498,-0.92388 -0.69493,-1.79278 -1.07884,-2.58648 -0.56315,-1.1601 -1.17221,-2.23163 -1.78254,-3.20511 -0.59924,-0.95307 -1.18563,-1.79147 -1.77739,-2.54806 -0.34816,-0.44328 -0.6653,-0.81832 -0.98025,-1.15754 -0.10601,-0.11418 -0.21314,-0.22575 -0.32174,-0.33469 -0.26179,-0.26252 -0.54549,-0.46184 -0.81227,-0.61149 -0.43864,-0.24703 -0.9143,-0.40399 -1.20553,-0.49962 -0.59902,-0.19643 -0.79969,-0.26238 -1.06246,-0.38935 a 0.94106462,0.94106462 90 0 0 -0.81886,1.69466 z"
       id="path-1-1"
       inkscape:path-effect="#path-effect113;#path-effect114"
       inkscape:original-d="m 105.77567,104.26996 c 0.96286,0.46452 2.03573,0.53003 2.82319,1.31749 2.35194,2.35195 5.79071,8.11847 6.21103,11.48099 0.30712,2.457 -0.13026,5.05371 0,7.52852 0.28455,5.40646 0.50825,9.17042 -1.12928,14.49239 -0.25932,0.8428 -0.71349,2.29506 -1.5057,2.8232 -0.8651,0.57673 -1.92223,0.86701 -2.8232,1.31749"
       style="fill:#7692dd;fill-opacity:1;fill-rule:nonzero;stroke:none;stroke-width:0;stroke-linecap:round;stroke-linejoin:bevel;stroke-dasharray:none;paint-order:fill markers stroke"
       transform="translate(-38.598679,-84.380486)" />
    <path
       d="m 89.482538,175.7223 c 0.6906,-0.652 2.255438,-2.08809 4.535798,-3.66383 0.611024,-0.42222 1.387471,-0.93385 2.314336,-1.48648 2.259223,-1.3458 5.179788,-2.79667 8.709008,-3.92202 2.80565,-0.89361 5.79287,-1.51433 8.88051,-1.7427 2.89114,-0.21366 5.61536,-0.0613 8.12005,0.38026 1.86466,0.32849 3.29937,0.76439 4.13921,1.04439 a 0.94106462,0.94106462 90 0 0 0.59528,-1.78552 c -0.89764,-0.29926 -2.42558,-0.76323 -4.40785,-1.11244 -2.66141,-0.46916 -5.54205,-0.62861 -8.58546,-0.40369 -3.24809,0.24023 -6.38044,0.89233 -9.31322,1.82643 -3.68888,1.17626 -6.74038,2.69226 -9.101072,4.0985 -0.968988,0.57775 -1.781046,1.11281 -2.420754,1.55485 -2.388531,1.65049 -4.030341,3.15679 -4.757908,3.84369 a 0.94106462,0.94106462 90 0 0 1.292072,1.36856 z"
       id="path-1-8"
       inkscape:path-effect="#path-effect117;#path-effect118"
       inkscape:original-d="m 88.836502,175.03802 c 9.567151,-9.03641 24.860468,-13.85956 37.642588,-9.59886"
       style="fill:#319ddd;fill-opacity:1;fill-rule:nonzero;stroke:none;stroke-width:0;stroke-linecap:round;stroke-linejoin:bevel;stroke-dasharray:none;paint-order:fill markers stroke"
       transform="translate(-38.598679,-84.380486)" />
    <path
       d="m 138.67798,194.48982 c 0.23539,-0.83948 0.6314,-2.137 1.26055,-3.72341 0.21968,-0.55373 0.47171,-1.15253 0.7604,-1.78766 0.0357,-0.078 0.0924,-0.17035 0.17974,-0.28841 0.0648,-0.087 0.13745,-0.17502 0.21518,-0.26257 0.07,-0.0788 0.14826,-0.16193 0.2386,-0.25298 0.24141,-0.24235 0.51699,-0.4873 0.84054,-0.74813 0.40759,-0.32776 0.84602,-0.6433 1.31522,-0.9476 0.44701,-0.28929 0.9017,-0.55521 1.3653,-0.79164 0.34465,-0.17524 0.67086,-0.32263 0.99094,-0.44205 0.25205,-0.0935 0.46142,-0.15552 0.65195,-0.19466 0.15778,-0.032 0.25283,-0.0373 0.31123,-0.0374 a 0.94106462,0.94106462 90 0 0 -0.003,-1.88212 c -0.19303,3.1e-4 -0.41243,0.0203 -0.68436,0.0754 -0.31154,0.064 -0.61559,0.15747 -0.9319,0.27477 -0.40401,0.15073 -0.79656,0.32945 -1.18881,0.52889 -0.5295,0.27003 -1.04015,0.56924 -1.5346,0.88924 -0.51919,0.33671 -1.00995,0.68945 -1.47222,1.06119 -0.36595,0.29501 -0.69449,0.58554 -0.99495,0.88719 -0.11212,0.11299 -0.2147,0.22154 -0.31124,0.33027 -0.10684,0.12033 -0.21466,0.2503 -0.31889,0.3902 -0.13098,0.177 -0.26973,0.38609 -0.3811,0.62952 -0.30329,0.66726 -0.56728,1.29442 -0.79746,1.87462 -0.65922,1.66227 -1.07517,3.02449 -1.32326,3.90921 a 0.94106462,0.94106462 90 0 0 1.81224,0.50816 z"
       id="path-1-5"
       inkscape:path-effect="#path-effect119;#path-effect120"
       inkscape:original-d="m 137.77186,194.23574 c 0.54145,-1.93178 1.24928,-3.84003 2.07035,-5.64639 0.72466,-1.59425 5.13328,-4.51711 6.96387,-4.51711"
       style="fill:#48c0d0;fill-opacity:1;fill-rule:nonzero;stroke:none;stroke-width:0;stroke-linecap:round;stroke-linejoin:bevel;stroke-dasharray:none;paint-order:fill markers stroke"
       transform="translate(-38.598679,-84.380486)" />
  </g>
  <g
     inkscape:label="上层"
     inkscape:groupmode="layer"
     id="layer1"
     style="display:inline">
    <path
       sodipodi:type="star"
       style="fill:#e7d500;fill-opacity:1;stroke-width:0.07;stroke-dasharray:none;paint-order:fill markers stroke"
       id="path10"
       inkscape:flatsided="false"
       sodipodi:sides="5"
       sodipodi:cx="45.249458"
       sodipodi:cy="48.177364"
       sodipodi:r1="5.6463876"
       sodipodi:r2="2.6040609"
       sodipodi:arg1="0.78539816"
       sodipodi:arg2="1.4137167"
       inkscape:rounded="0"
       inkscape:randomized="0"
       d="m 49.242057,52.169963 -3.585234,-1.420598 -2.970771,2.458968 0.243171,-3.84875 -3.256636,-2.065508 3.735522,-0.95806 0.95806,-3.735522 2.065508,3.256636 3.848749,-0.243171 -2.458967,2.970771 z"
       inkscape:transform-center-x="0.27295152"
       inkscape:transform-center-y="-0.27295152"
       transform="translate(65.475071,-23.160633)"
       inkscape:label="星5" />
    <path
       sodipodi:type="star"
       style="display:inline;fill:#e7d500;fill-opacity:1;stroke-width:0.07;stroke-dasharray:none;paint-order:fill markers stroke"
       id="path10-9"
       inkscape:flatsided="false"
       sodipodi:sides="5"
       sodipodi:cx="45.249458"
       sodipodi:cy="48.177364"
       sodipodi:r1="5.6463876"
       sodipodi:r2="2.6040609"
       sodipodi:arg1="0.78539816"
       sodipodi:arg2="1.4137167"
       inkscape:rounded="0"
       inkscape:randomized="0"
       d="m 49.242057,52.169963 -3.585234,-1.420598 -2.970771,2.458968 0.243171,-3.84875 -3.256636,-2.065508 3.735522,-0.95806 0.95806,-3.735522 2.065508,3.256636 3.848749,-0.243171 -2.458967,2.970771 z"
       inkscape:transform-center-x="0.16640691"
       inkscape:transform-center-y="-0.15672487"
       transform="matrix(0.60965808,0,0,0.57417245,16.707772,92.748974)"
       inkscape:label="星5" />
    <path
       sodipodi:type="star"
       style="fill:#e7d500;fill-opacity:1;stroke-width:0.07;stroke-dasharray:none;paint-order:fill markers stroke"
       id="path10-8"
       inkscape:flatsided="false"
       sodipodi:sides="5"
       sodipodi:cx="45.249458"
       sodipodi:cy="48.177364"
       sodipodi:r1="5.6463876"
       sodipodi:r2="2.6040609"
       sodipodi:arg1="0.78539816"
       sodipodi:arg2="1.4137167"
       inkscape:rounded="0"
       inkscape:randomized="0"
       d="m 49.242057,52.169963 -3.585234,-1.420598 -2.970771,2.458968 0.243171,-3.84875 -3.256636,-2.065508 3.735522,-0.95806 0.95806,-3.735522 2.065508,3.256636 3.848749,-0.243171 -2.458967,2.970771 z"
       inkscape:transform-center-x="0.27295152"
       inkscape:transform-center-y="-0.27295152"
       transform="translate(17.842978,-29.03982)"
       inkscape:label="星4" />
    <path
       sodipodi:type="star"
       style="fill:#e7d500;fill-opacity:1;stroke-width:0.07;stroke-dasharray:none;paint-order:fill markers stroke"
       id="path11"
       inkscape:flatsided="false"
       sodipodi:sides="5"
       sodipodi:cx="65.744797"
       sodipodi:cy="60.155159"
       sodipodi:r1="9.4181719"
       sodipodi:r2="4.3435721"
       sodipodi:arg1="0.82537685"
       sodipodi:arg2="1.4536954"
       inkscape:rounded="0"
       inkscape:randomized="0"
       d="m 72.132955,67.075664 -5.880684,-2.60668 -5.115216,3.900229 0.661868,-6.398372 -5.290026,-3.659623 6.289741,-1.347731 1.845801,-6.162 3.225405,5.565428 6.430794,-0.148702 -4.296331,4.787354 z"
       inkscape:transform-center-x="0.34002932"
       inkscape:transform-center-y="-0.56980906"
       transform="translate(-17.841753,35.335194)"
       inkscape:label="星3" />
    <path
       sodipodi:type="star"
       style="fill:#e7d500;fill-opacity:1;stroke-width:0.07;stroke-dasharray:none;paint-order:fill markers stroke"
       id="path12"
       inkscape:flatsided="false"
       sodipodi:sides="5"
       sodipodi:cx="96.088554"
       sodipodi:cy="63.881584"
       sodipodi:r1="5.3830214"
       sodipodi:r2="2.4825988"
       sodipodi:arg1="2.9927027"
       sodipodi:arg2="3.6210212"
       inkscape:rounded="0"
       inkscape:randomized="0"
       d="m 90.765089,64.680104 3.120758,-1.943674 -0.201771,-3.671006 2.81291,2.367389 3.428984,-1.326299 -1.382283,3.4068 2.321003,2.851309 -3.667213,-0.261871 -1.994526,3.088505 -0.884177,-3.568646 z"
       inkscape:transform-center-x="0.27366663"
       inkscape:transform-center-y="0.2467562"
       transform="translate(3.0277204,49.941084)"
       inkscape:label="星2" />
    <path
       sodipodi:type="star"
       style="fill:#e7d500;fill-opacity:1;stroke-width:0.07;stroke-dasharray:none;paint-order:fill markers stroke"
       id="path13"
       inkscape:flatsided="false"
       sodipodi:sides="5"
       sodipodi:cx="138.67628"
       sodipodi:cy="65.212456"
       sodipodi:r1="7.166935"
       sodipodi:r2="3.3053229"
       sodipodi:arg1="1.0240075"
       sodipodi:arg2="1.652326"
       inkscape:rounded="0"
       inkscape:randomized="0"
       d="m 142.40271,71.334441 -3.99561,-2.827642 -4.40164,2.141496 1.45454,-4.67384 -3.39687,-3.524451 4.89456,-0.06095 2.30227,-4.319727 1.57047,4.636171 4.81974,0.854714 -3.92396,2.926261 z"
       inkscape:transform-center-x="-0.18036421"
       inkscape:transform-center-y="-0.5105715"
       transform="translate(-122.22046,10.349104)"
       inkscape:label="星1" />
    <path
       sodipodi:type="star"
       style="display:inline;fill:#e7d500;fill-opacity:1;stroke-width:0.07;stroke-dasharray:none;paint-order:fill markers stroke"
       id="path10-4"
       inkscape:flatsided="false"
       sodipodi:sides="5"
       sodipodi:cx="45.249458"
       sodipodi:cy="48.177364"
       sodipodi:r1="5.6463876"
       sodipodi:r2="2.6040609"
       sodipodi:arg1="0.78539816"
       sodipodi:arg2="1.4137167"
       inkscape:rounded="0"
       inkscape:randomized="0"
       d="m 49.242057,52.169963 -3.585234,-1.420598 -2.970771,2.458968 0.243171,-3.84875 -3.256636,-2.065508 3.735522,-0.95806 0.95806,-3.735522 2.065508,3.256636 3.848749,-0.243171 -2.458967,2.970771 z"
       inkscape:transform-center-x="0.20030741"
       inkscape:transform-center-y="-0.1954654"
       transform="matrix(0.73385778,0,0,0.71611496,-24.205803,-24.722409)"
       inkscape:label="星5" />
    <path
       sodipodi:type="star"
       style="display:inline;fill:#e7d500;fill-opacity:1;stroke-width:0.07;stroke-dasharray:none;paint-order:fill markers stroke"
       id="path10-3"
       inkscape:flatsided="false"
       sodipodi:sides="5"
       sodipodi:cx="45.249458"
       sodipodi:cy="48.177364"
       sodipodi:r1="5.6463876"
       sodipodi:r2="2.6040609"
       sodipodi:arg1="0.78539816"
       sodipodi:arg2="1.4137167"
       inkscape:rounded="0"
       inkscape:randomized="0"
       d="m 49.242057,52.169963 -3.585234,-1.420598 -2.970771,2.458968 0.243171,-3.84875 -3.256636,-2.065508 3.735522,-0.95806 0.95806,-3.735522 2.065508,3.256636 3.848749,-0.243171 -2.458967,2.970771 z"
       inkscape:transform-center-x="0.074394188"
       inkscape:transform-center-y="-0.059864722"
       transform="matrix(0.2725446,0,0,0.21931615,75.394921,44.140324)"
       inkscape:label="星5" />
    <path
       sodipodi:type="star"
       style="display:inline;fill:#e7d500;fill-opacity:1;stroke-width:0.07;stroke-dasharray:none;paint-order:fill markers stroke"
       id="path10-87"
       inkscape:flatsided="false"
       sodipodi:sides="5"
       sodipodi:cx="45.249458"
       sodipodi:cy="48.177364"
       sodipodi:r1="5.6463876"
       sodipodi:r2="2.6040609"
       sodipodi:arg1="0.78539816"
       sodipodi:arg2="1.4137167"
       inkscape:rounded="0"
       inkscape:randomized="0"
       d="m 49.242057,52.169963 -3.585234,-1.420598 -2.970771,2.458968 0.243171,-3.84875 -3.256636,-2.065508 3.735522,-0.95806 0.95806,-3.735522 2.065508,3.256636 3.848749,-0.243171 -2.458967,2.970771 z"
       inkscape:transform-center-x="0.15672081"
       inkscape:transform-center-y="-0.16156536"
       transform="matrix(0.57417245,0,0,0.59191526,17.335102,46.684754)"
       inkscape:label="星5" />
    <path
       sodipodi:type="star"
       style="display:inline;fill:#e7d500;fill-opacity:1;stroke-width:0.07;stroke-dasharray:none;paint-order:fill markers stroke"
       id="path10-93"
       inkscape:flatsided="false"
       sodipodi:sides="5"
       sodipodi:cx="45.249458"
       sodipodi:cy="48.177364"
       sodipodi:r1="5.6463876"
       sodipodi:r2="2.6040609"
       sodipodi:arg1="0.78539816"
       sodipodi:arg2="1.4137167"
       inkscape:rounded="0"
       inkscape:randomized="0"
       d="m 49.242057,52.169963 -3.585234,-1.420598 -2.970771,2.458968 0.243171,-3.84875 -3.256636,-2.065508 3.735522,-0.95806 0.95806,-3.735522 2.065508,3.256636 3.848749,-0.243171 -2.458967,2.970771 z"
       inkscape:transform-center-x="0.10828814"
       inkscape:transform-center-y="-0.10829416"
       transform="matrix(0.3967443,0,0,0.3967443,67.003401,-7.6645145)"
       inkscape:label="星5" />
    <path
       sodipodi:type="star"
       style="display:inline;fill:#e7d500;fill-opacity:1;stroke-width:0.07;stroke-dasharray:none;paint-order:fill markers stroke"
       id="path10-5"
       inkscape:flatsided="false"
       sodipodi:sides="5"
       sodipodi:cx="45.249458"
       sodipodi:cy="48.177364"
       sodipodi:r1="5.6463876"
       sodipodi:r2="2.6040609"
       sodipodi:arg1="0.78539816"
       sodipodi:arg2="1.4137167"
       inkscape:rounded="0"
       inkscape:randomized="0"
       d="m 49.242057,52.169963 -3.585234,-1.420598 -2.970771,2.458968 0.243171,-3.84875 -3.256636,-2.065508 3.735522,-0.95806 0.95806,-3.735522 2.065508,3.256636 3.848749,-0.243171 -2.458967,2.970771 z"
       inkscape:transform-center-x="0.093762327"
       inkscape:transform-center-y="-0.1034521"
       transform="matrix(0.34351586,0,0,0.37900149,-6.3884056,90.925774)"
       inkscape:label="星5" />
  </g>
</svg>
